SplineFontDB: 3.0
FontName: Klein-Italic
FullName: Klein Italic
FamilyName: Klein
Weight: Regular
Copyright: Copyright (c) 2016 by Matt Kline\nLicensed under the SIL Open Font License (OFL)\nDevelopment is ongoing at at https://github.com/mrkline/klein
UComments: "2016-1-15: Created with FontForge (http://fontforge.org)"
Version: 0.3
ItalicAngle: -8
UnderlinePosition: -20
UnderlineWidth: 50
Ascent: 800
Descent: 200
InvalidEm: 0
LayerCount: 2
Layer: 0 0 "Back" 1
Layer: 1 0 "Fore" 0
XUID: [1021 77 -1879282181 14856649]
FSType: 0
OS2Version: 0
OS2_WeightWidthSlopeOnly: 0
OS2_UseTypoMetrics: 1
CreationTime: 1452917949
ModificationTime: 1471242808
PfmFamily: 17
TTFWeight: 500
TTFWidth: 5
LineGap: 100
VLineGap: 0
OS2TypoAscent: 0
OS2TypoAOffset: 1
OS2TypoDescent: 0
OS2TypoDOffset: 1
OS2TypoLinegap: 400
OS2WinAscent: 0
OS2WinAOffset: 1
OS2WinDescent: 0
OS2WinDOffset: 1
HheadAscent: 0
HheadAOffset: 1
HheadDescent: 0
HheadDOffset: 1
OS2CapHeight: 650
OS2XHeight: 450
OS2Vendor: 'PfEd'
Lookup: 4 0 1 "'liga' standard ligatures" { "'liga' standard ligatures-subtable"  } ['liga' ('DFLT' <'dflt' > 'latn' <'dflt' > ) ]
Lookup: 4 0 0 "'dlig' discretionary/historic ligatures" { "'dlig' discretionary/historic ligatures-subtable"  } ['dlig' ('DFLT' <'dflt' > 'latn' <'dflt' > ) ]
Lookup: 260 0 0 "mark to base" { "upper diacritics"  } ['mark' ('DFLT' <'dflt' > 'latn' <'dflt' > ) ]
Lookup: 258 0 0 "'kern' Horizontal Kerning" { "by class" [150,0,2] "per glyph" [100,15,2] } ['kern' ('DFLT' <'dflt' > 'latn' <'dflt' > ) ]
MarkAttachClasses: 1
DEI: 91125
KernClass2: 20 17 "by class"
 1 A
 1 F
 1 J
 1 P
 1 T
 11 V W Y seven
 3 R X
 6 O zero
 4 nine
 1 a
 7 b e o p
 17 c g h m n q s u z
 3 k x
 5 v w y
 5 f f_f
 1 r
 43 quotesingle quoteleft quotedbl quotedblleft
 24 quoteright quotedblright
 37 comma period ellipsis colon semicolon
 1 A
 5 V W Y
 5 T T_h
 1 J
 15 a g m n p r s z
 9 c d e o q
 25 f f_f f_i f_f_i f_l f_f_l
 1 t
 1 i
 1 j
 1 u
 5 v w y
 1 x

StartChar: l
Encoding: 108 108 0
Width: 260
VWidth: 838
Flags: HMW
LayerCount: 2
Fore
SplineSet
180.622070312 40 m 5
 239.215820312 30 l 5
 235 0 l 5
 35 0 l 5
 39.2158203125 30 l 5
 100.622070312 40 l 5
 182.135742188 620 l 5
 124.946289062 640 l 5
 127.756835938 660 l 5
 209.865234375 675 231.270507812 685 263.37890625 700 c 5
 273.37890625 700 l 5
 180.622070312 40 l 5
EndSplineSet
EndChar

StartChar: o
Encoding: 111 111 1
Width: 500
VWidth: 838
Flags: HMW
AnchorPoint: "upper" 321.676 510 basechar 0
LayerCount: 2
Back
SplineSet
251 458 m 0
 283 458 312 452 339 440 c 0
 366 428 388 412 408 392 c 0
 428 372 443 347 454 319 c 0
 465 291 471 260 471 227 c 0
 471 194 465 163 454 135 c 0
 443 107 428 83 408 62 c 0
 388 41 366 25 339 14 c 0
 312 3 283 -3 251 -3 c 0
 219 -3 190 3 163 14 c 0
 136 25 113 41 93 62 c 0
 73 83 58 107 47 135 c 0
 36 163 30 194 30 227 c 0
 30 260 36 291 47 319 c 0
 58 347 73 372 93 392 c 0
 113 412 136 428 163 440 c 0
 190 452 219 458 251 458 c 0
119 227 m 0
 119 166 131 119 154 85 c 0
 177 51 209 34 250 34 c 0
 291 34 324 51 347 85 c 0
 370 119 382 167 382 228 c 0
 382 288 370 335 347 369 c 0
 324 403 292 420 251 420 c 0
 210 420 177 403 154 369 c 0
 131 335 119 288 119 227 c 0
EndSplineSet
Fore
SplineSet
501.622070312 225 m 0
 484.053710938 100 373.594726562 -10 248.594726562 -10 c 3
 123.594726562 -10 44.0537109375 100 61.6220703125 225 c 0
 79.189453125 350 189.6484375 460 314.6484375 460 c 3
 439.6484375 460 519.189453125 350 501.622070312 225 c 0
307.622070312 410 m 3
 212.622070312 410 166.23828125 329 151.622070312 225 c 0
 137.145507812 122 159.918945312 35 254.918945312 35 c 3
 349.918945312 35 397.005859375 121 411.622070312 225 c 0
 426.09765625 328 402.622070312 410 307.622070312 410 c 3
EndSplineSet
EndChar

StartChar: x
Encoding: 120 120 2
Width: 459
VWidth: 838
Flags: HMW
LayerCount: 2
Fore
SplineSet
328.02734375 420 m 1
 332.243164062 450 l 1
 482.243164062 450 l 1
 478.02734375 420 l 1
 448.02734375 420 426.216796875 400 401 370 c 2
 295.995117188 249 l 1
 380.243164062 80 l 2
 395.02734375 50 413.215820312 30 443.215820312 30 c 1
 439 0 l 1
 259 0 l 1
 263.215820312 30 l 1
 285.215820312 30 302.76171875 41 305.151367188 58 c 0
 306.134765625 65 304.119140625 72 300.243164062 80 c 2
 245.703125 190 l 1
 151.243164062 80 l 2
 144.119140625 72 140.994140625 64 140.010742188 57 c 0
 137.622070312 40 152.215820312 30 174.215820312 30 c 1
 170 0 l 1
 20 0 l 1
 24.2158203125 30 l 1
 54.2158203125 30 76.02734375 50 101.243164062 80 c 2
 227.90234375 227 l 1
 156 370 l 2
 141.216796875 400 123.02734375 420 93.02734375 420 c 1
 97.2431640625 450 l 1
 277.243164062 450 l 1
 273.02734375 420 l 1
 251.02734375 420 233.481445312 409 231.091796875 392 c 0
 230.108398438 385 232.124023438 378 236 370 c 2
 278.194335938 286 l 1
 351 370 l 2
 358.124023438 378 361.108398438 385 362.091796875 392 c 0
 364.481445312 409 350.02734375 420 328.02734375 420 c 1
EndSplineSet
EndChar

StartChar: y
Encoding: 121 121 3
Width: 450
VWidth: 838
Flags: HMW
AnchorPoint: "upper" 315.271 500 basechar 0
LayerCount: 2
Fore
SplineSet
11.3564453125 -154 m 0
 15.1513671875 -127 35.5400390625 -110 63.5400390625 -110 c 3
 107.540039062 -110 88.0751953125 -156 105.075195312 -156 c 3
 114.075195312 -156 134.481445312 -146 150.119140625 -113 c 2
 226.74609375 48 l 1
 142 370 l 2
 134.216796875 400 119.02734375 420 89.02734375 420 c 1
 93.2431640625 450 l 1
 263.243164062 450 l 1
 259.02734375 420 l 1
 235.02734375 420 224.059570312 406 221.108398438 385 c 0
 220.405273438 380 220.703125 375 222 370 c 2
 278.784179688 155 l 1
 382 370 l 2
 384.703125 375 386.405273438 380 387.108398438 385 c 0
 390.059570312 406 374.02734375 420 349.02734375 420 c 1
 353.243164062 450 l 1
 503.243164062 450 l 1
 499.02734375 420 l 1
 469.02734375 420 446.216796875 400 432 370 c 2
 200.119140625 -113 l 2
 157.891601562 -200 114.486328125 -210 71.486328125 -210 c 3
 34.486328125 -210 6.296875 -190 11.3564453125 -154 c 0
EndSplineSet
EndChar

StartChar: z
Encoding: 122 122 4
Width: 393
VWidth: 838
Flags: HMW
LayerCount: 2
Fore
SplineSet
436.243164062 450 m 1
 432.729492188 425 l 1
 112.918945312 35 l 1
 307.918945312 35 l 1
 356.97265625 135 l 1
 380.97265625 135 l 1
 352 0 l 1
 20 0 l 1
 23.513671875 25 l 1
 339.622070312 410 l 1
 149.622070312 410 l 1
 100.567382812 310 l 1
 80.5673828125 310 l 1
 110.243164062 450 l 1
 436.243164062 450 l 1
EndSplineSet
EndChar

StartChar: i
Encoding: 105 105 5
Width: 260
VWidth: 838
Flags: HMW
LayerCount: 2
Fore
SplineSet
229.6484375 460 m 5
 239.6484375 460 l 5
 180.622070312 40 l 5
 239.215820312 30 l 5
 235 0 l 5
 35 0 l 5
 39.2158203125 30 l 5
 100.622070312 40 l 5
 148.405273438 380 l 5
 91.216796875 400 l 5
 94.02734375 420 l 5
 176.135742188 435 197.541015625 445 229.6484375 460 c 5
212.157226562 549 m 7
 182.157226562 549 160.810546875 575 164.88671875 604 c 4
 169.383789062 636 195.616210938 659 227.616210938 659 c 7
 260.616210938 659 279.524414062 637 274.88671875 604 c 4
 270.530273438 573 244.157226562 549 212.157226562 549 c 7
EndSplineSet
EndChar

StartChar: t
Encoding: 116 116 6
Width: 318
VWidth: 838
Flags: HMW
LayerCount: 2
Back
SplineSet
626 64 m 1
 596 25 557 5 507 5 c 0
 453 5 387 25 387 110 c 2
 387 392 l 1
 317 392 l 1
 317 420 l 1
 399 423 437 468 436 571 c 1
 467 571 l 1
 467 420 l 1
 587 420 l 1
 587 392 l 1
 467 392 l 1
 467 311 467 230 467 149 c 0
 467 73 488 38 530 38 c 0
 555 38 574 50 603 83 c 1
 626 64 l 1
289 60 m 1
 267 26 226 -3 174 -3 c 0
 131 -3 98 20 88 56 c 0
 84 70 81 90 81 116 c 2
 81 420 l 1
 28 420 l 1
 26 433 l 1
 146 559 l 1
 161 557 l 1
 161 449 l 1
 281 449 l 1
 275 420 l 1
 161 420 l 1
 161 123 l 2
 161 91 161 72 169 60 c 0
 179.182617188 44.7255859375 192 36 211 36 c 0
 238 36 262 53 275 70 c 1
 289 60 l 1
EndSplineSet
Fore
SplineSet
305.02734375 50 m 1
 278.389648438 17 233.594726562 -10 181.594726562 -10 c 0
 138.594726562 -10 110.108398438 15 104.16796875 51 c 0
 102.134765625 65 101.946289062 85 105.599609375 111 c 2
 147.622070312 410 l 1
 82.6220703125 410 l 1
 88.2431640625 450 l 1
 152.243164062 450 205.330078125 536 225.729492188 610 c 5
 255.729492188 610 l 1
 233.243164062 450 l 1
 353.243164062 450 l 1
 347.622070312 410 l 1
 227.622070312 410 l 1
 186.583984375 118 l 2
 183.3515625 95 180.416015625 67 185.729492188 55 c 0
 192.481445312 39 203.215820312 30 223.215820312 30 c 0
 250.215820312 30 276.74609375 48 292.134765625 65 c 1
 305.02734375 50 l 1
EndSplineSet
EndChar

StartChar: s
Encoding: 115 115 7
Width: 366
Flags: HMW
LayerCount: 2
Fore
SplineSet
92.0810546875 335 m 0
 104.44921875 423 175.6484375 460 268.6484375 460 c 3
 303.6484375 460 347.086914062 456 368.681640625 446 c 1
 352.518554688 331 l 1
 332.518554688 331 l 1
 323.637695312 403 302.622070312 410 254.622070312 410 c 3
 210.622070312 410 178.967773438 384 173.486328125 345 c 0
 163.086914062 271 269.681640625 261 304.02734375 235 c 0
 332.076171875 214 351.4375 181 343.989257812 128 c 0
 331.200195312 37 260.594726562 -10 166.594726562 -10 c 3
 127.594726562 -10 79.578125 -3 51.1240234375 8 c 1
 70.09765625 143 l 1
 90.09765625 143 l 1
 95.7294921875 55 124.918945312 35 179.918945312 35 c 3
 217.918945312 35 255.697265625 69 261.880859375 113 c 0
 272.28125 187 175.967773438 199 133.46484375 231 c 0
 105.556640625 253 84.6328125 282 92.0810546875 335 c 0
EndSplineSet
EndChar

StartChar: h
Encoding: 104 104 8
Width: 522
VWidth: 838
Flags: HMW
LayerCount: 2
Fore
SplineSet
222.622070312 410 m 1
 269.821289062 447 308.6484375 460 377.6484375 460 c 3
 428.6484375 460 486.854492188 433 492.232421875 393 c 0
 494.5625 374 491.750976562 354 488.518554688 331 c 2
 488.518554688 331 461.53515625 139 447.622070312 40 c 5
 506.215820312 30 l 5
 502 0 l 1
 302 0 l 1
 306.215820312 30 l 5
 367.622070312 40 l 5
 401.3515625 280 l 2
 411.750976562 354 414.622070312 410 343.622070312 410 c 3
 296.622070312 410 253.654296875 396 215.594726562 360 c 1
 170.622070312 40 l 5
 229.215820312 30 l 5
 225 0 l 1
 25 0 l 1
 29.2158203125 30 l 5
 90.6220703125 40 l 5
 172.135742188 620 l 1
 114.946289062 640 l 1
 117.756835938 660 l 1
 199.865234375 675 221.270507812 685 253.37890625 700 c 1
 263.37890625 700 l 1
 222.622070312 410 l 1
EndSplineSet
EndChar

StartChar: b
Encoding: 98 98 9
Width: 497
VWidth: 838
Flags: HMW
LayerCount: 2
Back
SplineSet
145 400 m 1
 145 400 194 460 255 460 c 3
 375 460 462 355 462 233 c 3
 462 92 365 -10 225 -10 c 3
 184 -10 145 10 145 10 c 1
 145 -180 l 1
 205 -190 l 1
 205 -210 l 1
 5 -210 l 1
 5 -190 l 1
 65 -180 l 1
 65 380 l 1
 -5 400 l 1
 -5 420 l 1
 75 435 105 445 135 460 c 1
 145 460 l 1
 145 400 l 1
145 75 m 2
 145 55 183 35 230 35 c 3
 318 35 372 127 372 218 c 3
 372 317 331 410 239 410 c 3
 184 410 145 350 145 330 c 2
 145 75 l 2
EndSplineSet
Fore
SplineSet
155.541015625 75 m 2
 152.729492188 55 187.918945312 35 234.918945312 35 c 3
 322.918945312 35 389.848632812 127 402.637695312 218 c 0
 416.551757812 317 388.622070312 410 296.622070312 410 c 3
 241.622070312 410 194.189453125 350 191.37890625 330 c 2
 155.541015625 75 l 2
124.215820312 30 m 1
 85 0 l 1
 65 0 l 1
 152.135742188 620 l 1
 94.9462890625 640 l 1
 97.7568359375 660 l 1
 179.865234375 675 201.270507812 685 233.37890625 700 c 1
 243.37890625 700 l 1
 201.216796875 400 l 1
 201.216796875 400 258.6484375 460 319.6484375 460 c 3
 439.6484375 460 511.891601562 355 494.74609375 233 c 0
 474.9296875 92 363.594726562 -10 223.594726562 -10 c 3
 157.594726562 -10 124.215820312 30 124.215820312 30 c 1
EndSplineSet
EndChar

StartChar: v
Encoding: 118 118 10
Width: 437
VWidth: 838
Flags: HMW
LayerCount: 2
Fore
SplineSet
336.02734375 420 m 1
 340.243164062 450 l 1
 490.243164062 450 l 1
 486.02734375 420 l 1
 456.02734375 420 434.216796875 400 419 370 c 2
 229.594726562 -10 l 1
 208.594726562 -10 l 1
 122 370 l 2
 115.216796875 400 99.02734375 420 69.02734375 420 c 1
 73.2431640625 450 l 1
 253.243164062 450 l 1
 249.02734375 420 l 1
 224.02734375 420 204.200195312 407 201.249023438 386 c 0
 200.545898438 381 200.984375 377 202 370 c 2
 253.95703125 142 l 1
 369 370 l 2
 371.703125 375 373.405273438 380 374.108398438 385 c 0
 377.059570312 406 361.02734375 420 336.02734375 420 c 1
EndSplineSet
EndChar

StartChar: u
Encoding: 117 117 11
Width: 495
VWidth: 838
Flags: HMW
AnchorPoint: "upper" 300.271 500 basechar 0
LayerCount: 2
Fore
SplineSet
339.918945312 35 m 5
 296 0 254.594726562 -10 186.594726562 -10 c 4
 96.5947265625 -10 87.02734375 50 99.95703125 142 c 6
 137.622070312 410 l 5
 80.4326171875 430 l 5
 83.2431640625 450 l 5
 223.243164062 450 l 5
 182.767578125 162 l 6
 172.7890625 91 166.918945312 35 234.918945312 35 c 4
 282.918945312 35 317.729492188 55 346.946289062 85 c 5
 392.622070312 410 l 5
 335.432617188 430 l 5
 338.243164062 450 l 5
 478.243164062 450 l 5
 422.02734375 50 l 5
 479.215820312 30 l 5
 477.810546875 20 l 5
 353.594726562 -10 l 5
 343.594726562 -10 l 5
 349.215820312 30 l 5
 339.918945312 35 l 5
EndSplineSet
EndChar

StartChar: c
Encoding: 99 99 12
Width: 448
VWidth: 838
Flags: HMW
AnchorPoint: "upper" 321.676 510 basechar 0
LayerCount: 2
Back
SplineSet
470 225 m 3
 470 100 375 -10 250 -10 c 3
 125 -10 30 100 30 225 c 3
 30 350 125 460 250 460 c 3
 375 460 470 350 470 225 c 3
250 410 m 3
 155 410 120 329 120 225 c 3
 120 122 155 35 250 35 c 3
 345 35 380 121 380 225 c 3
 380 328 345 410 250 410 c 3
EndSplineSet
Fore
SplineSet
460.859375 369 m 0
 457.345703125 344 439.09765625 328 414.09765625 328 c 3
 354.09765625 328 402.622070312 410 307.622070312 410 c 3
 212.622070312 410 166.23828125 329 151.622070312 225 c 0
 137.848632812 127 160.622070312 40 255.622070312 40 c 3
 350.622070312 40 410.708007812 126 410.708007812 126 c 1
 433.599609375 111 l 1
 433.599609375 111 373.594726562 -10 248.594726562 -10 c 3
 103.594726562 -10 44.0537109375 100 61.6220703125 225 c 0
 79.189453125 350 189.6484375 460 314.6484375 460 c 3
 384.6484375 460 467.46484375 416 460.859375 369 c 0
EndSplineSet
EndChar

StartChar: e
Encoding: 101 101 13
Width: 459
VWidth: 838
Flags: HMW
AnchorPoint: "upper" 311.676 510 basechar 0
LayerCount: 2
Back
SplineSet
409 369 m 3
 409 344 393 328 368 328 c 3
 308 328 345 410 250 410 c 3
 155 410 120 329 120 225 c 3
 120 127 155 40 250 40 c 3
 345 40 393 126 393 126 c 1
 418 111 l 1
 418 111 375 -10 250 -10 c 3
 105 -10 30 100 30 225 c 3
 30 350 125 460 250 460 c 3
 320 460 409 416 409 369 c 3
EndSplineSet
Fore
SplineSet
153.02734375 235 m 1
 138.270507812 130 157.622070312 40 255.622070312 40 c 3
 350.622070312 40 410.708007812 126 410.708007812 126 c 1
 433.599609375 111 l 1
 433.599609375 111 373.594726562 -10 248.594726562 -10 c 3
 103.594726562 -10 44.0537109375 100 61.6220703125 225 c 0
 79.189453125 350 189.6484375 460 314.6484375 460 c 3
 439.6484375 460 473.189453125 350 463.3515625 280 c 0
 459.837890625 255 438.02734375 235 408.02734375 235 c 2
 153.02734375 235 l 1
163.3515625 280 m 1
 365.3515625 280 l 2
 375.3515625 280 384.756835938 290 386.162109375 300 c 0
 387.567382812 310 401.622070312 410 306.622070312 410 c 3
 186.622070312 410 163.3515625 280 163.3515625 280 c 1
EndSplineSet
EndChar

StartChar: d
Encoding: 100 100 14
Width: 507
VWidth: 838
Flags: HMW
LayerCount: 2
Fore
SplineSet
355.594726562 -10 m 1
 361.215820312 30 l 1
 351.918945312 35 l 1
 330.108398438 15 271.594726562 -10 208.594726562 -10 c 3
 152.594726562 -10 115.951171875 21 93.7294921875 55 c 0
 68.9296875 92 56.6435546875 154 65.9189453125 220 c 0
 81.6591796875 332 146.059570312 406 228.837890625 440 c 0
 257.383789062 451 288.6484375 460 321.6484375 460 c 3
 352.6484375 460 381.665039062 453 409.541015625 445 c 1
 434.135742188 620 l 1
 376.946289062 640 l 1
 379.756835938 660 l 1
 461.865234375 675 483.270507812 685 515.37890625 700 c 1
 525.37890625 700 l 1
 435.432617188 60 l 1
 492.622070312 40 l 1
 489.810546875 20 l 1
 365.594726562 -10 l 1
 355.594726562 -10 l 1
157.74609375 233 m 0
 144.39453125 138 162.918945312 35 249.918945312 35 c 0
 294.918945312 35 338.275390625 66 360.3515625 95 c 1
 394.362304688 337 l 2
 400.967773438 384 368.622070312 410 312.622070312 410 c 3
 208.622070312 410 172.221679688 336 157.74609375 233 c 0
EndSplineSet
EndChar

StartChar: f
Encoding: 102 102 15
Width: 445
VWidth: 838
Flags: HMW
LayerCount: 2
Back
SplineSet
365 569 m 7
 335 569 310 595 310 624 c 7
 310 656 333 679 365 679 c 7
 398 679 420 657 420 624 c 7
 420 593 397 569 365 569 c 7
EndSplineSet
Fore
SplineSet
508.541015625 630 m 4
 505.02734375 605 487.918945312 590 462.918945312 590 c 7
 402.918945312 590 454.756835938 660 362.756835938 660 c 7
 283.756835938 660 261.513671875 580 249.567382812 495 c 6
 243.243164062 450 l 5
 363.243164062 450 l 5
 357.622070312 410 l 5
 237.622070312 410 l 5
 185.622070312 40 l 5
 244.215820312 30 l 5
 240 0 l 5
 40 0 l 5
 44.2158203125 30 l 5
 105.622070312 40 l 5
 157.622070312 410 l 5
 77.6220703125 410 l 5
 98.2431640625 450 l 5
 163.243164062 450 l 5
 168.865234375 490 l 6
 187.135742188 620 296.37890625 700 393.37890625 700 c 7
 445.37890625 700 515.567382812 680 508.541015625 630 c 4
EndSplineSet
EndChar

StartChar: g
Encoding: 103 103 16
Width: 472
VWidth: 838
Flags: HMW
LayerCount: 2
Back
SplineSet
49 296 m 3
 49 386 128 460 218 460 c 3
 308 460 387 386 387 296 c 3
 387 206 308 132 218 132 c 3
 128 132 49 206 49 296 c 3
218 296 m 1048
316 428 m 1
 336 462 370 492 403 492 c 0
 428 492 452 473 452 451 c 0
 452 428 433 408 416 408 c 0
 388 408 363 429 342 405 c 1
 316 428 l 1
349 509 m 1
 279 576 l 1
 287 581 l 1
 323 583 346 586 422 611 c 1
 427 602 l 1
 349 509 l 1
EndSplineSet
Fore
SplineSet
275.622070312 410 m 3
 205.622070312 410 179.032226562 356 170.599609375 296 c 0
 162.16796875 236 173.296875 180 243.296875 180 c 3
 313.296875 180 339.16796875 236 347.599609375 296 c 0
 356.032226562 356 345.622070312 410 275.622070312 410 c 3
80.162109375 -70 m 0
 72.5732421875 -124 113.513671875 -160 197.513671875 -160 c 3
 280.513671875 -160 335.573242188 -124 343.162109375 -70 c 0
 350.750976562 -16 304 0 220 0 c 2
 154 0 l 2
 114 0 84.5185546875 -39 80.162109375 -70 c 0
425.032226562 356 m 1
 425.032226562 356 433.518554688 331 428.599609375 296 c 0
 415.951171875 206 326.551757812 132 236.551757812 132 c 3
 199.551757812 132 173.37890625 145 173.37890625 145 c 1
 139.162109375 115 135.334960938 102 133.227539062 87 c 0
 129.713867188 62 187.90234375 42 238.90234375 42 c 3
 387.90234375 42 425.951171875 21 415.69140625 -52 c 0
 404.448242188 -132 333.486328125 -210 192.486328125 -210 c 3
 79.486328125 -210 -2.064453125 -157 8.1943359375 -84 c 0
 15.2216796875 -34 45.9833984375 7 102.215820312 30 c 1
 69.46484375 46 60.416015625 67 63.2275390625 87 c 0
 67.443359375 117 95.37890625 145 129.594726562 175 c 1
 129.594726562 175 79.9189453125 220 90.599609375 296 c 0
 103.249023438 386 192.6484375 460 282.6484375 460 c 3
 342.6484375 460 376.151367188 428 376.151367188 428 c 1
 409.151367188 428 431.275390625 436 506.6484375 460 c 1
 515.243164062 450 l 1
 425.032226562 356 l 1
EndSplineSet
EndChar

StartChar: j
Encoding: 106 106 17
Width: 260
VWidth: 838
Flags: HMW
LayerCount: 2
Back
SplineSet
-135 -90 m 0
 -135 -65 -120 -50 -95 -50 c 0
 -35 -50 -77 -120 15 -120 c 0
 94 -120 105 -40 105 45 c 4
 105 500 l 1
 45 510 l 1
 45 540 l 1
 245 540 l 1
 245 510 l 1
 185 500 l 1
 185 50 l 4
 185 -80 87 -160 -10 -160 c 0
 -62 -160 -135 -140 -135 -90 c 0
EndSplineSet
Fore
SplineSet
185 0 m 2
 171.5078125 -96 84.935546875 -157 -12.064453125 -157 c 3
 -64.064453125 -157 -113.692382812 -133 -107.086914062 -86 c 0
 -103.573242188 -61 -85.32421875 -45 -60.32421875 -45 c 3
 -0.32421875 -45 -52.443359375 -117 9.556640625 -117 c 3
 88.556640625 -117 104.71875 -2 110.622070312 40 c 2
 158.405273438 380 l 1
 101.216796875 400 l 1
 104.02734375 420 l 1
 186.135742188 435 207.541015625 445 239.6484375 460 c 1
 249.6484375 460 l 1
 185 0 l 2
222.157226562 549 m 3
 192.157226562 549 170.810546875 575 174.88671875 604 c 0
 179.383789062 636 205.616210938 659 237.616210938 659 c 3
 270.616210938 659 289.524414062 637 284.88671875 604 c 0
 280.530273438 573 254.157226562 549 222.157226562 549 c 3
EndSplineSet
EndChar

StartChar: a
Encoding: 97 97 18
Width: 460
VWidth: 838
Flags: HMW
AnchorPoint: "upper" 272.271 500 basechar 0
LayerCount: 2
Back
SplineSet
115 102 m 3
 115 59 155 35 197 35 c 3
 239 35 290 90 290 115 c 2
 290 207 l 1
 231 196 115 160 115 102 c 3
290 333 m 2
 290 397 247 410 204 410 c 3
 55 410 168 280 74 280 c 3
 51 280 35 301 35 325 c 3
 35 391 87 460 213 460 c 3
 321 460 370 414 370 303 c 10
 370 106 l 2
 370 65 370 35 401 35 c 3
 422 35 432 46 443 60 c 1
 455 48 l 1
 434 15 414 -10 369 -10 c 3
 332 -10 305 5 297 30 c 1
 287 35 l 1
 258 3 209 -10 160 -10 c 3
 100 -10 35 44 35 104 c 3
 35 206 200 236 290 257 c 1
 290 333 l 2
EndSplineSet
Fore
SplineSet
131.162109375 115 m 0
 121.32421875 45 159.918945312 35 201.918945312 35 c 3
 243.918945312 35 302.6484375 90 306.162109375 115 c 2
 322.32421875 230 l 1
 261.778320312 219 140.71875 183 131.162109375 115 c 0
336.799804688 333 m 2
 345.794921875 397 304.622070312 410 261.622070312 410 c 3
 112.622070312 410 207.3515625 280 113.3515625 280 c 3
 90.3515625 280 77.302734375 301 80.67578125 325 c 0
 89.951171875 391 151.6484375 460 277.6484375 460 c 3
 385.6484375 460 428.18359375 414 412.583984375 303 c 10
 384.897460938 106 l 2
 379.134765625 65 374.918945312 35 405.918945312 35 c 3
 426.918945312 35 438.46484375 46 451.432617188 60 c 1
 461.74609375 48 l 1
 436.108398438 15 412.594726562 -10 367.594726562 -10 c 3
 330.594726562 -10 305.703125 5 301.215820312 30 c 1
 291.918945312 35 l 1
 258.421875 3 207.594726562 -10 158.594726562 -10 c 3
 98.5947265625 -10 41.60546875 47 50.0380859375 107 c 0
 66.90234375 227 236.400390625 259 329.3515625 280 c 1
 336.799804688 333 l 2
EndSplineSet
EndChar

StartChar: A
Encoding: 65 65 19
Width: 635
VWidth: 838
Flags: HMW
AnchorPoint: "upper" 413.379 700 basechar 0
LayerCount: 2
Fore
SplineSet
439.108398438 200 m 1
 231.108398438 200 l 1
 171.243164062 80 l 2
 168.680664062 76 168.119140625 72 167.556640625 68 c 0
 164.18359375 44 193.215820312 30 224.215820312 30 c 1
 220 0 l 1
 10 0 l 1
 14.2158203125 30 l 1
 54.2158203125 30 86.02734375 50 101.243164062 80 c 2
 388.3515625 650 l 1
 425.756835938 660 l 1
 556.243164062 80 l 2
 563.02734375 50 589.215820312 30 629.215820312 30 c 1
 625 0 l 1
 395 0 l 1
 399.215820312 30 l 1
 429.215820312 30 463.32421875 45 466.697265625 69 c 0
 467.259765625 73 466.680664062 76 466.243164062 80 c 2
 439.108398438 200 l 1
254.432617188 245 m 1
 429.432617188 245 l 1
 375.162109375 485 l 1
 254.432617188 245 l 1
EndSplineSet
EndChar

StartChar: B
Encoding: 66 66 20
Width: 572
VWidth: 838
Flags: HMW
LayerCount: 2
Fore
SplineSet
570.426757812 494 m 0
 558.481445312 409 493.735351562 361 415.486328125 345 c 1
 415.065429688 342 l 1
 488.940429688 334 541.459960938 295 558.02734375 235 c 0
 562.215820312 215 564.264648438 194 561.032226562 171 c 0
 548.383789062 81 483.935546875 28 408.405273438 10 c 0
 379.5625 4 344 0 297 0 c 2
 25 0 l 1
 29.2158203125 30 l 1
 106.32421875 45 l 1
 185.02734375 605 l 5
 112.135742188 620 l 5
 116.3515625 650 l 1
 373.3515625 650 l 2
 477.3515625 650 538.541015625 630 564.124023438 563 c 0
 572.172851562 542 573.940429688 519 570.426757812 494 c 0
247.703125 375 m 1
 298.703125 375 l 2
 407.703125 375 464.827148438 383 480.708007812 496 c 0
 492.232421875 578 434.32421875 600 350.32421875 600 c 2
 279.32421875 600 l 1
 247.703125 375 l 1
462.157226562 179 m 0
 477.475585938 288 421.270507812 315 309.270507812 315 c 2
 239.270507812 315 l 1
 210.599609375 111 l 2
 204.416015625 67 226.432617188 60 276.432617188 60 c 3
 387.432617188 60 446.978515625 71 462.157226562 179 c 0
EndSplineSet
EndChar

StartChar: C
Encoding: 67 67 21
Width: 631
VWidth: 838
Flags: HMW
LayerCount: 2
Back
SplineSet
340 660 m 7
 530 660 645 520 645 330 c 3
 645 140 530 -10 340 -10 c 7
 150 -10 35 140 35 330 c 7
 35 520 150 660 340 660 c 7
140 330 m 7
 140 180 190 45 340 45 c 7
 490 45 540 180 540 330 c 3
 540 480 490 600 340 600 c 7
 190 600 140 480 140 330 c 7
EndSplineSet
Fore
SplineSet
338.594726562 -10 m 3
 148.594726562 -10 54.67578125 140 81.37890625 330 c 0
 108.081054688 520 242.756835938 660 432.756835938 660 c 3
 547.756835938 660 606.02734375 605 606.02734375 605 c 1
 657.3515625 650 l 1
 677.3515625 650 l 1
 650.368164062 458 l 1
 620.368164062 458 l 1
 620.368164062 458 574.32421875 600 424.32421875 600 c 3
 274.32421875 600 207.459960938 480 186.37890625 330 c 0
 165.296875 180 196.32421875 45 346.32421875 45 c 3
 496.32421875 45 572.643554688 154 572.643554688 154 c 1
 604.83203125 134 l 5
 604.83203125 134 528.594726562 -10 338.594726562 -10 c 3
EndSplineSet
EndChar

StartChar: D
Encoding: 68 68 22
Width: 655
VWidth: 838
Flags: HMW
AnchorPoint: "upper" 438.379 700 basechar 0
LayerCount: 2
Fore
SplineSet
25 0 m 1
 29.2158203125 30 l 1
 106.32421875 45 l 1
 185.02734375 605 l 1
 112.135742188 620 l 1
 116.3515625 650 l 1
 329.3515625 650 l 2
 567.3515625 650 693.081054688 520 666.37890625 330 c 0
 639.67578125 140 510 0 310 0 c 2
 25 0 l 1
205.319335938 109 m 2
 198.713867188 62 230.151367188 58 284.151367188 58 c 3
 459.151367188 58 540.296875 180 561.37890625 330 c 0
 582.459960938 480 523.46484375 601 339.46484375 601 c 2
 274.46484375 601 l 1
 205.319335938 109 l 2
EndSplineSet
EndChar

StartChar: E
Encoding: 69 69 23
Width: 553
VWidth: 838
Flags: HMW
AnchorPoint: "upper" 378.379 700 basechar 0
LayerCount: 2
Fore
SplineSet
556.4921875 466 m 1
 549.799804688 518 534.140625 556 514.32421875 600 c 1
 274.32421875 600 l 1
 242.703125 375 l 1
 391.703125 375 l 1
 410.059570312 406 423.16796875 421 434.368164062 458 c 1
 454.368164062 458 l 1
 421.340820312 223 l 1
 401.340820312 223 l 1
 401.119140625 257 394.6328125 282 383.270507812 315 c 1
 234.270507812 315 l 1
 198.291992188 59 l 1
 433.291992188 59 l 1
 472.599609375 111 493.81640625 141 523.249023438 201 c 1
 551.249023438 201 l 1
 492 0 l 1
 25 0 l 1
 29.2158203125 30 l 1
 106.32421875 45 l 1
 185.02734375 605 l 5
 112.135742188 620 l 5
 116.3515625 650 l 1
 587.3515625 650 l 1
 576.4921875 466 l 1
 556.4921875 466 l 1
EndSplineSet
EndChar

StartChar: H
Encoding: 72 72 24
Width: 694
VWidth: 838
Flags: HMW
LayerCount: 2
Fore
SplineSet
548.97265625 320 m 1
 234.97265625 320 l 1
 196.32421875 45 l 1
 269.215820312 30 l 1
 265 0 l 1
 25 0 l 1
 29.2158203125 30 l 1
 106.32421875 45 l 1
 185.02734375 605 l 1
 112.135742188 620 l 1
 116.3515625 650 l 1
 356.3515625 650 l 1
 352.135742188 620 l 1
 275.02734375 605 l 1
 243.405273438 380 l 1
 557.405273438 380 l 1
 589.02734375 605 l 1
 516.135742188 620 l 1
 520.3515625 650 l 1
 760.3515625 650 l 1
 756.135742188 620 l 1
 679.02734375 605 l 1
 600.32421875 45 l 1
 673.215820312 30 l 1
 669 0 l 1
 429 0 l 1
 433.215820312 30 l 1
 510.32421875 45 l 1
 548.97265625 320 l 1
EndSplineSet
EndChar

StartChar: I
Encoding: 73 73 25
Width: 289
VWidth: 838
Flags: HMW
AnchorPoint: "upper" 238.379 700 basechar 0
LayerCount: 2
Fore
SplineSet
185.02734375 605 m 1
 112.135742188 620 l 1
 116.3515625 650 l 1
 355.3515625 650 l 1
 351.135742188 620 l 1
 274.02734375 605 l 1
 195.32421875 45 l 5
 268.215820312 30 l 5
 264 0 l 1
 25 0 l 1
 29.2158203125 30 l 5
 106.32421875 45 l 5
 185.02734375 605 l 1
EndSplineSet
EndChar

StartChar: J
Encoding: 74 74 26
Width: 415
VWidth: 838
Flags: HW
LayerCount: 2
Fore
SplineSet
337.767578125 162 m 2
 323.713867188 62 235 0 125 0 c 3
 75 0 18.654296875 26 25.6806640625 76 c 0
 29.1943359375 101 53.1455078125 122 78.1455078125 122 c 3
 143.145507812 122 93.02734375 50 158.02734375 50 c 3
 228.02734375 50 241.162109375 115 253.108398438 200 c 2
 310.02734375 605 l 1
 237.135742188 620 l 1
 241.3515625 650 l 1
 481.3515625 650 l 1
 477.135742188 620 l 1
 400.02734375 605 l 1
 337.767578125 162 l 2
EndSplineSet
EndChar

StartChar: O
Encoding: 79 79 27
Width: 680
VWidth: 838
Flags: HMW
AnchorPoint: "upper" 438.379 700 basechar 0
LayerCount: 2
Fore
SplineSet
432.756835938 660 m 3
 622.756835938 660 718.081054688 520 691.37890625 330 c 0
 664.67578125 140 528.594726562 -10 338.594726562 -10 c 3
 148.594726562 -10 54.67578125 140 81.37890625 330 c 0
 108.081054688 520 242.756835938 660 432.756835938 660 c 3
186.37890625 330 m 0
 165.296875 180 196.32421875 45 346.32421875 45 c 3
 496.32421875 45 565.296875 180 586.37890625 330 c 4
 607.459960938 480 574.32421875 600 424.32421875 600 c 3
 274.32421875 600 207.459960938 480 186.37890625 330 c 0
EndSplineSet
EndChar

StartChar: r
Encoding: 114 114 28
Width: 360
VWidth: 838
Flags: HMW
LayerCount: 2
Back
SplineSet
329 406 m 0
 329 379 307 358 280 358 c 0
 267 358 256 363 248 374 c 0
 240 383 236 390 222 390 c 0
 210 390 199 383 189 369 c 0
 179 356 173 347 170 343 c 0
 167 339 165 334 164 329 c 1
 164 34 l 1
 248 22 l 1
 248 5 l 1
 21 5 l 1
 21 22 l 1
 85 34 l 1
 85 383 l 1
 23 407 l 1
 23 417 l 1
 153 459 l 1
 161 459 l 1
 161 366 l 1
 181 396 200 419 220 435 c 0
 240 451 258 459 276 459 c 0
 305 459 329 435 329 406 c 0
EndSplineSet
Fore
SplineSet
138.405273438 380 m 1
 81.216796875 400 l 1
 84.02734375 420 l 1
 166.135742188 435 187.541015625 445 219.6484375 460 c 1
 229.6484375 460 l 1
 219.810546875 390 l 5
 219.810546875 390 278.6484375 460 339.6484375 460 c 3
 368.6484375 460 391.697265625 439 387.622070312 410 c 0
 383.827148438 383 358.594726562 360 330.594726562 360 c 3
 302.594726562 360 300.810546875 390 274.810546875 390 c 3
 249.810546875 390 214.189453125 350 211.37890625 330 c 2
 170.622070312 40 l 1
 229.215820312 30 l 1
 225 0 l 1
 25 0 l 1
 29.2158203125 30 l 1
 90.6220703125 40 l 1
 138.405273438 380 l 1
EndSplineSet
EndChar

StartChar: k
Encoding: 107 107 29
Width: 482
VWidth: 838
Flags: HMW
LayerCount: 2
Fore
SplineSet
193.02734375 235 m 1
 330 370 l 2
 339.264648438 379 343.249023438 386 344.232421875 393 c 0
 346.622070312 410 328.02734375 420 307.02734375 420 c 1
 311.243164062 450 l 1
 491.243164062 450 l 1
 487.02734375 420 l 1
 457.02734375 420 430.216796875 400 400 370 c 2
 275.854492188 248 l 1
 412.622070312 40 l 1
 471.215820312 30 l 1
 467 0 l 1
 349 0 l 1
 226.108398438 200 l 1
 181.924804688 156 l 1
 165.622070312 40 l 1
 224.215820312 30 l 1
 220 0 l 1
 20 0 l 1
 24.2158203125 30 l 1
 85.6220703125 40 l 1
 167.135742188 620 l 1
 109.946289062 640 l 1
 112.756835938 660 l 1
 194.865234375 675 216.270507812 685 248.37890625 700 c 1
 258.37890625 700 l 1
 193.02734375 235 l 1
EndSplineSet
EndChar

StartChar: w
Encoding: 119 119 30
Width: 668
VWidth: 838
Flags: HMW
LayerCount: 2
Fore
SplineSet
567.02734375 420 m 1
 571.243164062 450 l 1
 721.243164062 450 l 1
 717.02734375 420 l 1
 686.88671875 419 665.497070312 402 650 370 c 2
 462.594726562 -10 l 1
 435.594726562 -10 l 1
 379.567382812 310 l 1
 224.594726562 -10 l 1
 197.594726562 -10 l 1
 122 370 l 2
 116.216796875 400 99.02734375 420 69.02734375 420 c 1
 73.2431640625 450 l 1
 253.243164062 450 l 1
 249.02734375 420 l 1
 224.02734375 420 205.059570312 406 201.967773438 384 c 0
 201.405273438 380 201.703125 375 202 370 c 2
 247.95703125 142 l 1
 363.405273438 380 l 18
 366.108398438 385 367.810546875 390 368.513671875 395 c 0
 370.059570312 406 354.02734375 420 329.02734375 420 c 1
 333.243164062 450 l 1
 498.243164062 450 l 1
 494.02734375 420 l 1
 469.02734375 420 450.059570312 406 448.373046875 394 c 0
 447.810546875 390 447.108398438 385 448.405273438 380 c 2
 488.95703125 142 l 1
 600 370 l 2
 602.84375 376 604.405273438 380 605.108398438 385 c 0
 608.059570312 406 592.02734375 420 567.02734375 420 c 1
EndSplineSet
EndChar

StartChar: F
Encoding: 70 70 31
Width: 535
VWidth: 838
Flags: HMW
LayerCount: 2
Back
SplineSet
490 466 m 5
 476 518 455 557 429 601 c 5
 190 601 l 5
 190 375 l 5
 339 375 l 5
 353 406 364 421 370 458 c 5
 390 458 l 5
 390 223 l 5
 370 223 l 5
 365 257 355 282 339 315 c 5
 190 315 l 5
 190 59 l 5
 425 59 l 5
 457 111 474 141 495 201 c 5
 523 201 l 5
 492 0 l 5
 25 0 l 5
 25 20 l 5
 100 35 l 5
 100 615 l 5
 25 630 l 5
 25 650 l 5
 495 650 l 5
 510 466 l 5
 490 466 l 5
EndSplineSet
Fore
SplineSet
555.4921875 466 m 1
 548.799804688 518 533.28125 557 513.46484375 601 c 1
 274.46484375 601 l 1
 242.703125 375 l 1
 391.703125 375 l 1
 410.059570312 406 423.16796875 421 434.368164062 458 c 1
 454.368164062 458 l 1
 421.340820312 223 l 1
 401.340820312 223 l 1
 401.119140625 257 394.6328125 282 383.270507812 315 c 1
 234.270507812 315 l 1
 196.32421875 45 l 5
 269.215820312 30 l 5
 265 0 l 1
 25 0 l 1
 29.2158203125 30 l 5
 106.32421875 45 l 5
 185.02734375 605 l 1
 112.135742188 620 l 1
 116.3515625 650 l 1
 586.3515625 650 l 1
 575.4921875 466 l 1
 555.4921875 466 l 1
EndSplineSet
EndChar

StartChar: G
Encoding: 71 71 32
Width: 668
VWidth: 838
Flags: HMW
LayerCount: 2
Back
SplineSet
36 324 m 7
 36 518 151 659 343 659 c 7
 415 659 477 637 523 608 c 5
 527 608 l 5
 568 651 l 5
 583 651 l 5
 583 458 l 5
 558 458 l 5
 527 551 475 609 357 609 c 7
 201 609 142 495 142 329 c 7
 142 163 202 50 357 50 c 7
 480 50 540 119 560 225 c 5
 583 225 l 5
 583 5 l 5
 563 5 l 5
 524 60 l 5
 471 21 422 -3 340 -3 c 7
 150 -3 36 133 36 324 c 7
EndSplineSet
Fore
SplineSet
449.870117188 611 m 0
 287.870117188 611 211.865234375 490 187.270507812 315 c 0
 160.567382812 125 221.32421875 45 362.32421875 45 c 0
 433.32421875 45 491.837890625 70 501.95703125 142 c 2
 522.475585938 288 l 1
 449.583984375 303 l 1
 452.39453125 323 l 1
 688.39453125 323 l 1
 685.583984375 303 l 1
 608.475585938 288 l 1
 577.556640625 68 l 1
 523.091796875 22 430.594726562 -10 338.594726562 -10 c 4
 242.594726562 -10 174.215820312 30 132.524414062 82 c 0
 89.11328125 136 65.2158203125 215 79.2705078125 315 c 0
 106.39453125 508 250.616210938 659 442.616210938 659 c 0
 509.616210938 659 564.946289062 640 596.44921875 608 c 1
 599.44921875 608 l 1
 650.3515625 650 l 1
 669.3515625 650 l 1
 642.368164062 458 l 1
 622.368164062 458 l 1
 597.454101562 544 568.870117188 611 449.870117188 611 c 0
EndSplineSet
EndChar

StartChar: L
Encoding: 76 76 33
Width: 544
VWidth: 838
Flags: HMW
LayerCount: 2
Fore
SplineSet
275.02734375 605 m 1
 198.291992188 59 l 1
 440.291992188 59 l 1
 479.740234375 112 500.81640625 141 530.249023438 201 c 1
 552.249023438 201 l 1
 493 0 l 1
 25 0 l 1
 29.2158203125 30 l 1
 106.32421875 45 l 1
 185.02734375 605 l 1
 112.135742188 620 l 1
 116.3515625 650 l 1
 356.3515625 650 l 1
 352.135742188 620 l 1
 275.02734375 605 l 1
EndSplineSet
EndChar

StartChar: p
Encoding: 112 112 34
Width: 517
VWidth: 838
Flags: HMW
LayerCount: 2
Back
SplineSet
85 380 m 1
 25 400 l 1
 25 420 l 1
 105 435 125 445 155 460 c 1
 165 460 l 1
 165 400 l 1
 165 400 214 460 275 460 c 3
 304 460 330 439 330 410 c 3
 330 383 308 360 280 360 c 3
 252 360 246 390 220 390 c 3
 195 390 165 350 165 330 c 2
 165 30 l 1
 225 20 l 1
 225 0 l 1
 25 0 l 1
 25 20 l 1
 85 30 l 1
 85 380 l 1
EndSplineSet
Fore
SplineSet
221.216796875 400 m 1
 221.216796875 400 278.6484375 460 339.6484375 460 c 3
 459.6484375 460 531.891601562 355 514.74609375 233 c 0
 494.9296875 92 383.594726562 -10 243.594726562 -10 c 3
 202.594726562 -10 166.405273438 10 166.405273438 10 c 1
 141.108398438 -170 l 5
 199.703125 -180 l 5
 195.486328125 -210 l 1
 -4.513671875 -210 l 1
 -0.296875 -180 l 5
 61.1083984375 -170 l 5
 138.405273438 380 l 1
 71.216796875 400 l 1
 74.02734375 420 l 1
 156.135742188 435 187.541015625 445 219.6484375 460 c 1
 229.6484375 460 l 1
 221.216796875 400 l 1
175.541015625 75 m 2
 172.729492188 55 207.918945312 35 254.918945312 35 c 3
 342.918945312 35 409.848632812 127 422.637695312 218 c 0
 436.551757812 317 408.622070312 410 316.622070312 410 c 3
 261.622070312 410 214.189453125 350 211.37890625 330 c 2
 175.541015625 75 l 2
EndSplineSet
EndChar

StartChar: q
Encoding: 113 113 35
Width: 493
VWidth: 838
Flags: HMW
LayerCount: 2
Back
SplineSet
348 375 m 2
 348 395 310 415 263 415 c 3
 175 415 121 323 121 232 c 3
 121 133 162 40 254 40 c 3
 309 40 348 100 348 120 c 2
 348 375 l 2
373 420 m 1
 408 450 l 1
 428 450 l 1
 428 -170 l 1
 488 -190 l 1
 488 -210 l 1
 408 -225 388 -235 358 -250 c 1
 348 -250 l 1
 348 50 l 1
 348 50 299 -10 238 -10 c 3
 118 -10 31 95 31 217 c 3
 31 358 128 460 268 460 c 3
 334 460 373 420 373 420 c 1
EndSplineSet
Fore
SplineSet
404.108398438 -170 m 1
 462.703125 -180 l 1
 458.486328125 -210 l 1
 258.486328125 -210 l 1
 262.703125 -180 l 1
 324.108398438 -170 l 1
 355.02734375 50 l 1
 355.02734375 50 297.594726562 -10 236.594726562 -10 c 3
 116.594726562 -10 44.3515625 95 61.4970703125 217 c 0
 81.3134765625 358 192.6484375 460 332.6484375 460 c 3
 398.6484375 460 432.02734375 420 432.02734375 420 c 1
 471.243164062 450 l 1
 491.243164062 450 l 1
 404.108398438 -170 l 1
400.703125 375 m 2
 403.513671875 395 368.32421875 415 321.32421875 415 c 3
 233.32421875 415 166.39453125 323 153.60546875 232 c 0
 139.692382812 133 167.622070312 40 259.622070312 40 c 3
 314.622070312 40 362.053710938 100 364.865234375 120 c 2
 400.703125 375 l 2
EndSplineSet
EndChar

StartChar: m
Encoding: 109 109 36
Width: 753
VWidth: 838
Flags: HMW
LayerCount: 2
Back
SplineSet
424 460 m 5
 424 400 l 5
 424 400 470 460 561 460 c 7
 667 460 673 410 673 298 c 6
 673 30 l 5
 733 20 l 5
 733 0 l 5
 534 0 l 5
 534 20 l 5
 594 30 l 5
 594 280 l 6
 594 354 591 410 520 410 c 7
 459.966796875 410 424 350 424 330 c 6
 424 30 l 5
 484 20 l 5
 484 0 l 5
 284 0 l 5
 284 20 l 5
 344 30 l 5
 344 380 l 5
 274 400 l 5
 274 420 l 5
 354 435 384 445 414 460 c 5
 424 460 l 5
175 460 m 1
 175 400 l 1
 175 400 221 460 312 460 c 3
 418 460 424 410 424 298 c 2
 424 30 l 1
 484 20 l 1
 484 0 l 1
 285 0 l 1
 285 20 l 1
 345 30 l 1
 345 280 l 2
 345 354 342 410 271 410 c 3
 210.966796875 410 175 350 175 330 c 2
 175 30 l 1
 235 20 l 1
 235 0 l 1
 35 0 l 1
 35 20 l 1
 95 30 l 1
 95 380 l 1
 25 400 l 1
 25 420 l 1
 105 435 135 445 165 460 c 1
 175 460 l 1
EndSplineSet
Fore
SplineSet
473.091796875 392 m 1
 473.091796875 392 526.6484375 460 625.6484375 460 c 3
 731.6484375 460 730.622070312 410 714.880859375 298 c 2
 678.622070312 40 l 5
 737.215820312 30 l 5
 733 0 l 1
 534 0 l 1
 538.215820312 30 l 5
 599.622070312 40 l 5
 633.3515625 280 l 2
 643.750976562 354 648.622070312 410 577.622070312 410 c 3
 517.622070312 410 473.189453125 350 470.37890625 330 c 2
 429.622070312 40 l 5
 488.215820312 30 l 5
 484 0 l 1
 285 0 l 1
 289.215820312 30 l 5
 350.622070312 40 l 5
 384.3515625 280 l 2
 395.172851562 357 398.622070312 410 328.622070312 410 c 3
 268.622070312 410 224.189453125 350 221.37890625 330 c 2
 180.622070312 40 l 5
 239.215820312 30 l 5
 235 0 l 1
 35 0 l 1
 39.2158203125 30 l 5
 100.622070312 40 l 5
 148.405273438 380 l 1
 81.216796875 400 l 1
 84.02734375 420 l 1
 166.135742188 435 197.541015625 445 229.6484375 460 c 1
 239.6484375 460 l 1
 231.216796875 400 l 1
 231.216796875 400 285.6484375 460 376.6484375 460 c 3
 466.6484375 460 469.16796875 421 473.091796875 392 c 1
EndSplineSet
EndChar

StartChar: n
Encoding: 110 110 37
Width: 515
VWidth: 838
Flags: HMW
AnchorPoint: "upper" 336.676 510 basechar 0
LayerCount: 2
Back
SplineSet
95 380 m 1
 35 400 l 1
 35 420 l 1
 115 435 135 445 165 460 c 1
 175 460 l 1
 175 400 l 1
 175 400 224 460 285 460 c 3
 314 460 340 439 340 410 c 3
 340 383 318 360 290 360 c 3
 262 360 256 390 230 390 c 3
 205 390 175 350 175 330 c 2
 175 30 l 1
 235 20 l 1
 235 0 l 1
 35 0 l 1
 35 20 l 1
 95 30 l 1
 95 380 l 1
EndSplineSet
Fore
SplineSet
239.6484375 460 m 1
 231.216796875 400 l 1
 231.216796875 400 285.6484375 460 386.6484375 460 c 3
 492.6484375 460 492.622070312 410 476.880859375 298 c 2
 440.622070312 40 l 5
 499.215820312 30 l 5
 495 0 l 1
 295 0 l 1
 299.215820312 30 l 5
 360.622070312 40 l 5
 394.3515625 280 l 2
 404.750976562 354 409.622070312 410 338.622070312 410 c 3
 268.622070312 410 224.189453125 350 221.37890625 330 c 2
 180.622070312 40 l 5
 239.215820312 30 l 5
 235 0 l 1
 35 0 l 1
 39.2158203125 30 l 5
 100.622070312 40 l 5
 148.405273438 380 l 1
 81.216796875 400 l 1
 84.02734375 420 l 1
 166.135742188 435 197.541015625 445 229.6484375 460 c 1
 239.6484375 460 l 1
EndSplineSet
EndChar

StartChar: K
Encoding: 75 75 38
Width: 600
VWidth: 838
Flags: HMW
LayerCount: 2
Back
SplineSet
507 320 m 1
 190 320 l 1
 190 35 l 1
 265 20 l 1
 265 0 l 1
 25 0 l 1
 25 20 l 1
 100 35 l 1
 100 615 l 1
 24 630 l 1
 24 651 l 1
 265 651 l 1
 265 630 l 1
 190 615 l 1
 190 380 l 1
 507 380 l 1
 507 615 l 1
 431 631 l 1
 431 651 l 1
 669 651 l 1
 669 630 l 1
 595 615 l 1
 595 35 l 5
 669 18 l 5
 669 0 l 5
 431 0 l 5
 431 19 l 5
 507 35 l 5
 507 320 l 1
EndSplineSet
Fore
SplineSet
505.32421875 45 m 1
 584.215820312 30 l 5
 580 0 l 1
 436 0 l 1
 290.39453125 323 l 1
 226.541015625 260 l 1
 196.32421875 45 l 1
 269.215820312 30 l 1
 265 0 l 1
 25 0 l 1
 29.2158203125 30 l 1
 106.32421875 45 l 1
 185.02734375 605 l 1
 112.135742188 620 l 1
 116.3515625 650 l 1
 356.3515625 650 l 1
 352.135742188 620 l 1
 275.02734375 605 l 1
 239.189453125 350 l 1
 473.513671875 580 l 2
 481.637695312 588 486.622070312 595 487.60546875 602 c 0
 489.995117188 619 469.541015625 630 440.541015625 630 c 1
 443.3515625 650 l 1
 653.3515625 650 l 1
 650.541015625 630 l 1
 610.541015625 630 583.729492188 610 553.513671875 580 c 2
 352.967773438 384 l 1
 505.32421875 45 l 1
EndSplineSet
EndChar

StartChar: M
Encoding: 77 77 39
Width: 850
VWidth: 838
Flags: HMW
LayerCount: 2
Fore
SplineSet
463.875976562 177 m 1
 719.3515625 650 l 1
 916.3515625 650 l 1
 912.135742188 620 l 1
 835.02734375 605 l 1
 756.32421875 45 l 5
 829.215820312 30 l 5
 825 0 l 1
 585 0 l 1
 589.215820312 30 l 5
 666.32421875 45 l 5
 738 555 l 1
 438 0 l 1
 413 0 l 1
 258 555 l 1
 186.32421875 45 l 5
 259.215820312 30 l 5
 255 0 l 1
 25 0 l 1
 29.2158203125 30 l 5
 106.32421875 45 l 5
 185.02734375 605 l 1
 112.135742188 620 l 1
 116.3515625 650 l 1
 331.3515625 650 l 1
 463.875976562 177 l 1
EndSplineSet
EndChar

StartChar: N
Encoding: 78 78 40
Width: 700
VWidth: 838
Flags: HMW
AnchorPoint: "upper" 448.379 700 basechar 0
LayerCount: 2
Fore
SplineSet
615 0 m 1
 575 0 l 1
 259.264648438 564 l 1
 186.32421875 45 l 1
 259.215820312 30 l 1
 255 0 l 1
 25 0 l 1
 29.2158203125 30 l 1
 106.32421875 45 l 1
 185.02734375 605 l 5
 112.135742188 620 l 5
 116.3515625 650 l 1
 311.3515625 650 l 1
 555.076171875 214 l 1
 610.02734375 605 l 5
 537.135742188 620 l 5
 541.3515625 650 l 1
 781.3515625 650 l 1
 777.135742188 620 l 5
 700.02734375 605 l 5
 615 0 l 1
EndSplineSet
EndChar

StartChar: T
Encoding: 84 84 41
Width: 640
VWidth: 838
Flags: HMW
LayerCount: 2
Fore
SplineSet
204.215820312 30 m 5
 281.32421875 45 l 5
 357.918945312 590 l 1
 182.918945312 590 l 1
 142.016601562 548 123.784179688 525 96.0537109375 470 c 1
 76.0537109375 470 l 1
 131.3515625 650 l 1
 691.3515625 650 l 1
 696.053710938 470 l 1
 676.053710938 470 l 1
 663.784179688 525 652.016601562 548 622.918945312 590 c 1
 447.918945312 590 l 1
 371.32421875 45 l 5
 444.215820312 30 l 5
 440 0 l 1
 200 0 l 1
 204.215820312 30 l 5
EndSplineSet
EndChar

StartChar: U
Encoding: 85 85 42
Width: 630
VWidth: 838
Flags: HMW
AnchorPoint: "upper" 423.379 700 basechar 0
LayerCount: 2
Fore
SplineSet
211.84375 191 m 2
 197.5078125 89 230.356445312 31 330.356445312 31 c 3
 469.356445312 31 480.178710938 108 500.416015625 252 c 2
 550.02734375 605 l 5
 477.135742188 620 l 5
 481.3515625 650 l 1
 711.3515625 650 l 1
 707.135742188 620 l 5
 630.02734375 605 l 5
 575.497070312 217 l 2
 554.134765625 65 470.735351562 -9 320.735351562 -9 c 3
 210.735351562 -9 131.918945312 35 121.145507812 122 c 0
 118.95703125 142 118.891601562 170 123.669921875 204 c 2
 180.02734375 605 l 5
 107.135742188 620 l 5
 111.3515625 650 l 1
 351.3515625 650 l 1
 347.135742188 620 l 5
 270.02734375 605 l 5
 211.84375 191 l 2
EndSplineSet
EndChar

StartChar: V
Encoding: 86 86 43
Width: 594
VWidth: 838
Flags: HMW
LayerCount: 2
Fore
SplineSet
170.108398438 570 m 2
 163.32421875 600 147.135742188 620 107.135742188 620 c 1
 111.3515625 650 l 1
 321.3515625 650 l 1
 317.135742188 620 l 1
 285.135742188 620 262.44921875 608 259.356445312 586 c 0
 258.654296875 581 258.951171875 576 260.108398438 570 c 2
 344.108398438 200 l 1
 524.108398438 570 l 2
 526.951171875 576 529.794921875 582 530.497070312 587 c 0
 533.58984375 609 514.135742188 620 481.135742188 620 c 1
 485.3515625 650 l 1
 665.3515625 650 l 1
 661.135742188 620 l 1
 621.135742188 620 599.32421875 600 584.108398438 570 c 2
 301.594726562 -10 l 1
 170.108398438 570 l 2
EndSplineSet
EndChar

StartChar: W
Encoding: 87 87 44
Width: 894
VWidth: 838
Flags: HMW
LayerCount: 2
Fore
SplineSet
470.108398438 570 m 2
 463.32421875 600 447.135742188 620 407.135742188 620 c 1
 411.3515625 650 l 1
 621.3515625 650 l 1
 617.135742188 620 l 1
 585.135742188 620 562.44921875 608 559.356445312 586 c 0
 558.654296875 581 558.951171875 576 560.108398438 570 c 2
 644.108398438 200 l 1
 824.108398438 570 l 2
 826.951171875 576 829.794921875 582 830.497070312 587 c 0
 833.58984375 609 814.135742188 620 781.135742188 620 c 1
 785.3515625 650 l 1
 965.3515625 650 l 1
 961.135742188 620 l 1
 921.135742188 620 899.32421875 600 884.108398438 570 c 2
 601.594726562 -10 l 1
 506.481445312 409 l 1
 301.594726562 -10 l 1
 170.108398438 570 l 2
 163.32421875 600 147.135742188 620 107.135742188 620 c 1
 111.3515625 650 l 1
 321.3515625 650 l 1
 317.135742188 620 l 1
 285.135742188 620 262.44921875 608 259.356445312 586 c 0
 258.654296875 581 258.951171875 576 260.108398438 570 c 2
 344.108398438 200 l 1
 487.287109375 493 l 1
 470.108398438 570 l 2
EndSplineSet
EndChar

StartChar: Y
Encoding: 89 89 45
Width: 600
VWidth: 838
Flags: HMW
AnchorPoint: "upper" 413.379 700 basechar 0
LayerCount: 2
Fore
SplineSet
170.215820312 30 m 1
 262.32421875 45 l 1
 295.2109375 279 l 1
 170.108398438 570 l 2
 157.32421875 600 147.135742188 620 107.135742188 620 c 1
 111.3515625 650 l 1
 321.3515625 650 l 1
 317.135742188 620 l 1
 285.135742188 620 260.30859375 607 257.497070312 587 c 0
 256.794921875 582 257.951171875 576 260.108398438 570 c 2
 365.09765625 328 l 1
 530.108398438 570 l 2
 533.951171875 576 536.794921875 582 537.497070312 587 c 0
 540.30859375 607 519.135742188 620 487.135742188 620 c 1
 491.3515625 650 l 1
 671.3515625 650 l 1
 667.135742188 620 l 1
 627.135742188 620 610.32421875 600 590.108398438 570 c 2
 383.102539062 264 l 1
 352.32421875 45 l 1
 440.215820312 30 l 1
 436 0 l 1
 166 0 l 1
 170.215820312 30 l 1
EndSplineSet
EndChar

StartChar: P
Encoding: 80 80 46
Width: 544
VWidth: 838
Flags: HMW
LayerCount: 2
Fore
SplineSet
116.3515625 650 m 1
 383.3515625 650 l 2
 485.3515625 650 556.729492188 610 578.891601562 540 c 0
 586.37890625 515 587.865234375 490 583.5078125 459 c 0
 570.157226562 364 495.848632812 312 415.038085938 292 c 0
 385.053710938 285 351.4921875 281 315.4921875 281 c 2
 229.4921875 281 l 1
 196.32421875 45 l 1
 269.215820312 30 l 1
 265 0 l 1
 25 0 l 1
 29.2158203125 30 l 1
 106.32421875 45 l 1
 185.02734375 605 l 1
 112.135742188 620 l 1
 116.3515625 650 l 1
237.221679688 336 m 1
 299.221679688 336 l 2
 409.221679688 336 472.686523438 382 484.6328125 467 c 0
 498.967773438 569 454.32421875 600 351.32421875 600 c 2
 274.32421875 600 l 1
 237.221679688 336 l 1
EndSplineSet
EndChar

StartChar: R
Encoding: 82 82 47
Width: 619
VWidth: 838
Flags: HMW
LayerCount: 2
Back
SplineSet
26 650 m 5
 293 650 l 6
 395 650 472 610 504 540 c 4
 515 515 520 490 520 459 c 7
 520 364 453 312 375 292 c 4
 346 285 313 281 277 281 c 6
 191 281 l 5
 191 35 l 5
 266 20 l 5
 266 0 l 5
 26 0 l 5
 26 20 l 5
 101 35 l 5
 101 615 l 5
 26 630 l 5
 26 650 l 5
191 336 m 5
 253 336 l 6
 363 336 420 382 420 467 c 7
 420 569 371 601 268 601 c 6
 191 601 l 5
 191 336 l 5
EndSplineSet
Fore
SplineSet
321.4921875 281 m 1
 230.4921875 281 l 1
 197.32421875 45 l 1
 270.215820312 30 l 1
 266 0 l 1
 25 0 l 1
 29.2158203125 30 l 1
 107.32421875 45 l 1
 186.02734375 605 l 1
 113.135742188 620 l 1
 117.3515625 650 l 1
 375.3515625 650 l 2
 475.3515625 650 547.291992188 614 570.735351562 546 c 0
 578.502929688 523 580.708007812 496 576.6328125 467 c 0
 563.5625 374 491.567382812 310 408.756835938 290 c 1
 524.32421875 45 l 1
 603.215820312 30 l 1
 599 0 l 1
 449 0 l 1
 321.4921875 281 l 1
292.221679688 336 m 2
 396.221679688 336 463.28125 372 477.334960938 472 c 0
 491.249023438 571 443.32421875 600 343.32421875 600 c 2
 275.32421875 600 l 1
 238.221679688 336 l 1
 292.221679688 336 l 2
EndSplineSet
EndChar

StartChar: S
Encoding: 83 83 48
Width: 461
VWidth: 838
Flags: HMW
LayerCount: 2
Back
SplineSet
166 -10 m 7
 -24 -10 -139 140 -139 330 c 7
 -139 520 -24 660 166 660 c 7
 281 660 347 605 347 605 c 5
 392 650 l 5
 412 650 l 5
 412 460 l 5
 382 460 l 5
 382 460 316 600 166 600 c 7
 16 600 -34 480 -34 330 c 7
 -34 180 16 45 166 45 c 7
 316 45 377 154 377 154 c 5
 412 134 l 5
 412 134 356 -10 166 -10 c 7
EndSplineSet
Fore
SplineSet
231.02734375 50 m 3
 302.02734375 50 362.086914062 86 371.784179688 155 c 0
 381.90234375 227 283.946289062 270 235.880859375 298 c 0
 171.940429688 334 92.984375 377 107.740234375 482 c 0
 122.778320312 589 213.616210938 659 320.616210938 659 c 3
 378.616210938 659 414.383789062 636 443.02734375 605 c 1
 474.3515625 650 l 1
 489.3515625 650 l 1
 462.6484375 460 l 1
 437.6484375 460 l 1
 429.891601562 540 402.30859375 607 317.30859375 607 c 3
 255.30859375 607 209.530273438 573 200.95703125 512 c 0
 194.7734375 468 214.946289062 455 236.854492188 433 c 0
 312.454101562 359 473.924804688 341 451.578125 182 c 0
 435.697265625 69 337.594726562 -10 225.594726562 -10 c 3
 168.594726562 -10 134.405273438 10 97.9189453125 35 c 1
 58 0 l 1
 43 0 l 1
 71.1083984375 200 l 1
 91.1083984375 200 l 1
 101.475585938 103 129.02734375 50 231.02734375 50 c 3
EndSplineSet
EndChar

StartChar: asciitilde
Encoding: 126 126 49
Width: 490
VWidth: 838
Flags: HMW
LayerCount: 2
Fore
SplineSet
184.432617188 245 m 3
 149.432617188 245 132.32421875 230 118.108398438 200 c 1
 94.513671875 210 l 1
 101.541015625 260 146.459960938 295 206.459960938 295 c 3
 276.459960938 295 305.134765625 250 375.134765625 250 c 3
 410.134765625 250 427.243164062 265 441.459960938 295 c 1
 465.053710938 285 l 1
 458.02734375 235 413.108398438 200 353.108398438 200 c 3
 283.108398438 200 254.432617188 245 184.432617188 245 c 3
EndSplineSet
EndChar

StartChar: bar
Encoding: 124 124 50
Width: 220
VWidth: 838
Flags: HMW
LayerCount: 2
Fore
SplineSet
69.458984375 -75 m 5
 178.37890625 700 l 1
 238.37890625 700 l 1
 129.458984375 -75 l 5
 69.458984375 -75 l 5
EndSplineSet
EndChar

StartChar: braceleft
Encoding: 123 123 51
Width: 285
VWidth: 838
Flags: HMW
LayerCount: 2
Fore
SplineSet
160.4375 -4 m 0
 153.69140625 -52 160.756835938 -80 204.756835938 -80 c 3
 215.756835938 -80 229.038085938 -78 240.458984375 -75 c 1
 240.946289062 -100 l 1
 219.961914062 -107 205.400390625 -111 180.400390625 -111 c 3
 106.400390625 -111 77.4755859375 -82 87.8759765625 -8 c 0
 98.556640625 68 128.551757812 132 139.513671875 210 c 0
 149.3515625 280 140.551757812 317 74.5517578125 317 c 1
 77.0810546875 335 l 1
 139.081054688 335 162.140625 371 171.275390625 436 c 0
 181.11328125 506 168.827148438 568 178.383789062 636 c 0
 188.221679688 706 235.421875 743 306.421875 743 c 3
 328.421875 743 342.578125 737 357.735351562 731 c 1
 350.784179688 710 l 1
 335.065429688 712 330.345703125 714 316.345703125 714 c 3
 276.345703125 714 256.005859375 676 250.102539062 634 c 0
 240.827148438 568 252.833007812 504 243.416015625 437 c 0
 235.264648438 379 210.065429688 342 167.81640625 326 c 1
 167.39453125 323 l 1
 207.005859375 306 221.0703125 278 212.637695312 218 c 0
 202.09765625 143 170.978515625 71 160.4375 -4 c 0
EndSplineSet
EndChar

StartChar: braceright
Encoding: 125 125 52
Width: 285
VWidth: 838
Flags: HMW
LayerCount: 2
Fore
SplineSet
195.875976562 -8 m 4
 185.475585938 -82 148.400390625 -111 74.400390625 -111 c 7
 49.400390625 -111 34.9619140625 -107 15.9462890625 -100 c 5
 24.458984375 -75 l 5
 35.0380859375 -78 45.7568359375 -80 57.7568359375 -80 c 7
 101.756835938 -80 117.69140625 -52 124.4375 -4 c 4
 134.697265625 69 123.95703125 142 134.637695312 218 c 0
 143.0703125 278 165.005859375 306 209.39453125 323 c 1
 209.81640625 326 l 1
 172.065429688 342 157.264648438 379 165.416015625 437 c 0
 174.97265625 505 204.827148438 568 214.102539062 634 c 0
 220.005859375 676 209.345703125 714 169.345703125 714 c 3
 155.345703125 714 151.065429688 712 134.784179688 710 c 1
 132.735351562 731 l 1
 149.578125 737 166.421875 743 188.421875 743 c 3
 259.421875 743 296.221679688 706 286.383789062 636 c 0
 276.827148438 568 246.97265625 505 237.275390625 436 c 0
 228.140625 371 240.081054688 335 302.081054688 335 c 1
 299.551757812 317 l 1
 233.551757812 317 215.3515625 280 205.513671875 210 c 0
 194.551757812 132 206.416015625 67 195.875976562 -8 c 4
EndSplineSet
EndChar

StartChar: Z
Encoding: 90 90 53
Width: 531
VWidth: 838
Flags: HMW
LayerCount: 2
Fore
SplineSet
419.432617188 60 m 1
 460.334960938 102 478.567382812 125 506.296875 180 c 1
 526.296875 180 l 1
 471 0 l 1
 20 0 l 1
 22.810546875 20 l 1
 467.918945312 590 l 1
 192.918945312 590 l 1
 152.016601562 548 133.784179688 525 106.053710938 470 c 1
 86.0537109375 470 l 1
 141.3515625 650 l 1
 591.3515625 650 l 1
 588.541015625 630 l 1
 144.432617188 60 l 1
 419.432617188 60 l 1
EndSplineSet
EndChar

StartChar: X
Encoding: 88 88 54
Width: 623
VWidth: 838
Flags: HMW
LayerCount: 2
Fore
SplineSet
500.135742188 620 m 1
 504.3515625 650 l 1
 683.3515625 650 l 1
 679.135742188 620 l 1
 639.135742188 620 619.32421875 600 593.108398438 570 c 2
 395.784179688 340 l 1
 534.243164062 80 l 2
 550.02734375 50 557.215820312 30 607.215820312 30 c 1
 603 0 l 1
 383 0 l 1
 387.215820312 30 l 1
 424.215820312 30 446.76171875 41 449.291992188 59 c 0
 450.134765625 65 448.119140625 72 444.243164062 80 c 2
 339.7890625 276 l 1
 171.243164062 80 l 2
 164.119140625 72 159.994140625 64 159.151367188 58 c 0
 156.76171875 41 175.215820312 30 204.215820312 30 c 1
 200 0 l 1
 20 0 l 1
 24.2158203125 30 l 1
 64.2158203125 30 86.02734375 50 111.243164062 80 c 2
 316.833007812 319 l 1
 186.108398438 570 l 2
 170.32421875 600 163.135742188 620 113.135742188 620 c 1
 117.3515625 650 l 1
 337.3515625 650 l 1
 333.135742188 620 l 1
 296.135742188 620 273.58984375 609 271.059570312 591 c 0
 270.216796875 585 272.232421875 578 276.108398438 570 c 2
 373.108398438 385 l 1
 533.108398438 570 l 2
 540.232421875 578 544.216796875 585 545.200195312 592 c 0
 547.58984375 609 529.135742188 620 500.135742188 620 c 1
EndSplineSet
EndChar

StartChar: equal
Encoding: 61 61 55
Width: 480
VWidth: 838
Flags: HMW
LayerCount: 2
Fore
SplineSet
117.924804688 341 m 1
 123.545898438 381 l 1
 463.545898438 381 l 1
 457.924804688 341 l 1
 117.924804688 341 l 1
98.2490234375 201 m 1
 103.870117188 241 l 1
 443.870117188 241 l 1
 438.249023438 201 l 1
 98.2490234375 201 l 1
EndSplineSet
EndChar

StartChar: less
Encoding: 60 60 56
Width: 438
VWidth: 838
Flags: HMW
LayerCount: 2
Fore
SplineSet
72.1025390625 264 m 1
 78.2861328125 308 l 1
 444.194335938 471 l 1
 437.02734375 420 l 1
 136.897460938 291 l 1
 136.334960938 287 l 1
 400.064453125 157 l 1
 392.334960938 102 l 1
 72.1025390625 264 l 1
EndSplineSet
EndChar

StartChar: greater
Encoding: 62 62 57
Width: 437
VWidth: 838
Flags: HMW
LayerCount: 2
Fore
SplineSet
74.8974609375 106 m 1
 82.064453125 157 l 1
 382.334960938 287 l 1
 382.897460938 291 l 1
 119.02734375 420 l 1
 126.756835938 475 l 1
 445.848632812 312 l 1
 439.805664062 269 l 1
 74.8974609375 106 l 1
EndSplineSet
EndChar

StartChar: at
Encoding: 64 64 58
Width: 731
VWidth: 838
Flags: HMW
LayerCount: 2
Fore
SplineSet
361.475585938 -82 m 0
 425.475585938 -82 472.880859375 -72 514.11328125 -49 c 1
 519.740234375 -73 l 1
 459.805664062 -101 397.837890625 -115 334.837890625 -115 c 0
 194.837890625 -115 111.270507812 -55 79.90234375 42 c 0
 68.1025390625 79 67.4267578125 124 74.7353515625 176 c 0
 104.530273438 388 269.032226562 541 480.032226562 541 c 0
 611.032226562 541 690.756835938 475 714.545898438 381 c 0
 722.048828125 349 725.411132812 316 720.3515625 280 c 0
 710.373046875 209 676.799804688 148 638.897460938 106 c 0
 604.556640625 68 554.356445312 31 492.356445312 31 c 0
 443.356445312 31 408.870117188 56 415.053710938 100 c 0
 416.459960938 110 416.162109375 115 421.865234375 120 c 1
 419.005859375 121 l 1
 393.9296875 92 368.978515625 71 345.432617188 60 c 0
 321.88671875 49 299.90234375 42 278.90234375 42 c 0
 220.90234375 42 198.665039062 83 206.81640625 141 c 0
 216.091796875 207 257.946289062 270 296.426757812 309 c 0
 333.626953125 346 389.951171875 391 451.951171875 391 c 0
 484.951171875 391 502.984375 377 512.172851562 357 c 1
 516.172851562 357 l 1
 529.951171875 391 l 1
 596.951171875 391 l 1
 494.799804688 148 l 2
 489.25390625 137 482.724609375 119 480.756835938 105 c 0
 477.243164062 80 488.259765625 73 511.259765625 73 c 0
 554.259765625 73 591.334960938 102 615.411132812 131 c 0
 645.330078125 166 670.637695312 218 679.0703125 278 c 0
 695.513671875 395 640.2109375 464 555.005859375 491 c 0
 527.270507812 500 497.833007812 504 466.833007812 504 c 0
 366.833007812 504 288.5078125 459 232.637695312 403 c 0
 177.908203125 348 133.946289062 270 120.594726562 175 c 0
 110.756835938 105 121.32421875 45 150.421875 3 c 0
 187.69140625 -52 257.475585938 -82 361.475585938 -82 c 0
280.23828125 144 m 0
 275.599609375 111 279.3671875 88 308.3671875 88 c 0
 326.3671875 88 343.2109375 94 364.459960938 110 c 0
 401.39453125 138 433.71875 183 458.74609375 233 c 0
 470.119140625 257 477.3515625 280 480.865234375 305 c 0
 484.940429688 334 479.750976562 354 450.750976562 354 c 0
 434.750976562 354 416.908203125 348 398.221679688 336 c 0
 359.567382812 310 326.665039062 268 303.918945312 220 c 0
 292.405273438 195 283.891601562 170 280.23828125 144 c 0
EndSplineSet
EndChar

StartChar: colon
Encoding: 58 58 59
Width: 220
VWidth: 838
Flags: HMW
LayerCount: 2
Fore
SplineSet
108.594726562 -10 m 7
 78.5947265625 -10 57.2490234375 16 61.32421875 45 c 4
 65.8212890625 77 92.0537109375 100 124.053710938 100 c 7
 157.053710938 100 175.961914062 78 171.32421875 45 c 4
 166.967773438 14 140.594726562 -10 108.594726562 -10 c 7
149.4921875 281 m 7
 119.4921875 281 98.146484375 307 102.221679688 336 c 4
 106.71875 368 132.951171875 391 164.951171875 391 c 7
 197.951171875 391 216.859375 369 212.221679688 336 c 4
 207.865234375 305 181.4921875 281 149.4921875 281 c 7
EndSplineSet
EndChar

StartChar: semicolon
Encoding: 59 59 60
Width: 220
VWidth: 838
Flags: HMW
LayerCount: 2
Back
SplineSet
110 -10 m 7
 80 -10 55 16 55 45 c 7
 55 77 78 100 110 100 c 7
 143 100 165 78 165 45 c 7
 165 14 142 -10 110 -10 c 7
110 281 m 7
 80 281 55 307 55 336 c 7
 55 368 78 391 110 391 c 7
 143 391 165 369 165 336 c 7
 165 305 142 281 110 281 c 7
EndSplineSet
Fore
SplineSet
149.4921875 281 m 3
 119.4921875 281 98.146484375 307 102.221679688 336 c 0
 106.71875 368 132.951171875 391 164.951171875 391 c 3
 197.951171875 391 216.859375 369 212.221679688 336 c 0
 207.865234375 305 181.4921875 281 149.4921875 281 c 3
124.053710938 100 m 3
 164.053710938 100 173.713867188 62 167.669921875 19 c 0
 157.83203125 -51 117.086914062 -99 65.4482421875 -132 c 1
 51.8212890625 -108 l 1
 69.3671875 -97 84.3349609375 -83 95.162109375 -70 c 0
 105.989257812 -57 112.67578125 -45 113.940429688 -36 c 0
 116.610351562 -17 97.7353515625 -9 86.71875 -2 c 0
 71.9833984375 7 57.669921875 19 61.32421875 45 c 0
 65.8212890625 77 92.0537109375 100 124.053710938 100 c 3
EndSplineSet
EndChar

StartChar: Q
Encoding: 81 81 61
Width: 705
VWidth: 838
Flags: HMW
LayerCount: 2
Back
SplineSet
345 660 m 7
 535 660 650 520 650 330 c 7
 650 140 535 -10 345 -10 c 7
 155 -10 40 140 40 330 c 7
 40 520 155 660 345 660 c 7
145 330 m 7
 145 180 195 45 345 45 c 7
 495 45 545 180 545 330 c 7
 545 480 495 600 345 600 c 7
 195 600 145 480 145 330 c 7
EndSplineSet
Fore
SplineSet
191.37890625 330 m 0
 170.296875 180 201.32421875 45 351.32421875 45 c 3
 501.32421875 45 570.296875 180 591.37890625 330 c 0
 612.459960938 480 579.32421875 600 429.32421875 600 c 3
 279.32421875 600 212.459960938 480 191.37890625 330 c 0
437.756835938 660 m 3
 627.756835938 660 723.081054688 520 696.37890625 330 c 0
 681.340820312 223 632.270507812 130 558.556640625 68 c 1
 563.16796875 51 591.827148438 13 666.345703125 -26 c 1
 631.458984375 -75 l 1
 473.83203125 -51 463.594726562 -10 343.594726562 -10 c 3
 153.594726562 -10 59.67578125 140 86.37890625 330 c 0
 113.081054688 520 247.756835938 660 437.756835938 660 c 3
EndSplineSet
EndChar

StartChar: plus
Encoding: 43 43 62
Width: 530
VWidth: 838
Flags: HMW
LayerCount: 2
Fore
SplineSet
97.32421875 230 m 1
 102.946289062 270 l 1
 282.946289062 270 l 1
 308.243164062 450 l 1
 348.243164062 450 l 1
 322.946289062 270 l 1
 502.946289062 270 l 1
 497.32421875 230 l 1
 317.32421875 230 l 1
 292.02734375 50 l 1
 252.02734375 50 l 1
 277.32421875 230 l 1
 97.32421875 230 l 1
EndSplineSet
EndChar

StartChar: comma
Encoding: 44 44 63
Width: 220
VWidth: 838
Flags: HMW
LayerCount: 2
Fore
SplineSet
124.053710938 100 m 7
 164.053710938 100 173.713867188 62 167.669921875 19 c 4
 157.83203125 -51 117.086914062 -99 65.4482421875 -132 c 5
 51.8212890625 -108 l 5
 69.3671875 -97 84.3349609375 -83 95.162109375 -70 c 4
 105.989257812 -57 112.67578125 -45 113.940429688 -36 c 4
 116.610351562 -17 97.7353515625 -9 86.71875 -2 c 4
 71.9833984375 7 57.669921875 19 61.32421875 45 c 4
 65.8212890625 77 92.0537109375 100 124.053710938 100 c 7
EndSplineSet
EndChar

StartChar: quotesingle
Encoding: 39 39 64
Width: 149
VWidth: 838
Flags: HMW
LayerCount: 2
Fore
SplineSet
172.51953125 701 m 3
 201.51953125 701 214.848632812 682 210.9140625 654 c 0
 206.697265625 624 193.340820312 593 183.124023438 563 c 0
 170.502929688 523 156.038085938 477 148.291992188 429 c 1
 122.291992188 429 l 1
 129.989257812 498 123.28125 557 120.151367188 613 c 0
 119.400390625 629 119.946289062 640 121.3515625 650 c 0
 125.567382812 680 143.51953125 701 172.51953125 701 c 3
EndSplineSet
EndChar

StartChar: quotedbl
Encoding: 34 34 65
Width: 277
VWidth: 838
Flags: HMW
LayerCount: 2
Fore
SplineSet
172.51953125 701 m 3
 201.51953125 701 214.848632812 682 210.9140625 654 c 0
 206.697265625 624 193.340820312 593 183.124023438 563 c 0
 170.502929688 523 156.038085938 477 148.291992188 429 c 1
 122.291992188 429 l 1
 129.989257812 498 123.28125 557 120.151367188 613 c 0
 119.400390625 629 119.946289062 640 121.3515625 650 c 0
 125.567382812 680 143.51953125 701 172.51953125 701 c 3
300.51953125 701 m 3
 329.51953125 701 342.848632812 682 338.9140625 654 c 0
 334.697265625 624 320.200195312 592 309.984375 562 c 0
 297.362304688 522 283.038085938 477 275.291992188 429 c 1
 250.291992188 429 l 1
 257.989257812 498 251.28125 557 248.151367188 613 c 0
 247.400390625 629 247.946289062 640 249.3515625 650 c 0
 253.567382812 680 271.51953125 701 300.51953125 701 c 3
EndSplineSet
EndChar

StartChar: numbersign
Encoding: 35 35 66
Width: 568
VWidth: 838
Flags: HMW
LayerCount: 2
Fore
SplineSet
518.637695312 588 m 1
 475.541015625 445 l 1
 595.541015625 445 l 1
 578.935546875 398 l 1
 461.935546875 398 l 1
 424.227539062 272 l 1
 541.227539062 272 l 1
 523.481445312 224 l 1
 409.481445312 224 l 1
 368.665039062 83 l 1
 320.665039062 83 l 1
 362.481445312 224 l 1
 237.481445312 224 l 1
 195.665039062 83 l 1
 146.665039062 83 l 1
 188.481445312 224 l 1
 66.4814453125 224 l 1
 85.2275390625 272 l 1
 202.227539062 272 l 1
 240.935546875 398 l 1
 122.935546875 398 l 1
 139.541015625 445 l 1
 254.541015625 445 l 1
 297.637695312 588 l 1
 346.637695312 588 l 1
 303.541015625 445 l 1
 428.541015625 445 l 1
 471.637695312 588 l 1
 518.637695312 588 l 1
251.227539062 272 m 1
 376.227539062 272 l 1
 414.935546875 398 l 1
 289.935546875 398 l 1
 251.227539062 272 l 1
EndSplineSet
EndChar

StartChar: dollar
Encoding: 36 36 67
Width: 444
VWidth: 838
Flags: HMW
LayerCount: 2
Back
SplineSet
246 56 m 0
 317 56 371 91 371 160 c 3
 371 201 349 211 323 233 c 0
 294 258 253 279 216 298 c 0
 159 328 105 358 76 417 c 0
 67 435 63 458 63 482 c 3
 63 567 114 621 176 645 c 0
 199 654 222 659 249 659 c 3
 307 659 343 638 376 607 c 1
 403 651 l 1
 420 651 l 1
 427 466 l 1
 405 466 l 1
 392 520 372 544 348 569 c 0
 324 594 293 607 254 607 c 3
 192 607 151 572 151 511 c 3
 151 467 173 455 198 433 c 0
 227 408 265 390 300 371 c 0
 356 341 407 310 435 252 c 0
 443 234 448 212 448 187 c 3
 448 128 422 82 390 52 c 0
 357 22 309 -3 249 -3 c 0
 192 -3 155 15 115 39 c 1
 81 5 l 1
 64 5 l 1
 49 220 l 1
 70 225 l 1
 87 157 108 131 136 101 c 0
 164 71 200 56 246 56 c 0
EndSplineSet
Fore
SplineSet
251.778320312 34 m 1
 300.32421875 45 338.383789062 81 346.39453125 138 c 0
 350.470703125 167 345.703125 190 332.513671875 210 c 0
 319.32421875 230 304.291992188 244 283.541015625 260 c 1
 251.778320312 34 l 1
352.264648438 749 m 1
 339.756835938 660 l 1
 400.334960938 657 447.681640625 631 467.059570312 591 c 0
 471.373046875 579 474.264648438 564 472.297851562 550 c 0
 468.221679688 521 447.270507812 500 418.270507812 500 c 3
 383.270507812 500 379.205078125 528 376.28125 557 c 0
 371.918945312 590 364.151367188 613 334.416015625 622 c 1
 300.827148438 383 l 1
 353.330078125 351 405.833007812 319 426.400390625 259 c 0
 432.588867188 239 434.356445312 216 430.5625 189 c 0
 419.038085938 107 368.60546875 47 311.529296875 18 c 0
 289.983398438 7 269.859375 -1 246.296875 -5 c 1
 235.616210938 -81 l 1
 184.616210938 -81 l 1
 195.296875 -5 l 1
 131.859375 -1 83.513671875 25 62.994140625 64 c 0
 55.8212890625 77 52.6484375 90 54.8974609375 106 c 0
 58.97265625 135 77.9248046875 156 106.924804688 156 c 3
 161.924804688 156 141.946289062 85 162.870117188 56 c 0
 170.32421875 45 183.340820312 38 200.778320312 34 c 1
 237.038085938 292 l 1
 187.25390625 322 139.750976562 354 119.622070312 410 c 0
 113.432617188 430 111.524414062 452 115.319335938 479 c 0
 126.5625 559 175.151367188 613 233.946289062 640 c 0
 251.0703125 648 268.7734375 653 288.334960938 657 c 1
 301.264648438 749 l 1
 352.264648438 749 l 1
283.135742188 620 m 1
 243.44921875 608 215.670898438 574 208.924804688 526 c 0
 204.989257812 498 209.897460938 476 221.086914062 456 c 0
 228.978515625 441 241.151367188 428 254.60546875 417 c 1
 283.135742188 620 l 1
EndSplineSet
EndChar

StartChar: percent
Encoding: 37 37 68
Width: 677
VWidth: 838
Flags: HMW
LayerCount: 2
Fore
SplineSet
250.259765625 628 m 3
 212.259765625 628 199.918945312 590 190.578125 552 c 0
 185.767578125 532 181.25390625 507 177.178710938 478 c 0
 170.291992188 429 166.091796875 392 172.735351562 361 c 0
 177.065429688 342 185.659179688 332 208.659179688 332 c 3
 247.659179688 332 259.71875 368 269.059570312 406 c 0
 273.870117188 426 278.102539062 449 282.178710938 478 c 0
 289.065429688 527 293.545898438 566 287.04296875 598 c 0
 283.854492188 618 274.259765625 628 250.259765625 628 c 3
563.908203125 348 m 3
 605.908203125 348 634.39453125 323 650.459960938 295 c 0
 669.102539062 264 677.778320312 219 670.470703125 167 c 0
 659.7890625 91 619.497070312 32 566.5625 4 c 0
 549.296875 -5 532.594726562 -10 513.594726562 -10 c 3
 471.594726562 -10 442.827148438 13 426.622070312 40 c 0
 407.837890625 70 399.302734375 116 406.470703125 167 c 0
 417.432617188 245 456.865234375 305 509.940429688 334 c 0
 527.205078125 343 544.908203125 348 563.908203125 348 c 3
559.692382812 318 m 3
 521.692382812 318 508.3515625 280 499.010742188 242 c 0
 494.200195312 222 490.686523438 197 486.611328125 168 c 0
 479.724609375 119 474.524414062 82 481.16796875 51 c 0
 485.497070312 32 495.091796875 22 518.091796875 22 c 3
 557.091796875 22 568.010742188 57 577.3515625 95 c 0
 582.162109375 115 586.53515625 139 590.611328125 168 c 0
 597.497070312 217 601.978515625 256 595.475585938 288 c 0
 592.286132812 308 583.692382812 318 559.692382812 318 c 3
562.60546875 602 m 1
 526.935546875 583 494.373046875 579 454.373046875 579 c 3
 418.373046875 579 384.373046875 579 344.622070312 595 c 1
 344.622070312 595 357.249023438 571 360.157226562 549 c 0
 363.065429688 527 365.551757812 502 362.038085938 477 c 0
 351.356445312 401 311.345703125 344 258.411132812 316 c 0
 241.146484375 307 223.443359375 302 204.443359375 302 c 3
 162.443359375 302 133.81640625 326 117.611328125 353 c 0
 98.8271484375 383 89.8701171875 426 97.0380859375 477 c 0
 108 555 148.713867188 617 201.7890625 646 c 0
 219.0546875 655 235.756835938 660 254.756835938 660 c 3
 322.756835938 660 386.88671875 604 450.88671875 604 c 3
 501.88671875 604 551.995117188 619 599.3515625 650 c 1
 657.3515625 650 l 1
 169 0 l 1
 111 0 l 1
 562.60546875 602 l 1
EndSplineSet
EndChar

StartChar: period
Encoding: 46 46 69
Width: 200
VWidth: 838
Flags: HMW
LayerCount: 2
Fore
SplineSet
98.5947265625 -10 m 7
 68.5947265625 -10 47.2490234375 16 51.32421875 45 c 4
 55.8212890625 77 82.0537109375 100 114.053710938 100 c 7
 147.053710938 100 165.961914062 78 161.32421875 45 c 4
 156.967773438 14 130.594726562 -10 98.5947265625 -10 c 7
EndSplineSet
EndChar

StartChar: exclam
Encoding: 33 33 71
Width: 220
VWidth: 838
Flags: HMW
LayerCount: 2
Fore
SplineSet
115.081054688 150 m 1
 122.854492188 248 127.767578125 347 130.275390625 436 c 0
 132.25390625 507 130.951171875 576 139.102539062 634 c 0
 144.443359375 672 169.37890625 700 208.37890625 700 c 0
 243.424977464 700 260.097118987 678.506025619 260.097118987 647.624352234 c 0
 260.097118987 643.259080879 259.76399015 638.706232347 259.102539062 634 c 0
 251.091796875 577 229.53515625 509 211.837890625 440 c 0
 189.189453125 350 164.995117188 249 145.081054688 150 c 1
 115.081054688 150 l 1
107.594726562 -10 m 3
 80.0665221796 -10 59.8252553486 11.8920588336 59.8252553486 37.9057552079 c 0
 59.8252553486 40.2415610523 59.9884504196 42.6105975702 60.32421875 45 c 0
 64.8212890625 77 91.0537109375 100 123.053710938 100 c 3
 152.736876117 100 171.018622135 82.2001960593 171.018622135 54.6059597012 c 0
 171.018622135 51.5225444572 170.790354183 48.3168348207 170.32421875 45 c 0
 165.967773438 14 139.594726562 -10 107.594726562 -10 c 3
EndSplineSet
EndChar

StartChar: zero
Encoding: 48 48 72
Width: 527
VWidth: 838
Flags: HMW
LayerCount: 2
Fore
SplineSet
354.756835938 660 m 3
 427.756835938 660 471.151367188 613 497.124023438 563 c 0
 526.833007812 504 540.88671875 419 527.53515625 324 c 0
 508.28125 187 442.556640625 68 350.108398438 15 c 0
 320.71875 -2 291.594726562 -10 260.594726562 -10 c 3
 187.594726562 -10 143.918945312 35 118.805664062 84 c 0
 89.81640625 141 77.04296875 228 90.25390625 322 c 0
 109.9296875 462 173.232421875 578 264.961914062 633 c 0
 294.4921875 651 323.756835938 660 354.756835938 660 c 3
348.432617188 615 m 3
 297.432617188 615 271.497070312 587 249.875976562 547 c 0
 217.443359375 487 203.60546875 417 190.67578125 325 c 0
 177.88671875 234 171.626953125 161 187.194335938 101 c 0
 197.713867188 62 215.918945312 35 266.918945312 35 c 3
 317.918945312 35 345.713867188 62 367.194335938 101 c 0
 399.486328125 160 414.88671875 234 427.67578125 325 c 0
 440.46484375 416 445.302734375 486 429.735351562 546 c 0
 419.356445312 586 399.432617188 615 348.432617188 615 c 3
EndSplineSet
EndChar

StartChar: one
Encoding: 49 49 73
Width: 375
VWidth: 838
Flags: HMW
LayerCount: 2
Fore
SplineSet
117.297851562 550 m 1
 189.530273438 573 254.729492188 610 314.756835938 660 c 1
 331.3515625 650 l 1
 246.32421875 45 l 5
 354.215820312 30 l 5
 350 0 l 1
 40 0 l 1
 44.2158203125 30 l 5
 156.32421875 45 l 5
 224.486328125 530 l 1
 114.486328125 530 l 1
 117.297851562 550 l 1
EndSplineSet
EndChar

StartChar: two
Encoding: 50 50 74
Width: 491
VWidth: 838
Flags: HMW
LayerCount: 2
Fore
SplineSet
471.541015625 75 m 1
 426 0 l 1
 38 0 l 1
 32.810546875 20 l 1
 96.400390625 74 155.708007812 126 199.611328125 168 c 0
 243.513671875 210 279.995117188 249 308.7734375 283 c 0
 353.081054688 335 392.810546875 390 402.9296875 462 c 0
 413.189453125 535 383.622070312 595 312.622070312 595 c 0
 247.622070312 595 191.454101562 544 159.848632812 497 c 1
 141.25390625 507 l 1
 175.249023438 571 227.697265625 624 295.0703125 648 c 0
 316.0546875 655 337.616210938 659 358.616210938 659 c 0
 411.616210938 659 448.383789062 636 471.30859375 607 c 0
 495.232421875 578 509.189453125 535 501.319335938 479 c 0
 491.200195312 407 451.891601562 355 407.865234375 305 c 0
 334.200195312 222 255.799804688 148 155.541015625 75 c 1
 471.541015625 75 l 1
EndSplineSet
EndChar

StartChar: three
Encoding: 51 51 75
Width: 461
VWidth: 838
Flags: HMW
LayerCount: 2
Fore
SplineSet
237.97265625 320 m 0
 221.97265625 320 207.692382812 318 190.411132812 316 c 1
 188.643554688 339 l 1
 236.454101562 359 273.967773438 384 303.04296875 413 c 0
 332.119140625 442 348.756835938 475 353.53515625 509 c 0
 360.5625 559 338.32421875 600 291.32421875 600 c 3
 226.32421875 600 174.438476562 551 146.270507812 500 c 1
 126.97265625 505 l 1
 149.670898438 574 203.978515625 626 267.2109375 649 c 0
 288.194335938 656 309.756835938 660 332.756835938 660 c 3
 394.756835938 660 433.541015625 630 447.637695312 588 c 0
 451.389648438 572 453.28125 557 450.751953125 539 c 0
 446.67578125 510 434.021484375 484 411.368164062 458 c 0
 388.713867188 432 360.200195312 407 324.389648438 387 c 1
 411.405273438 380 460.129882812 314 446.778320312 219 c 0
 437.221679688 151 397.6484375 90 357.588867188 54 c 0
 317.529296875 18 261.594726562 -10 193.594726562 -10 c 3
 125.594726562 -10 77.373046875 24 58.275390625 66 c 0
 52.2431640625 80 48.2109375 94 50.4599609375 110 c 0
 54.81640625 141 75.767578125 162 105.767578125 162 c 0
 142.767578125 162 148.848632812 127 153.7734375 98 c 0
 160.134765625 65 173.918945312 35 217.918945312 35 c 3
 277.918945312 35 321.102539062 79 345.286132812 123 c 0
 353.67578125 140 358.924804688 156 361.735351562 176 c 0
 371.151367188 243 337.475585938 288 292.426757812 309 c 0
 275.411132812 316 257.97265625 320 237.97265625 320 c 0
EndSplineSet
EndChar

StartChar: four
Encoding: 52 52 76
Width: 508
VWidth: 838
Flags: HMW
LayerCount: 2
Fore
SplineSet
331 185 m 1
 66 185 l 1
 57.9677734375 199 l 1
 460.756835938 660 l 1
 481.4921875 651 l 1
 424.432617188 245 l 1
 502.432617188 245 l 1
 494 185 l 1
 416 185 l 1
 394.918945312 35 l 1
 467.810546875 20 l 1
 465 0 l 1
 205 0 l 1
 207.810546875 20 l 1
 309.918945312 35 l 1
 331 185 l 1
374.146484375 492 m 1
 162.432617188 245 l 1
 339.432617188 245 l 1
 374.146484375 492 l 1
EndSplineSet
EndChar

StartChar: five
Encoding: 53 53 77
Width: 466
VWidth: 838
Flags: HMW
LayerCount: 2
Fore
SplineSet
49.3349609375 102 m 0
 53.5517578125 132 71.2216796875 151 100.221679688 151 c 0
 150.221679688 151 143.3515625 95 159.134765625 65 c 0
 167.60546875 47 184.918945312 35 214.918945312 35 c 3
 256.918945312 35 289.729492188 55 314.243164062 80 c 0
 341.038085938 107 361.659179688 147 368.264648438 194 c 0
 378.805664062 269 349.97265625 320 299.205078125 343 c 0
 281.189453125 350 262.750976562 354 239.750976562 354 c 3
 205.750976562 354 173.345703125 344 144.25390625 322 c 1
 112.25390625 322 l 1
 202.3515625 650 l 1
 489.3515625 650 l 1
 455.670898438 574 l 1
 240.670898438 574 l 1
 196.02734375 420 l 1
 222.151367188 428 241.854492188 433 271.854492188 433 c 3
 370.854492188 433 429.686523438 382 448.848632812 312 c 0
 455.334960938 287 457.400390625 259 453.18359375 229 c 0
 443.064453125 157 403.2109375 94 361.010742188 57 c 0
 318.810546875 20 257.594726562 -10 186.594726562 -10 c 3
 121.594726562 -10 74.951171875 21 55.5732421875 61 c 0
 50.259765625 73 47.0869140625 86 49.3349609375 102 c 0
EndSplineSet
EndChar

StartChar: six
Encoding: 54 54 78
Width: 499
Flags: HMW
LayerCount: 2
Back
SplineSet
153.927734375 350.391601562 m 5
 178.305664062 375.875976562 229.34375 393.985351562 279.677734375 393.985351562 c 4
 367.99609375 393.985351562 423.41015625 345.836914062 448.182617188 280.811523438 c 4
 457.125 257.337890625 461.596679688 231.348632812 461.596679688 202.846679688 c 4
 461.596679688 103.7421875 407.99609375 39.7978515625 335.428710938 11.70703125 c 4
 309.439453125 1.646484375 280.796875 -3.3837890625 249.499023438 -3.3837890625 c 4
 145.30078125 -3.3837890625 84.4755859375 53.3779296875 58.359375 133.264648438 c 4
 48.859375 162.327148438 44.1083984375 195.30078125 44.1083984375 232.1875 c 4
 44.1083984375 337.456054688 81.525390625 423.197265625 130.037109375 487.877929688 c 4
 185.637695312 562.012695312 265.131835938 621.0234375 360.158203125 656.3828125 c 5
 366.864257812 635.423828125 l 5
 313.696289062 607.067382812 263.91015625 558.200195312 227.701171875 510.09375 c 4
 195.396484375 467.171875 162.061523438 410.034179688 153.927734375 350.391601562 c 5
142.193359375 207.038085938 m 4
 142.193359375 117.658203125 173.46875 40.208984375 254.529296875 40.208984375 c 4
 329.76171875 40.208984375 361.834960938 107.133789062 361.834960938 188.594726562 c 4
 361.834960938 274.286132812 326.592773438 346.201171875 246.983398438 346.201171875 c 4
 204.919921875 346.201171875 170.579101562 326.384765625 152.252929688 300.9296875 c 5
 146.841796875 276.0390625 142.193359375 237.497070312 142.193359375 207.038085938 c 4
EndSplineSet
Fore
SplineSet
247.735351562 -9 m 3
 178.735351562 -9 132.529296875 18 103.729492188 55 c 0
 73.3515625 95 61.7841796875 155 72.46484375 231 c 0
 87.6435546875 339 137.588867188 424 196.005859375 491 c 0
 262.686523438 567 353.119140625 627 454.038085938 662 c 1
 458.086914062 641 l 1
 398.870117188 611 344.124023438 563 299.23828125 514 c 0
 260.194335938 471 216.762695312 411 201.330078125 351 c 1
 230.984375 377 283.654296875 396 334.654296875 396 c 3
 391.654296875 396 436.421875 373 461.065429688 342 c 0
 486.567382812 310 500.821289062 262 492.249023438 201 c 0
 482.83203125 134 451.805664062 84 411.02734375 50 c 0
 370.249023438 16 314.735351562 -9 247.735351562 -9 c 3
258.215820312 30 m 3
 335.215820312 30 377.616210938 104 389.28125 187 c 0
 401.5078125 274 374.767578125 347 294.767578125 347 c 3
 251.767578125 347 214.95703125 327 192.302734375 301 c 1
 182.6484375 275 173.16796875 236 168.810546875 205 c 0
 155.880859375 113 175.215820312 30 258.215820312 30 c 3
EndSplineSet
EndChar

StartChar: seven
Encoding: 55 55 79
Width: 433
VWidth: 838
Flags: HMW
LayerCount: 2
Fore
SplineSet
182.513671875 580 m 1
 155.703125 560 142.594726562 545 119.51953125 516 c 1
 103.784179688 525 l 1
 176.3515625 650 l 1
 498.3515625 650 l 1
 502.524414062 637 l 1
 415.162109375 485 339.065429688 342 263.016601562 178 c 0
 245.81640625 141 221.5078125 89 198.340820312 38 c 0
 183.703125 5 164.594726562 -10 138.594726562 -10 c 3
 112.594726562 -10 99.8427734375 6 103.497070312 32 c 0
 105.04296875 43 110.729492188 55 118.978515625 71 c 0
 127.227539062 87 139.880859375 113 152.83203125 134 c 1
 406.513671875 580 l 1
 182.513671875 580 l 1
EndSplineSet
EndChar

StartChar: eight
Encoding: 56 56 80
Width: 494
VWidth: 838
Flags: HMW
LayerCount: 2
Fore
SplineSet
362.5625 374 m 1
 406.486328125 345 437.411132812 316 455.194335938 286 c 0
 472.978515625 256 480.200195312 222 475 185 c 0
 458.697265625 69 354.594726562 -10 238.594726562 -10 c 0
 129.594726562 -10 53.4326171875 60 68.611328125 168 c 0
 81.119140625 257 145.865234375 305 219.924804688 341 c 1
 167.264648438 379 122.88671875 419 134.129882812 499 c 0
 148.32421875 600 237.756835938 660 339.756835938 660 c 0
 432.756835938 660 504.58984375 609 491.799804688 518 c 0
 483.368164062 458 440.622070312 410 362.5625 374 c 1
329.275390625 621 m 0
 270.275390625 621 225.216796875 585 217.065429688 527 c 0
 206.665039062 453 266.02734375 420 325.951171875 391 c 1
 381.010742188 427 410.9140625 469 417.799804688 518 c 0
 426.513671875 580 391.275390625 621 329.275390625 621 c 0
256.918945312 35 m 0
 328.918945312 35 382.961914062 78 392.940429688 149 c 0
 406.291992188 244 331.7734375 283 253.97265625 320 c 1
 201.897460938 291 161.870117188 241 151.750976562 169 c 0
 140.3671875 88 176.918945312 35 256.918945312 35 c 0
EndSplineSet
EndChar

StartChar: nine
Encoding: 57 57 81
Width: 503
VWidth: 838
Flags: HMW
LayerCount: 2
Fore
SplineSet
390.583984375 303 m 1
 362.0703125 278 309.400390625 259 258.400390625 259 c 3
 145.400390625 259 87.5029296875 338 103.383789062 451 c 0
 121.091796875 577 219.756835938 660 345.756835938 660 c 3
 482.756835938 660 536.703125 560 517.16796875 421 c 0
 502.411132812 316 442.200195312 222 384.205078125 158 c 0
 317.946289062 85 230.373046875 24 130.594726562 -10 c 1
 126.405273438 10 l 1
 183.481445312 39 241.5078125 89 284.25390625 137 c 0
 323.157226562 179 374.151367188 243 390.583984375 303 c 1
421.681640625 446 m 0
 434.330078125 536 415.729492188 610 333.729492188 610 c 3
 258.729492188 610 216.735351562 546 205.2109375 464 c 0
 193.124023438 378 219.270507812 315 299.270507812 315 c 3
 341.270507812 315 378.221679688 336 400.735351562 361 c 1
 409.249023438 386 417.46484375 416 421.681640625 446 c 0
EndSplineSet
EndChar

StartChar: question
Encoding: 63 63 82
Width: 433
VWidth: 838
Flags: HMW
LayerCount: 2
Fore
SplineSet
188.810546875 575 m 4
 184.735351562 546 197.71875 553 193.784179688 525 c 4
 190.551757812 502 168.865234375 490 149.865234375 490 c 7
 133.865234375 490 109.989257812 498 114.908203125 533 c 4
 126.151367188 613 205.37890625 700 323.37890625 700 c 7
 425.37890625 700 480.135742188 620 467.345703125 529 c 4
 456.243164062 450 389.249023438 386 337.470703125 352 c 4
 288.97265625 320 252.616210938 289 243.481445312 224 c 6
 237.296875 180 l 29
 197.296875 180 l 29
 203.762695312 226 l 6
 209.805664062 269 223.799804688 333 297.091796875 392 c 4
 342.291992188 429 368.7734375 468 375.37890625 515 c 4
 384.513671875 580 382.3515625 650 306.3515625 650 c 7
 231.3515625 650 193.02734375 605 188.810546875 575 c 4
190.594726562 -10 m 7
 160.594726562 -10 139.249023438 16 143.32421875 45 c 4
 147.821289062 77 174.053710938 100 206.053710938 100 c 7
 239.053710938 100 257.961914062 78 253.32421875 45 c 4
 248.967773438 14 222.594726562 -10 190.594726562 -10 c 7
EndSplineSet
EndChar

StartChar: uni0000
Encoding: 0 0 83
Width: 724
VWidth: 838
Flags: HMW
LayerCount: 2
Fore
SplineSet
131.3515625 650 m 1
 775.3515625 650 l 1
 684 0 l 1
 40 0 l 1
 131.3515625 650 l 1
197.513671875 580 m 1
 126.541015625 75 l 1
 619.541015625 75 l 1
 690.513671875 580 l 1
 197.513671875 580 l 1
434.799804688 518 m 0
 402.799804688 518 385.129882812 499 371.475585938 473 c 0
 350.135742188 435 342.810546875 390 334.518554688 331 c 0
 329.459960938 295 326.243164062 265 326.30859375 237 c 1
 487.194335938 471 l 2
 486.475585938 473 l 0
 480.129882812 499 466.799804688 518 434.799804688 518 c 0
438.454101562 544 m 0
 485.454101562 544 513.23828125 514 529.740234375 482 c 0
 549.541015625 445 557.091796875 392 548.518554688 331 c 0
 536.151367188 243 496.750976562 169 437.11328125 136 c 0
 418.567382812 125 399.005859375 121 379.005859375 121 c 0
 332.005859375 121 302.940429688 149 287.296875 180 c 0
 267.497070312 217 260.086914062 271 268.518554688 331 c 0
 281.02734375 420 322.287109375 493 381.205078125 528 c 0
 399.751953125 539 418.454101562 544 438.454101562 544 c 0
329.686523438 197 m 2
 330.405273438 195 330.84375 191 331.5625 189 c 0
 338.048828125 164 350.799804688 148 382.799804688 148 c 0
 414.799804688 148 433.189453125 165 446.703125 190 c 0
 467.90234375 227 475.3671875 273 483.518554688 331 c 0
 489 370 492.778320312 404 491.854492188 433 c 1
 329.686523438 197 l 2
EndSplineSet
EndChar

StartChar: plusminus
Encoding: 177 177 84
Width: 530
VWidth: 838
Flags: HMW
LayerCount: 2
Fore
SplineSet
80.4599609375 110 m 5
 86.0810546875 150 l 5
 486.081054688 150 l 5
 480.459960938 110 l 5
 80.4599609375 110 l 5
117 370 m 5
 122.622070312 410 l 5
 302.622070312 410 l 5
 327.918945312 590 l 5
 367.918945312 590 l 5
 342.622070312 410 l 5
 522.622070312 410 l 5
 517 370 l 5
 337 370 l 5
 311.703125 190 l 5
 271.703125 190 l 5
 297 370 l 5
 117 370 l 5
EndSplineSet
EndChar

StartChar: degree
Encoding: 176 176 87
Width: 238
VWidth: 838
Flags: HMW
LayerCount: 2
Fore
SplineSet
196.578125 552 m 7
 153.578125 552 122.778320312 589 128.681640625 631 c 4
 135.146484375 677 172.784179688 710 218.784179688 710 c 7
 266.784179688 710 293.426757812 679 286.681640625 631 c 4
 280.356445312 586 242.578125 552 196.578125 552 c 7
200.091796875 577 m 7
 232.091796875 577 257.32421875 600 261.681640625 631 c 4
 266.319335938 664 248.270507812 685 215.270507812 685 c 7
 183.270507812 685 158.178710938 663 153.681640625 631 c 4
 149.60546875 602 170.091796875 577 200.091796875 577 c 7
EndSplineSet
EndChar

StartChar: acute
Encoding: 180 180 88
Width: 176
VWidth: 838
Flags: HMW
LayerCount: 2
Fore
SplineSet
249.319335938 664 m 0
 246.086914062 641 233.400390625 629 217.151367188 613 c 2
 118.53515625 509 l 1
 102.940429688 519 l 1
 169.897460938 661 l 2
 179.989257812 683 193.37890625 700 221.37890625 700 c 3
 241.37890625 700 252.129882812 684 249.319335938 664 c 0
EndSplineSet
EndChar

StartChar: periodcentered
Encoding: 183 183 89
Width: 220
VWidth: 838
Flags: HMW
LayerCount: 2
Fore
SplineSet
187.297851562 550 m 7
 157.297851562 550 135.951171875 576 140.02734375 605 c 4
 144.524414062 637 170.756835938 660 202.756835938 660 c 7
 235.756835938 660 254.665039062 638 250.02734375 605 c 4
 245.670898438 574 219.297851562 550 187.297851562 550 c 7
EndSplineSet
EndChar

StartChar: multiply
Encoding: 215 215 90
Width: 530
VWidth: 838
Flags: HMW
LayerCount: 2
Fore
SplineSet
151.7734375 98 m 5
 126.848632812 127 l 5
 272.697265625 254 l 5
 162.545898438 381 l 5
 195.622070312 410 l 5
 304.6328125 282 l 5
 449.622070312 410 l 5
 474.545898438 381 l 5
 328.697265625 254 l 5
 438.848632812 127 l 5
 405.7734375 98 l 5
 296.762695312 226 l 5
 151.7734375 98 l 5
EndSplineSet
EndChar

StartChar: dieresis
Encoding: 168 168 91
Width: 340
VWidth: 838
Flags: HMW
LayerCount: 2
Fore
SplineSet
315.270507812 500 m 3
 285.270507812 500 263.924804688 526 268 555 c 0
 272.497070312 587 298.729492188 610 330.729492188 610 c 3
 363.729492188 610 382.637695312 588 378 555 c 0
 373.643554688 524 347.270507812 500 315.270507812 500 c 3
165.270507812 500 m 3
 135.270507812 500 113.924804688 526 118 555 c 0
 122.497070312 587 148.729492188 610 180.729492188 610 c 3
 213.729492188 610 232.637695312 588 228 555 c 0
 223.643554688 524 197.270507812 500 165.270507812 500 c 3
EndSplineSet
EndChar

StartChar: macron
Encoding: 175 175 92
Width: 260
VWidth: 838
InSpiro: 1
Flags: HMW
LayerCount: 2
Fore
SplineSet
94.18359375 599 m 1
 102.616210938 659 l 1
 342.616210938 659 l 1
 334.18359375 599 l 1
 94.18359375 599 l 1
  Spiro
    94.184 599 v
    102.616 659 v
    342.616 659 v
    334.184 599 v
    0 0 z
  EndSpiro
EndSplineSet
EndChar

StartChar: bracketleft
Encoding: 91 91 93
Width: 270
VWidth: 838
Flags: HMW
LayerCount: 2
Fore
SplineSet
65.9462890625 -100 m 1
 183.297851562 735 l 1
 353.297851562 735 l 1
 349.784179688 710 l 1
 249.784179688 710 l 1
 139.458984375 -75 l 1
 239.458984375 -75 l 1
 235.946289062 -100 l 1
 65.9462890625 -100 l 1
EndSplineSet
EndChar

StartChar: backslash
Encoding: 92 92 94
Width: 297
VWidth: 838
Flags: HMW
LayerCount: 2
Fore
SplineSet
185.74609375 -137 m 5
 132.11328125 691 l 5
 191.11328125 691 l 5
 242.74609375 -137 l 5
 185.74609375 -137 l 5
EndSplineSet
EndChar

StartChar: bracketright
Encoding: 93 93 95
Width: 269
VWidth: 838
Flags: HMW
LayerCount: 2
Fore
SplineSet
5.9462890625 -100 m 1
 9.458984375 -75 l 1
 108.458984375 -75 l 1
 218.784179688 710 l 1
 119.784179688 710 l 1
 123.297851562 735 l 1
 292.297851562 735 l 1
 174.946289062 -100 l 1
 5.9462890625 -100 l 1
EndSplineSet
EndChar

StartChar: asciicircum
Encoding: 94 94 96
Width: 410
VWidth: 838
Flags: HMW
LayerCount: 2
Fore
SplineSet
101.243164062 450 m 1
 292.51953125 701 l 1
 319.51953125 701 l 1
 438.243164062 450 l 1
 403.243164062 450 l 1
 298.2109375 649 l 1
 137.243164062 450 l 1
 101.243164062 450 l 1
EndSplineSet
EndChar

StartChar: underscore
Encoding: 95 95 97
Width: 566
VWidth: 811
Flags: HMW
LayerCount: 2
Fore
SplineSet
54.9404296875 -36 m 1
 60 0 l 1
 506 0 l 1
 500.940429688 -36 l 1
 54.9404296875 -36 l 1
EndSplineSet
EndChar

StartChar: grave
Encoding: 96 96 98
Width: 176
VWidth: 838
Flags: HMW
LayerCount: 2
Fore
SplineSet
123.319335938 664 m 0
 126.129882812 684 141.37890625 700 161.37890625 700 c 3
 189.37890625 700 197.989257812 683 201.897460938 661 c 2
 228.940429688 519 l 1
 210.53515625 509 l 1
 141.151367188 613 l 2
 129.400390625 629 120.086914062 641 123.319335938 664 c 0
EndSplineSet
EndChar

StartChar: quotedblleft
Encoding: 8220 8220 99
Width: 330
VWidth: 838
Flags: HMW
LayerCount: 2
Fore
SplineSet
310.7734375 468 m 3
 270.7734375 468 260.551757812 502 263.502929688 523 c 0
 276.010742188 612 317.741210938 667 369.37890625 700 c 1
 383.005859375 676 l 1
 365.459960938 665 350.4921875 651 339.665039062 638 c 0
 328.837890625 625 322.151367188 613 320.88671875 604 c 0
 318.216796875 585 337.091796875 577 348.108398438 570 c 0
 362.84375 561 377.157226562 549 373.502929688 523 c 0
 369.005859375 491 342.7734375 468 310.7734375 468 c 3
160.7734375 468 m 3
 120.7734375 468 110.551757812 502 113.502929688 523 c 0
 126.010742188 612 167.741210938 667 219.37890625 700 c 1
 233.005859375 676 l 1
 215.459960938 665 200.4921875 651 189.665039062 638 c 0
 178.837890625 625 172.151367188 613 170.88671875 604 c 0
 168.216796875 585 187.091796875 577 198.108398438 570 c 0
 212.84375 561 227.157226562 549 223.502929688 523 c 0
 219.005859375 491 192.7734375 468 160.7734375 468 c 3
EndSplineSet
EndChar

StartChar: quotedblright
Encoding: 8221 8221 100
Width: 330
VWidth: 838
Flags: HMW
LayerCount: 2
Fore
SplineSet
333.37890625 700 m 3
 373.37890625 700 383.600585938 666 380.6484375 645 c 0
 368.140625 556 326.411132812 501 274.7734375 468 c 1
 261.146484375 492 l 1
 278.692382812 503 293.659179688 517 304.486328125 530 c 0
 315.313476562 543 322 555 323.264648438 564 c 0
 325.935546875 583 307.059570312 591 296.04296875 598 c 0
 281.30859375 607 266.995117188 619 270.6484375 645 c 0
 275.146484375 677 301.37890625 700 333.37890625 700 c 3
183.37890625 700 m 3
 223.37890625 700 233.600585938 666 230.6484375 645 c 0
 218.140625 556 176.411132812 501 124.7734375 468 c 1
 111.146484375 492 l 1
 128.692382812 503 143.659179688 517 154.486328125 530 c 0
 165.313476562 543 172 555 173.264648438 564 c 0
 175.935546875 583 157.059570312 591 146.04296875 598 c 0
 131.30859375 607 116.995117188 619 120.6484375 645 c 0
 125.146484375 677 151.37890625 700 183.37890625 700 c 3
EndSplineSet
EndChar

StartChar: quoteleft
Encoding: 8216 8216 102
Width: 180
VWidth: 838
Flags: HMW
LayerCount: 2
Fore
SplineSet
160.7734375 468 m 3
 120.7734375 468 110.551757812 502 113.502929688 523 c 0
 126.010742188 612 167.741210938 667 219.37890625 700 c 1
 233.005859375 676 l 1
 215.459960938 665 200.4921875 651 189.665039062 638 c 0
 178.837890625 625 172.151367188 613 170.88671875 604 c 0
 168.216796875 585 187.091796875 577 198.108398438 570 c 0
 212.84375 561 227.157226562 549 223.502929688 523 c 0
 219.005859375 491 192.7734375 468 160.7734375 468 c 3
EndSplineSet
EndChar

StartChar: quoteright
Encoding: 8217 8217 103
Width: 180
VWidth: 838
Flags: HMW
LayerCount: 2
Fore
SplineSet
183.37890625 700 m 3
 223.37890625 700 233.600585938 666 230.6484375 645 c 0
 218.140625 556 176.411132812 501 124.7734375 468 c 1
 111.146484375 492 l 1
 128.692382812 503 143.659179688 517 154.486328125 530 c 0
 165.313476562 543 172 555 173.264648438 564 c 0
 175.935546875 583 157.059570312 591 146.04296875 598 c 0
 131.30859375 607 116.995117188 619 120.6484375 645 c 0
 125.146484375 677 151.37890625 700 183.37890625 700 c 3
EndSplineSet
EndChar

StartChar: ellipsis
Encoding: 8230 8230 104
Width: 700
VWidth: 838
Flags: HMW
LayerCount: 2
Fore
SplineSet
588.594726562 -10 m 7
 558.594726562 -10 537.249023438 16 541.32421875 45 c 4
 545.821289062 77 572.053710938 100 604.053710938 100 c 7
 637.053710938 100 655.961914062 78 651.32421875 45 c 4
 646.967773438 14 620.594726562 -10 588.594726562 -10 c 7
348.594726562 -10 m 7
 318.594726562 -10 297.249023438 16 301.32421875 45 c 4
 305.821289062 77 332.053710938 100 364.053710938 100 c 7
 397.053710938 100 415.961914062 78 411.32421875 45 c 4
 406.967773438 14 380.594726562 -10 348.594726562 -10 c 7
108.594726562 -10 m 7
 78.5947265625 -10 57.2490234375 16 61.32421875 45 c 4
 65.8212890625 77 92.0537109375 100 124.053710938 100 c 7
 157.053710938 100 175.961914062 78 171.32421875 45 c 4
 166.967773438 14 140.594726562 -10 108.594726562 -10 c 7
EndSplineSet
LCarets2: 2 0 0
Ligature2: "'liga' standard ligatures-subtable" period period period
EndChar

StartChar: fraction
Encoding: 8260 8260 105
Width: 183
VWidth: 838
Flags: HMW
LayerCount: 2
Fore
SplineSet
-132.296875 5 m 5
 350.3515625 650 l 5
 409.3515625 650 l 5
 -74.296875 5 l 5
 -132.296875 5 l 5
EndSplineSet
EndChar

StartChar: bullet
Encoding: 8226 8226 106
Width: 340
VWidth: 838
Flags: HMW
LayerCount: 2
Fore
SplineSet
196.703125 190 m 3
 136.703125 190 94.0107421875 242 102.162109375 300 c 0
 111.157226562 364 163.622070312 410 227.622070312 410 c 3
 293.622070312 410 331.4375 366 322.162109375 300 c 0
 313.448242188 238 260.703125 190 196.703125 190 c 3
EndSplineSet
EndChar

StartChar: dagger
Encoding: 8224 8224 107
Width: 374
VWidth: 838
Flags: HMW
LayerCount: 2
Fore
SplineSet
272.16796875 606 m 4
 288.16796875 606 299.778320312 589 296.827148438 568 c 6
 274.622070312 410 l 29
 354.622070312 410 l 6
 380.622070312 410 383.951171875 391 382.405273438 380 c 4
 380.859375 369 372.189453125 350 346.189453125 350 c 4
 323.189453125 350 299.157226562 364 269 370 c 5
 245.108398438 200 l 6
 225.994140625 64 195.443359375 -68 179.88671875 -136 c 4
 175.356445312 -154 173.810546875 -165 163.810546875 -165 c 4
 152.810546875 -165 156.059570312 -149 155.88671875 -136 c 4
 159.443359375 -68 165.994140625 64 185.108398438 200 c 6
 209 370 l 5
 177.157226562 364 146.189453125 350 126.189453125 350 c 4
 100.189453125 350 97 370 98.4052734375 380 c 4
 100.373046875 394 111.622070312 410 134.622070312 410 c 6
 214.622070312 410 l 29
 236.827148438 568 l 6
 239.778320312 589 256.16796875 606 272.16796875 606 c 4
EndSplineSet
EndChar

StartChar: daggerdbl
Encoding: 8225 8225 108
Width: 374
VWidth: 838
Flags: HMW
LayerCount: 2
Back
SplineSet
187 606 m 4
 203 606 217 589 217 568 c 6
 217 410 l 29
 297 410 l 6
 323 410 329 391 329 380 c 4
 329 369 323 350 297 350 c 4
 274 350 248 364 217 370 c 5
 217 200 l 6
 217 64 205 -68 199 -136 c 4
 197 -154 197 -165 187 -165 c 4
 176 -165 177 -149 175 -136 c 4
 169 -68 157 64 157 200 c 6
 157 370 l 5
 126 364 97 350 77 350 c 4
 51 350 45 370 45 380 c 4
 45 394 54 410 77 410 c 6
 157 410 l 29
 157 568 l 6
 157 589 171 606 187 606 c 4
EndSplineSet
Fore
SplineSet
272.16796875 606 m 0
 288.16796875 606 299.778320312 589 296.827148438 568 c 2
 274.622070312 410 l 1
 354.622070312 410 l 2
 380.622070312 410 383.951171875 391 382.405273438 380 c 0
 380.859375 369 372.189453125 350 346.189453125 350 c 0
 323.189453125 350 299.157226562 364 269 370 c 1
 256.3515625 280 l 1
 336.3515625 280 l 2
 362.3515625 280 365.681640625 261 364.134765625 250 c 0
 362.588867188 239 353.918945312 220 327.918945312 220 c 0
 304.918945312 220 280.88671875 234 250.729492188 240 c 1
 245.108398438 200 l 2
 225.994140625 64 195.443359375 -68 179.88671875 -136 c 0
 175.356445312 -154 173.810546875 -165 163.810546875 -165 c 0
 152.810546875 -165 156.059570312 -149 155.88671875 -136 c 0
 159.443359375 -68 165.994140625 64 185.108398438 200 c 2
 190.729492188 240 l 1
 158.88671875 234 127.918945312 220 107.918945312 220 c 0
 81.9189453125 220 78.7294921875 240 80.134765625 250 c 0
 82.1025390625 264 93.3515625 280 116.3515625 280 c 2
 196.3515625 280 l 1
 209 370 l 1
 177.157226562 364 146.189453125 350 126.189453125 350 c 0
 100.189453125 350 97 370 98.4052734375 380 c 0
 100.373046875 394 111.622070312 410 134.622070312 410 c 2
 214.622070312 410 l 1
 236.827148438 568 l 2
 239.778320312 589 256.16796875 606 272.16796875 606 c 0
EndSplineSet
EndChar

StartChar: endash
Encoding: 8211 8211 109
Width: 630
VWidth: 838
Flags: HMW
LayerCount: 2
Back
SplineSet
65.3896484375 341.170898438 m 1
 65.3896484375 378.056640625 l 1
 409.104492188 378.056640625 l 1
 409.104492188 341.170898438 l 1
 65.3896484375 341.170898438 l 1
65.3896484375 206.19921875 m 1
 65.3896484375 243.0859375 l 1
 409.104492188 243.0859375 l 1
 409.104492188 206.19921875 l 1
 65.3896484375 206.19921875 l 1
633.778320312 102.24609375 m 0
 633.778320312 132.426757812 648.868164062 150.870117188 678.208984375 150.870117188 c 0
 727.670898438 150.870117188 728.508789062 94.7021484375 748.62890625 64.521484375 c 0
 760.366210938 46.916015625 777.971679688 34.341796875 808.150390625 34.341796875 c 0
 850.06640625 34.341796875 880.247070312 56.1376953125 901.206054688 80.4501953125 c 0
 923.83984375 107.276367188 939.768554688 147.516601562 939.768554688 194.462890625 c 0
 939.768554688 269.913085938 902.8828125 320.211914062 849.228515625 342.84765625 c 0
 830.786132812 350.391601562 810.666015625 354.583007812 788.030273438 354.583007812 c 0
 753.659179688 354.583007812 723.478515625 343.685546875 697.491210938 321.888671875 c 1
 684.916015625 323.565429688 l 1
 728.508789062 639.616210938 l 1
 995.098632812 639.616210938 l 1
 972.462890625 564.166015625 l 1
 757.012695312 564.166015625 l 1
 736.053710938 419.134765625 l 1
 760.366210938 427.518554688 778.809570312 432.548828125 808.989257812 432.548828125 c 0
 907.913085938 432.548828125 974.139648438 382.249023438 1003.48144531 311.829101562 c 0
 1013.54199219 286.6796875 1018.57226562 259.014648438 1018.57226562 228.833984375 c 0
 1018.57226562 156.73828125 989.23046875 101.407226562 951.505859375 63.6826171875 c 0
 913.780273438 26.796875 857.612304688 -3.3837890625 786.353515625 -3.3837890625 c 0
 720.96484375 -3.3837890625 669.826171875 20.08984375 645.514648438 60.330078125 c 0
 637.969726562 72.9052734375 633.778320312 87.15625 633.778320312 102.24609375 c 0
-162.635742188 183.564453125 m 1
 -430.901367188 183.564453125 l 1
 -437.608398438 197.81640625 l 1
 -99.7607421875 658.8984375 l 1
 -77.96484375 650.514648438 l 1
 -77.96484375 247.27734375 l 1
 0 247.27734375 l 1
 0 183.564453125 l 1
 -77.96484375 183.564453125 l 1
 -77.96484375 40.208984375 l 1
 -3.353515625 24.2822265625 l 1
 -3.353515625 5 l 1
 -263.236328125 5 l 1
 -263.236328125 24.2822265625 l 1
 -162.635742188 40.208984375 l 1
 -162.635742188 183.564453125 l 1
-166.827148438 492.0703125 m 1
 -170.180664062 492.0703125 l 1
 -343.715820312 250.630859375 l 1
 -342.877929688 247.27734375 l 1
 -166.827148438 247.27734375 l 1
 -166.827148438 492.0703125 l 1
EndSplineSet
Fore
SplineSet
97.32421875 230 m 5
 104.3515625 280 l 5
 604.3515625 280 l 5
 597.32421875 230 l 5
 97.32421875 230 l 5
EndSplineSet
EndChar

StartChar: emdash
Encoding: 8212 8212 110
Width: 930
VWidth: 838
Flags: HMW
LayerCount: 2
Fore
SplineSet
97.32421875 230 m 5
 104.3515625 280 l 5
 904.3515625 280 l 5
 897.32421875 230 l 5
 97.32421875 230 l 5
EndSplineSet
EndChar

StartChar: asterisk
Encoding: 42 42 111
Width: 437
VWidth: 838
Flags: HMW
LayerCount: 2
Back
SplineSet
352.098632812 395.4296875 m 0
 352.098632812 375.374023438 337.737304688 362.733398438 317.727539062 362.733398438 c 0
 298.569335938 362.733398438 286.997070312 374.129882812 276.649414062 384.950195312 c 0
 263.416015625 398.786132812 250.374023438 414.771484375 234.732421875 427.28515625 c 2
 212.936523438 444.051757812 l 1
 217.130859375 415.548828125 l 2
 219.924804688 396.546875 223.697265625 379.779296875 228.447265625 365.249023438 c 0
 233.198242188 350.717773438 235.573242188 337.864257812 235.573242188 326.686523438 c 0
 235.573242188 307.353515625 224.23828125 293.153320312 204.555664062 293.153320312 c 0
 183.672851562 293.153320312 172.698242188 308.713867188 172.698242188 330.040039062 c 0
 172.698242188 342.3359375 175.353515625 355.749023438 180.662109375 370.279296875 c 0
 185.971679688 384.810546875 189.744140625 400.1796875 191.98046875 416.38671875 c 2
 195.333984375 444.051757812 l 1
 171.860351562 426.447265625 l 1
 149.744140625 408.75390625 134.342773438 383.3515625 111.081054688 368.182617188 c 0
 104.654296875 363.991210938 97.2490234375 361.895507812 88.8662109375 361.895507812 c 0
 68.5849609375 361.895507812 54.494140625 374.831054688 54.494140625 394.588867188 c 0
 54.494140625 415.692382812 71.7041015625 422.4765625 89.28515625 427.704101562 c 0
 112.774414062 434.688476562 138.87890625 439.044921875 160.962890625 449.08203125 c 2
 185.2734375 459.979492188 l 1
 159.286132812 470.877929688 l 2
 129.720703125 482.97265625 87.666015625 484.084960938 64.1337890625 501.477539062 c 0
 57.7060546875 506.227539062 54.4931640625 513.633789062 54.4931640625 523.692382812 c 0
 54.4931640625 543.8828125 67.8408203125 557.2265625 88.865234375 557.2265625 c 0
 107.994140625 557.2265625 118.741210938 545.845703125 129.103515625 535.010742188 c 0
 142.912109375 520.57421875 155.192382812 504.192382812 172.696289062 491.836914062 c 2
 194.493164062 475.908203125 l 1
 191.140625 504.412109375 l 2
 188.904296875 522.854492188 185.131835938 538.084960938 179.822265625 550.100585938 c 0
 174.513671875 562.116210938 171.858398438 574.83203125 171.858398438 588.244140625 c 0
 171.858398438 611.474609375 182.643554688 626.80859375 203.715820312 626.80859375 c 0
 224.025390625 626.80859375 234.733398438 610.962890625 234.733398438 588.244140625 c 0
 234.733398438 573.676757812 229.541015625 561.959960938 225.931640625 550.100585938 c 0
 221.55078125 535.704101562 216.499023438 521.5625 215.452148438 502.735351562 c 2
 212.9375 475.908203125 l 1
 233.89453125 492.674804688 l 2
 252.451171875 507.32421875 264.919921875 522.58203125 279.584960938 537.944335938 c 0
 289.475585938 548.305664062 299.583984375 558.063476562 317.728515625 558.063476562 c 0
 339.099609375 558.063476562 352.099609375 544.541992188 352.099609375 524.529296875 c 0
 352.099609375 502.827148438 335.615234375 495.965820312 317.728515625 490.997070312 c 0
 294.76953125 484.620117188 269.296875 480.7109375 247.307617188 471.71484375 c 2
 221.318359375 460.81640625 l 1
 245.630859375 449.918945312 l 2
 269.015625 439.201171875 293.931640625 434.965820312 318.565429688 428.124023438 c 0
 336.061523438 423.264648438 352.098632812 416.325195312 352.098632812 395.4296875 c 0
EndSplineSet
Fore
SplineSet
236.7890625 276 m 5
 136.426757812 309 l 6
 117.270507812 315 100.11328125 321 103.486328125 345 c 4
 106.578125 367 123.967773438 384 146.967773438 384 c 4
 167.967773438 384 175.28125 372 184.735351562 361 c 6
 249.319335938 294 l 5
 242.74609375 418 l 4
 246.400390625 444 260.6484375 460 283.6484375 460 c 7
 305.6484375 460 315.259765625 443 311.74609375 418 c 4
 270.319335938 294 l 5
 353.875976562 362 l 6
 366.421875 373 375.967773438 384 396.967773438 384 c 4
 419.967773438 384 433.71875 368 430.626953125 346 c 4
 427.25390625 322 407.411132812 316 386.567382812 310 c 6
 276.7890625 276 l 5
 377.870117188 241 l 6
 395.88671875 234 414.04296875 228 410.810546875 205 c 4
 407.71875 183 388.750976562 169 366.750976562 169 c 4
 344.750976562 169 338.296875 180 326.124023438 193 c 6
 265.259765625 258 l 5
 272.270507812 130 l 4
 269.178710938 108 254.9296875 92 232.9296875 92 c 7
 209.9296875 92 200.459960938 110 203.692382812 133 c 4
 245.259765625 258 l 5
 164.983398438 192 l 6
 149.157226562 179 138.611328125 168 116.611328125 168 c 4
 94.611328125 168 80.4375 181 83.5302734375 203 c 4
 86.7626953125 226 104.74609375 233 124.729492188 240 c 6
 236.7890625 276 l 5
EndSplineSet
EndChar

StartChar: hyphen
Encoding: 45 45 112
Width: 390
VWidth: 838
Flags: HMW
LayerCount: 2
Fore
SplineSet
88.1083984375 200 m 1
 96.541015625 260 l 5
 366.541015625 260 l 5
 358.108398438 200 l 1
 88.1083984375 200 l 1
EndSplineSet
EndChar

StartChar: slash
Encoding: 47 47 113
Width: 297
VWidth: 838
Flags: HMW
LayerCount: 2
Fore
SplineSet
15.74609375 -137 m 1
 300.973632812 690 l 1
 358.973632812 690 l 1
 73.74609375 -137 l 1
 15.74609375 -137 l 1
EndSplineSet
EndChar

StartChar: parenright
Encoding: 41 41 114
Width: 270
VWidth: 838
Flags: HMW
LayerCount: 2
Fore
SplineSet
190.756835938 290 m 4
 214.368164062 458 185.697265625 624 131.892578125 725 c 1
 143.297851562 735 l 1
 233.4921875 651 296.616210938 474 270.756835938 290 c 4
 243.4921875 96 124.740234375 -73 16.1083984375 -170 c 5
 7.513671875 -160 l 5
 85.9892578125 -57 166.583984375 118 190.756835938 290 c 4
EndSplineSet
EndChar

StartChar: parenleft
Encoding: 40 40 115
Width: 270
VWidth: 838
Flags: HMW
LayerCount: 2
Fore
SplineSet
160.756835938 290 m 4
 136.583984375 118 167.989257812 -57 217.513671875 -160 c 5
 206.108398438 -170 l 5
 124.740234375 -73 53.4921875 96 80.7568359375 290 c 4
 106.616210938 474 219.4921875 651 333.297851562 735 c 1
 341.892578125 725 l 1
 259.697265625 624 184.368164062 458 160.756835938 290 c 4
EndSplineSet
EndChar

StartChar: cent
Encoding: 162 162 116
Width: 458
VWidth: 838
Flags: HMW
LayerCount: 2
Back
SplineSet
269.619140625 457.69921875 m 5
 291.415039062 457.139648438 311.815429688 454.20703125 330.818359375 448.897460938 c 4
 349.8203125 443.588867188 366.16796875 436.462890625 379.860351562 427.51953125 c 4
 393.552734375 418.578125 404.310546875 408.239257812 412.134765625 396.501953125 c 4
 419.959960938 384.765625 423.872070312 372.190429688 423.872070312 358.776367188 c 4
 423.872070312 344.24609375 420.518554688 332.649414062 413.811523438 323.987304688 c 4
 407.104492188 315.325195312 397.604492188 310.993164062 385.30859375 310.993164062 c 4
 370.778320312 310.993164062 359.600585938 315.325195312 351.776367188 323.987304688 c 4
 343.952148438 332.649414062 338.643554688 345.922851562 335.849609375 363.806640625 c 4
 332.49609375 385.043945312 325.370117188 400.83203125 314.471679688 411.172851562 c 4
 303.573242188 421.51171875 288.623046875 427.798828125 269.62109375 430.034179688 c 5
 269.62109375 57.8154296875 l 5
 295.888671875 57.8154296875 320.060546875 62.845703125 342.135742188 72.9052734375 c 4
 364.211914062 82.9658203125 382.794921875 98.3349609375 397.884765625 119.013671875 c 6
 407.10546875 131.588867188 l 5
 423.034179688 123.205078125 l 5
 418.842773438 112.306640625 l 6
 405.98828125 78.7744140625 386.708007812 52.2265625 360.998046875 32.666015625 c 4
 335.2890625 13.10546875 304.830078125 1.6474609375 269.620117188 -1.7060546875 c 5
 269.620117188 -103.982421875 l 5
 234.41015625 -103.982421875 l 5
 234.41015625 -2.5439453125 l 5
 205.907226562 -0.8671875 179.778320312 5.69921875 156.025390625 17.1572265625 c 4
 132.274414062 28.61328125 112.013671875 44.123046875 95.2470703125 63.68359375 c 4
 78.48046875 83.2451171875 65.345703125 106.438476562 55.845703125 133.265625 c 4
 46.3447265625 160.092773438 41.59375 189.43359375 41.59375 221.291015625 c 4
 41.59375 253.146484375 46.2041015625 282.627929688 55.4267578125 309.733398438 c 4
 64.6484375 336.83984375 77.7822265625 360.591796875 94.8271484375 380.991210938 c 4
 111.874023438 401.390625 132.2734375 418.157226562 156.024414062 431.291015625 c 4
 179.77734375 444.42578125 205.90625 452.668945312 234.409179688 456.022460938 c 5
 234.409179688 566.681640625 l 5
 269.619140625 566.681640625 l 5
 269.619140625 457.69921875 l 5
127.103515625 238.057617188 m 4
 127.103515625 188.875 136.325195312 149.194335938 154.768554688 119.013671875 c 4
 173.2109375 88.833984375 199.7578125 69.8310546875 234.409179688 62.0068359375 c 5
 234.409179688 429.196289062 l 5
 219.877929688 426.40234375 206.185546875 419.8359375 193.33203125 409.497070312 c 4
 180.477539062 399.15625 169.16015625 385.744140625 159.37890625 369.255859375 c 4
 149.598632812 352.76953125 141.774414062 333.487304688 135.90625 311.411132812 c 4
 130.038085938 289.3359375 127.103515625 264.883789062 127.103515625 238.057617188 c 4
EndSplineSet
Fore
SplineSet
459.454101562 359 m 0
 455.659179688 332 440.708007812 311 414.708007812 311 c 0
 385.708007812 311 372.23828125 329 373.157226562 364 c 0
 374.794921875 397 355.216796875 400 326.356445312 401 c 1
 277.02734375 50 l 1
 333.16796875 51 377.821289062 77 407.740234375 112 c 2
 418.426757812 124 l 1
 434.302734375 116 l 1
 427.897460938 106 l 2
 396.46484375 46 342 0 268.594726562 -10 c 5
 254.400390625 -111 l 1
 219.400390625 -111 l 1
 233.594726562 -10 l 1
 114.016601562 -7 48.2109375 94 66.0595703125 221 c 0
 84.330078125 351 178.681640625 446 299.227539062 457 c 1
 314.686523438 567 l 1
 349.686523438 567 l 1
 334.368164062 458 l 1
 400.805664062 454 467.74609375 418 459.454101562 359 c 0
291.216796875 400 m 1
 203.091796875 392 168.081054688 335 154.448242188 238 c 0
 141.37890625 145 165.994140625 64 242.02734375 50 c 1
 291.216796875 400 l 1
EndSplineSet
EndChar

StartChar: sterling
Encoding: 163 163 117
Width: 563
VWidth: 838
Flags: HMW
LayerCount: 2
Fore
SplineSet
31.88671875 49 m 0
 38.4921875 96 84.1455078125 122 133.145507812 122 c 0
 149.145507812 122 165.865234375 120 185.162109375 115 c 1
 204.189453125 165 221.497070312 217 238.6484375 275 c 1
 145.6484375 275 l 1
 150.848632812 312 l 1
 250.848632812 312 l 1
 283.622070312 410 l 2
 312.426757812 494 345.140625 556 381.622070312 595 c 0
 418.102539062 634 460.0546875 655 508.0546875 655 c 0
 557.0546875 655 607.102539062 634 601.059570312 591 c 0
 597.124023438 563 572.313476562 543 545.313476562 543 c 0
 519.313476562 543 510.84375 561 504.373046875 579 c 0
 500.340820312 593 494.481445312 594 477.481445312 594 c 0
 457.481445312 594 444.778320312 589 434.686523438 567 c 0
 409.25390625 507 390.821289062 447 366.4375 366 c 2
 349.848632812 312 l 1
 500.848632812 312 l 1
 495.6484375 275 l 1
 337.6484375 275 l 1
 312.373046875 209 288.799804688 148 256.3515625 95 c 1
 289.102539062 79 326.978515625 71 368.978515625 71 c 0
 434.978515625 71 477.9296875 92 495.83203125 134 c 1
 524.83203125 134 l 1
 512.04296875 43 459.594726562 -10 369.594726562 -10 c 0
 322.594726562 -10 294.5625 4 265.373046875 24 c 0
 254.356445312 31 239.90234375 42 225.588867188 54 c 1
 191.951171875 21 149.594726562 -10 96.5947265625 -10 c 4
 55.5947265625 -10 26.4052734375 10 31.88671875 49 c 0
76.4482421875 53 m 0
 74.2001953125 37 83.794921875 27 100.794921875 27 c 0
 129.794921875 27 153.16796875 51 165.680664062 76 c 1
 154.524414062 82 144.946289062 85 127.946289062 85 c 0
 101.946289062 85 79.9619140625 78 76.4482421875 53 c 0
EndSplineSet
EndChar

StartChar: currency
Encoding: 164 164 118
Width: 533
VWidth: 838
Flags: HMW
LayerCount: 2
Back
SplineSet
105.791015625 111.467773438 m 5
 65.5517578125 151.70703125 l 5
 121.719726562 207.037109375 l 5
 98.24609375 235.540039062 86.509765625 271.029296875 86.509765625 313.504882812 c 4
 86.509765625 353.744140625 98.24609375 388.955078125 121.719726562 419.133789062 c 5
 65.5517578125 473.626953125 l 5
 105.791015625 513.866210938 l 5
 161.12109375 457.698242188 l 5
 190.741210938 481.170898438 225.952148438 492.907226562 266.750976562 492.907226562 c 4
 305.313476562 492.907226562 340.802734375 481.450195312 373.21875 458.536132812 c 5
 427.709960938 513.866210938 l 5
 467.950195312 473.626953125 l 5
 411.78125 418.295898438 l 5
 435.254882812 388.67578125 446.9921875 353.744140625 446.9921875 313.504882812 c 4
 446.9921875 273.82421875 435.534179688 238.3359375 412.620117188 207.038085938 c 5
 467.950195312 151.708007812 l 5
 427.709960938 111.467773438 l 5
 372.380859375 167.635742188 l 5
 342.759765625 144.163085938 307.549804688 132.426757812 266.750976562 132.426757812 c 4
 226.510742188 132.426757812 191.30078125 144.163085938 161.12109375 167.635742188 c 5
 105.791015625 111.467773438 l 5
266.750976562 186.078125 m 4
 283.516601562 186.078125 299.166992188 189.431640625 313.697265625 196.138671875 c 4
 328.228515625 202.845703125 341.08203125 211.926757812 352.259765625 223.383789062 c 4
 363.4375 234.841796875 372.239257812 248.254882812 378.666992188 263.624023438 c 4
 385.094726562 278.993164062 388.30859375 295.340820312 388.30859375 312.666015625 c 4
 388.30859375 329.9921875 385.094726562 346.33984375 378.666992188 361.708984375 c 4
 372.239257812 377.078125 363.4375 390.491210938 352.259765625 401.94921875 c 4
 341.08203125 413.40625 328.228515625 422.487304688 313.697265625 429.194335938 c 4
 299.166992188 435.901367188 283.516601562 439.254882812 266.750976562 439.254882812 c 4
 249.984375 439.254882812 234.3359375 435.901367188 219.8046875 429.194335938 c 4
 205.2734375 422.487304688 192.418945312 413.40625 181.2421875 401.94921875 c 4
 170.064453125 390.491210938 161.26171875 377.217773438 154.834960938 362.127929688 c 4
 148.407226562 347.0390625 145.194335938 330.830078125 145.194335938 313.504882812 c 4
 145.194335938 296.1796875 148.407226562 279.83203125 154.834960938 264.462890625 c 4
 161.26171875 249.09375 170.064453125 235.540039062 181.2421875 223.802734375 c 4
 192.418945312 212.067382812 205.2734375 202.845703125 219.8046875 196.138671875 c 4
 234.3359375 189.431640625 249.984375 186.078125 266.750976562 186.078125 c 4
EndSplineSet
Fore
SplineSet
120.599609375 111 m 1
 86.3623046875 152 l 1
 151.091796875 207 l 1
 131.16796875 236 125.086914062 271 130.989257812 313 c 0
 136.611328125 353 152.810546875 390 181.02734375 420 c 1
 131.475585938 473 l 1
 177.23828125 514 l 1
 225.368164062 458 l 1
 257.740234375 482 295.287109375 493 336.287109375 493 c 3
 374.287109375 493 407.740234375 482 437.5078125 459 c 1
 500.23828125 514 l 1
 534.475585938 473 l 1
 469.74609375 418 l 1
 489.669921875 389 496.611328125 353 490.989257812 313 c 0
 485.5078125 274 468.448242188 238 441.091796875 207 c 1
 489.362304688 152 l 1
 443.599609375 111 l 1
 395.470703125 167 l 1
 363.09765625 143 326.551757812 132 285.551757812 132 c 3
 245.551757812 132 211.09765625 143 184.470703125 167 c 1
 120.599609375 111 l 1
293.140625 186 m 3
 363.140625 186 423.151367188 243 432.989257812 313 c 0
 442.827148438 383 398.697265625 439 328.697265625 439 c 3
 258.697265625 439 198.686523438 382 188.989257812 313 c 0
 179.151367188 243 223.140625 186 293.140625 186 c 3
EndSplineSet
EndChar

StartChar: yen
Encoding: 165 165 119
Width: 549
VWidth: 838
Flags: HMW
LayerCount: 2
Back
SplineSet
89.025390625 318.536132812 m 5
 213.09765625 318.537109375 l 5
 100.759765625 580.096679688 l 6
 96.2900390625 590.15625 92.09765625 598.260742188 88.185546875 604.407226562 c 4
 84.2734375 610.555664062 79.662109375 615.4453125 74.353515625 619.078125 c 4
 69.0439453125 622.7109375 62.896484375 625.365234375 55.91015625 627.041992188 c 4
 48.9248046875 628.71875 40.1220703125 630.116210938 29.50390625 631.233398438 c 5
 29.50390625 650.515625 l 5
 262.559570312 650.515625 l 5
 262.559570312 631.233398438 l 5
 241.322265625 627.321289062 226.091796875 622.850585938 216.870117188 617.8203125 c 4
 207.6484375 612.790039062 203.038085938 605.525390625 203.038085938 596.024414062 c 4
 203.038085938 588.19921875 205.552734375 578.418945312 210.583007812 566.682617188 c 6
 301.9609375 344.525390625 l 5
 305.313476562 344.525390625 l 5
 396.692382812 567.520507812 l 6
 400.045898438 576.463867188 401.72265625 584.567382812 401.72265625 591.833007812 c 4
 401.72265625 603.010742188 396.551757812 611.672851562 386.212890625 617.8203125 c 4
 375.874023438 623.967773438 358.12890625 628.439453125 332.979492188 631.233398438 c 5
 332.979492188 650.514648438 l 5
 519.088867188 650.514648438 l 5
 519.088867188 631.233398438 l 5
 505.674804688 628.439453125 494.498046875 625.504882812 485.5546875 622.430664062 c 4
 476.61328125 619.356445312 468.7890625 614.60546875 462.08203125 608.177734375 c 4
 455.375 601.750976562 448.947265625 592.948242188 442.80078125 581.770507812 c 4
 436.653320312 570.59375 429.946289062 556.0625 422.6796875 538.177734375 c 6
 332.140625 318.536132812 l 5
 450.345703125 318.536132812 l 5
 450.345703125 281.649414062 l 5
 317.05078125 281.649414062 l 5
 317.05078125 217.09765625 l 5
 450.345703125 217.09765625 l 5
 450.345703125 180.2109375 l 5
 317.05078125 180.2109375 l 5
 317.05078125 40.208984375 l 5
 391.662109375 24.2822265625 l 5
 391.662109375 5 l 5
 153.576171875 5 l 5
 153.576171875 24.2822265625 l 5
 229.025390625 40.208984375 l 5
 229.025390625 180.2109375 l 5
 89.025390625 180.2109375 l 5
 89.025390625 217.09765625 l 5
 229.025390625 217.09765625 l 5
 229.025390625 281.649414062 l 5
 89.025390625 281.649414062 l 5
 89.025390625 318.536132812 l 5
EndSplineSet
Fore
SplineSet
475.870117188 611 m 0
 477.416015625 622 456.119140625 627 421.681640625 631 c 1
 424.3515625 650 l 1
 610.3515625 650 l 1
 607.681640625 631 l 1
 581.978515625 626 565.416015625 622 547.44921875 608 c 0
 526.059570312 591 513.686523438 567 498.611328125 538 c 2
 376.692382812 318 l 1
 495.692382812 318 l 1
 490.6328125 282 l 1
 356.6328125 282 l 1
 347.497070312 217 l 1
 481.497070312 217 l 1
 476.296875 180 l 1
 342.296875 180 l 1
 321.918945312 35 l 1
 394.810546875 20 l 1
 392 0 l 1
 154 0 l 1
 156.810546875 20 l 1
 233.918945312 35 l 1
 254.296875 180 l 1
 114.296875 180 l 1
 119.497070312 217 l 1
 259.497070312 217 l 1
 268.6328125 282 l 1
 128.6328125 282 l 1
 133.692382812 318 l 1
 257.692382812 318 l 1
 182.513671875 580 l 2
 175.88671875 604 169.275390625 621 145.119140625 627 c 0
 138.400390625 629 129.541015625 630 118.681640625 631 c 1
 121.3515625 650 l 1
 354.3515625 650 l 1
 351.681640625 631 l 1
 330.119140625 627 312.556640625 623 303.854492188 618 c 0
 293.151367188 613 288.02734375 605 286.762695312 596 c 0
 285.778320312 589 287.091796875 577 290.545898438 566 c 2
 343.140625 371 l 1
 347.140625 371 l 1
 469.340820312 593 l 2
 473.60546875 602 474.88671875 604 475.870117188 611 c 0
EndSplineSet
EndChar

StartChar: section
Encoding: 167 167 120
Width: 456
VWidth: 0
Flags: HMW
LayerCount: 2
Back
SplineSet
240.762695312 700.814453125 m 4
 263.119140625 700.814453125 283.798828125 698.71875 302.80078125 694.52734375 c 4
 321.8046875 690.334960938 338.291015625 684.466796875 352.264648438 676.921875 c 4
 366.236328125 669.376953125 376.994140625 660.294921875 384.540039062 649.676757812 c 4
 392.084960938 639.056640625 395.857421875 627.599609375 395.857421875 615.303710938 c 4
 395.857421875 602.44921875 392.084960938 591.831054688 384.540039062 583.447265625 c 4
 376.994140625 575.064453125 366.794921875 570.872070312 353.940429688 570.872070312 c 4
 341.0859375 570.872070312 331.724609375 575.483398438 325.856445312 584.705078125 c 4
 319.98828125 593.926757812 313.700195312 606.919921875 306.994140625 623.6875 c 4
 303.08203125 633.1875 299.029296875 641.15234375 294.837890625 647.580078125 c 4
 290.647460938 654.006835938 285.755859375 659.176757812 280.16796875 663.08984375 c 4
 274.578125 667.001953125 267.87109375 669.795898438 260.047851562 671.47265625 c 4
 252.223632812 673.149414062 243.001953125 673.987304688 232.381835938 673.987304688 c 4
 198.290039062 673.987304688 171.8828125 666.442382812 153.16015625 651.353515625 c 4
 134.438476562 636.262695312 125.076171875 614.74609375 125.076171875 586.801757812 c 4
 125.076171875 562.768554688 131.922851562 543.208007812 145.615234375 528.119140625 c 4
 159.307617188 513.028320312 176.353515625 500.034179688 196.752929688 489.135742188 c 4
 217.151367188 478.237304688 239.227539062 468.038085938 262.98046875 458.537109375 c 4
 286.732421875 449.036132812 308.80859375 437.71875 329.20703125 424.583984375 c 4
 349.606445312 411.450195312 366.65234375 395.243164062 380.344726562 375.9609375 c 4
 394.037109375 356.6796875 400.883789062 331.94921875 400.883789062 301.768554688 c 4
 400.883789062 270.471679688 393.478515625 242.806640625 378.66796875 218.774414062 c 4
 363.857421875 194.741210938 343.318359375 176.01953125 317.05078125 162.60546875 c 5
 339.40625 148.633789062 358.268554688 131.30859375 373.637695312 110.62890625 c 4
 389.006835938 89.9501953125 396.692382812 62.564453125 396.692382812 28.4716796875 c 4
 396.692382812 -20.15234375 380.344726562 -58.2958984375 347.649414062 -85.9609375 c 4
 314.955078125 -113.625 269.82421875 -127.458007812 212.259765625 -127.458007812 c 4
 189.345703125 -127.458007812 168.247070312 -125.221679688 148.965820312 -120.750976562 c 4
 129.68359375 -116.280273438 113.057617188 -109.852539062 99.083984375 -101.469726562 c 4
 85.1123046875 -93.0859375 74.2138671875 -83.166015625 66.3896484375 -71.708984375 c 4
 58.5654296875 -60.2509765625 54.6533203125 -47.81640625 54.6533203125 -34.40234375 c 4
 54.6533203125 -20.990234375 58.42578125 -10.091796875 65.970703125 -1.7080078125 c 4
 73.515625 6.6748046875 83.71484375 10.8671875 96.5693359375 10.8671875 c 4
 108.865234375 10.8671875 117.947265625 6.53515625 123.815429688 -2.1279296875 c 4
 129.68359375 -10.7900390625 135.971679688 -24.0625 142.677734375 -41.947265625 c 4
 146.03125 -50.330078125 149.6640625 -58.154296875 153.576171875 -65.4208984375 c 4
 157.48828125 -72.685546875 162.377929688 -78.9736328125 168.247070312 -84.283203125 c 4
 174.115234375 -89.5927734375 181.66015625 -93.6435546875 190.881835938 -96.4375 c 4
 200.103515625 -99.232421875 211.700195312 -100.62890625 225.671875 -100.62890625 c 4
 259.206054688 -100.62890625 285.333984375 -92.38671875 304.056640625 -75.8994140625 c 4
 322.778320312 -59.4111328125 332.140625 -36.63671875 332.140625 -7.57421875 c 4
 332.140625 18.1357421875 325.293945312 38.953125 311.6015625 54.880859375 c 4
 297.909179688 70.8095703125 280.72265625 84.501953125 260.043945312 95.9599609375 c 4
 239.365234375 107.416992188 217.149414062 117.896484375 193.396484375 127.397460938 c 4
 169.64453125 136.897460938 147.428710938 147.936523438 126.75 160.51171875 c 4
 106.071289062 173.0859375 88.884765625 188.455078125 75.1923828125 206.619140625 c 4
 61.5 224.783203125 54.6533203125 248.397460938 54.6533203125 277.458984375 c 4
 54.6533203125 309.875 63.875 337.819335938 82.318359375 361.291992188 c 4
 100.760742188 384.765625 126.470703125 402.090820312 159.444335938 413.26953125 c 5
 146.03125 420.534179688 133.177734375 428.499023438 120.880859375 437.161132812 c 4
 108.5859375 445.823242188 97.8271484375 455.744140625 88.60546875 466.920898438 c 4
 79.3837890625 478.098632812 72.1181640625 490.953125 66.80859375 505.483398438 c 4
 61.5 520.013671875 58.8447265625 536.501953125 58.8447265625 554.944335938 c 4
 58.8447265625 600.213867188 74.9140625 635.84375 107.048828125 661.833007812 c 4
 139.184570312 687.8203125 183.755859375 700.814453125 240.762695312 700.814453125 c 4
336.333984375 267.397460938 m 4
 336.333984375 284.165039062 332.420898438 298.696289062 324.59765625 310.991210938 c 4
 316.7734375 323.288085938 306.154296875 334.46484375 292.740234375 344.525390625 c 4
 279.328125 354.583984375 264.09765625 363.666992188 247.051757812 371.770507812 c 4
 230.005859375 379.875 212.26171875 388.118164062 193.817382812 396.500976562 c 5
 172.020507812 390.354492188 154.416992188 379.315429688 141.002929688 363.38671875 c 4
 127.58984375 347.458984375 120.8828125 328.875 120.8828125 307.637695312 c 4
 120.8828125 289.194335938 125.772460938 273.825195312 135.553710938 261.530273438 c 4
 145.333984375 249.233398438 158.049804688 238.475585938 173.698242188 229.25390625 c 4
 189.34765625 220.033203125 206.8125 211.7890625 226.09375 204.5234375 c 4
 245.375976562 197.2578125 264.517578125 189.154296875 283.520507812 180.2109375 c 5
 299.727539062 189.154296875 312.58203125 201.169921875 322.08203125 216.259765625 c 4
 331.583007812 231.348632812 336.333984375 248.39453125 336.333984375 267.397460938 c 4
EndSplineSet
Fore
SplineSet
137 555 m 4
 150.9140625 654 235.51953125 701 339.51953125 701 c 7
 400.51953125 701 456.270507812 685 476.3515625 650 c 4
 481.805664062 639 484.119140625 627 482.432617188 615 c 4
 478.918945312 590 459.108398438 570 433.108398438 570 c 7
 376.108398438 570 438.0703125 648 324.0703125 648 c 7
 261.0703125 648 212.697265625 624 207.497070312 587 c 4
 203.984375 562 209.454101562 544 220.205078125 528 c 4
 257.178710938 478 336.9296875 462 389.729492188 425 c 4
 424.216796875 400 452.297851562 365 443.443359375 302 c 4
 433.88671875 234 391.28125 187 339.767578125 162 c 5
 360.799804688 148 375.411132812 131 388.459960938 110 c 4
 401.5078125 89 405.854492188 63 401.076171875 29 c 4
 386.599609375 -74 302.151367188 -127 194.151367188 -127 c 7
 130.151367188 -127 76.5400390625 -110 55.740234375 -73 c 4
 50.2861328125 -62 48.39453125 -47 50.2216796875 -34 c 4
 53.8759765625 -8 71.5458984375 11 97.5458984375 11 c 4
 109.545898438 11 117.842773438 6 122.71875 -2 c 4
 145.81640625 -44 117.458984375 -75 214.458984375 -75 c 7
 277.458984375 -75 325.39453125 -47 331.016601562 -7 c 4
 334.669921875 19 329.622070312 40 318.870117188 56 c 4
 282.038085938 107 204.567382812 125 149.626953125 161 c 4
 115 185 85.4970703125 217 94.0703125 278 c 4
 104.330078125 351 156.232421875 393 217.04296875 413 c 5
 169.978515625 441 125.897460938 476 137 555 c 4
304.84375 191 m 5
 332.810546875 205 358.74609375 233 363.946289062 270 c 4
 368.583984375 303 352.39453125 323 333.643554688 339 c 4
 311.454101562 359 280.140625 371 251.108398438 385 c 5
 215.703125 375 180.908203125 348 175.005859375 306 c 4
 169.805664062 269 190.134765625 250 213.16796875 236 c 4
 239.637695312 218 274.091796875 207 304.84375 191 c 5
EndSplineSet
EndChar

StartChar: brokenbar
Encoding: 166 166 121
Width: 220
VWidth: 838
Flags: HMW
LayerCount: 2
Fore
SplineSet
132.421875 373 m 5
 178.37890625 700 l 1
 238.37890625 700 l 1
 192.421875 373 l 5
 132.421875 373 l 5
69.458984375 -75 m 1
 115.134765625 250 l 1
 175.134765625 250 l 1
 129.458984375 -75 l 1
 69.458984375 -75 l 1
EndSplineSet
EndChar

StartChar: uni00AD
Encoding: 173 173 122
Width: 390
VWidth: 838
Flags: HMW
LayerCount: 2
Fore
SplineSet
85.4375 181 m 1
 95.275390625 251 l 1
 365.275390625 251 l 1
 355.4375 181 l 1
 85.4375 181 l 1
EndSplineSet
EndChar

StartChar: logicalnot
Encoding: 172 172 123
Width: 475
VWidth: 838
Flags: HMW
LayerCount: 2
Fore
SplineSet
402.762695312 226 m 5
 101.762695312 226 l 5
 106.961914062 263 l 5
 451.961914062 263 l 5
 432.989257812 128 l 5
 388.989257812 128 l 5
 402.762695312 226 l 5
EndSplineSet
EndChar

StartChar: paragraph
Encoding: 182 182 124
Width: 458
VWidth: 838
Flags: HMW
LayerCount: 2
Back
SplineSet
245.46875 -85.5400390625 m 5
 245.46875 290.029296875 l 5
 198.522460938 290.029296875 l 6
 171.696289062 290.029296875 147.6640625 294.78125 126.426757812 304.28125 c 4
 105.188476562 313.782226562 87.025390625 326.776367188 71.9345703125 343.264648438 c 4
 56.8447265625 359.751953125 45.248046875 378.75390625 37.1435546875 400.271484375 c 4
 29.0400390625 421.7890625 24.98828125 444.842773438 24.98828125 469.43359375 c 4
 24.98828125 496.819335938 29.458984375 521.690429688 38.4013671875 544.045898438 c 4
 47.34375 566.40234375 60.1982421875 585.404296875 76.96484375 601.053710938 c 4
 93.73046875 616.702148438 114.129882812 628.858398438 138.163085938 637.520507812 c 4
 162.1953125 646.182617188 189.30078125 650.514648438 219.48046875 650.514648438 c 6
 438.28515625 650.514648438 l 5
 438.28515625 629.556640625 l 5
 372.895507812 615.3046875 l 5
 372.895507812 -85.5400390625 l 5
 334.333007812 -85.5400390625 l 5
 334.333007812 616.981445312 l 5
 284.032226562 616.981445312 l 5
 284.032226562 -85.5400390625 l 5
 245.46875 -85.5400390625 l 5
EndSplineSet
Fore
SplineSet
220.913085938 -86 m 1
 273.756835938 290 l 1
 239.756835938 290 l 2
 133.756835938 290 76.2978515625 365 90.9140625 469 c 0
 107.216796875 585 194.3515625 650 310.3515625 650 c 2
 529.3515625 650 l 1
 525.135742188 620 l 1
 471.02734375 605 l 1
 373.913085938 -86 l 1
 321.913085938 -86 l 1
 419.02734375 605 l 1
 369.02734375 605 l 1
 271.913085938 -86 l 1
 220.913085938 -86 l 1
EndSplineSet
EndChar

StartChar: cedilla
Encoding: 184 184 125
Width: 192
VWidth: 838
Flags: HMW
LayerCount: 2
Fore
SplineSet
166.291992188 -126 m 0
 158.421875 -182 103.486328125 -210 43.486328125 -210 c 0
 17.486328125 -210 -6.2490234375 -201 -18.703125 -190 c 1
 -3.330078125 -166 l 1
 11.4052734375 -175 19.8427734375 -179 41.8427734375 -179 c 0
 71.8427734375 -179 98.810546875 -165 102.88671875 -136 c 0
 106.400390625 -111 95.0869140625 -99 68.0869140625 -99 c 0
 54.0869140625 -99 37.5244140625 -103 22.9619140625 -107 c 1
 17.0869140625 -99 l 1
 84.669921875 19 l 1
 115.669921875 19 l 1
 81.81640625 -44 l 1
 136.81640625 -44 173.599609375 -74 166.291992188 -126 c 0
EndSplineSet
EndChar

StartChar: guillemotleft
Encoding: 171 171 126
Width: 367
VWidth: 838
Flags: HMW
LayerCount: 2
Fore
SplineSet
172.88671875 49 m 1
 78.3896484375 202 l 1
 80.7783203125 219 l 1
 216.140625 371 l 1
 226.578125 367 l 1
 148.794921875 212 l 1
 183.870117188 56 l 1
 172.88671875 49 l 1
303.88671875 49 m 1
 209.389648438 202 l 1
 211.778320312 219 l 1
 348.140625 371 l 1
 356.578125 367 l 1
 279.794921875 212 l 1
 314.870117188 56 l 1
 303.88671875 49 l 1
EndSplineSet
EndChar

StartChar: exclamdown
Encoding: 161 161 127
Width: 180
VWidth: 838
Flags: HMW
LayerCount: 2
Fore
SplineSet
149.891601562 540 m 5
 179.891601562 540 l 5
 171.978515625 441 167.784179688 340 165.134765625 250 c 4
 163.4375 181 165.880859375 113 157.870117188 56 c 4
 152.529296875 18 128.594726562 -10 88.5947265625 -10 c 4
 49.5947265625 -10 32.529296875 18 37.8701171875 56 c 4
 46.021484375 114 66.71875 183 84.697265625 254 c 4
 107.205078125 343 130.119140625 442 149.891601562 540 c 5
187.37890625 700 m 3
 219.37890625 700 239.005859375 676 234.6484375 645 c 0
 230.010742188 612 204.918945312 590 171.918945312 590 c 3
 139.918945312 590 120.151367188 613 124.6484375 645 c 0
 128.724609375 674 157.37890625 700 187.37890625 700 c 3
EndSplineSet
EndChar

StartChar: mu
Encoding: 181 181 128
Width: 495
VWidth: 838
Flags: HMW
LayerCount: 2
Back
SplineSet
335 35 m 5
 296 0 256 -10 188 -10 c 4
 98 -10 80 50 80 142 c 6
 80 410 l 5
 20 430 l 5
 20 450 l 5
 160 450 l 5
 160 162 l 6
 160 91 162 35 230 35 c 4
 278 35 310 55 335 85 c 5
 335 410 l 5
 275 430 l 5
 275 450 l 5
 415 450 l 5
 415 50 l 5
 475 30 l 5
 475 20 l 5
 355 -10 l 5
 345 -10 l 5
 345 30 l 5
 335 35 l 5
EndSplineSet
Fore
SplineSet
339.918945312 35 m 1
 296 0 254.594726562 -10 186.594726562 -10 c 3
 167.594726562 -10 152.016601562 -7 139.71875 -2 c 1
 129.038085938 -78 l 1
 69.0380859375 -78 l 1
 137.622070312 410 l 1
 80.4326171875 430 l 1
 83.2431640625 450 l 1
 223.243164062 450 l 1
 182.767578125 162 l 2
 172.7890625 91 166.918945312 35 234.918945312 35 c 3
 282.918945312 35 317.729492188 55 346.946289062 85 c 1
 392.622070312 410 l 1
 335.432617188 430 l 1
 338.243164062 450 l 1
 478.243164062 450 l 1
 422.02734375 50 l 1
 479.215820312 30 l 1
 477.810546875 20 l 1
 353.594726562 -10 l 1
 343.594726562 -10 l 1
 349.215820312 30 l 1
 339.918945312 35 l 1
EndSplineSet
EndChar

StartChar: guillemotright
Encoding: 187 187 129
Width: 367
VWidth: 838
Flags: HMW
LayerCount: 2
Fore
SplineSet
197.870117188 56 m 5
 276.794921875 212 l 5
 243.578125 367 l 5
 254.140625 371 l 5
 347.778320312 219 l 5
 345.389648438 202 l 5
 207.88671875 49 l 5
 197.870117188 56 l 5
67.8701171875 56 m 5
 146.794921875 212 l 5
 112.578125 367 l 5
 123.140625 371 l 5
 216.778320312 219 l 5
 214.389648438 202 l 5
 75.88671875 49 l 5
 67.8701171875 56 l 5
EndSplineSet
EndChar

StartChar: questiondown
Encoding: 191 191 130
Width: 433
VWidth: 838
Flags: HMW
LayerCount: 2
Fore
SplineSet
124.162109375 115 m 4
 119.946289062 85 145.622070312 40 220.622070312 40 c 7
 296.622070312 40 318.459960938 110 327.594726562 175 c 4
 334.200195312 222 318.681640625 261 283.880859375 298 c 4
 227.172851562 357 231.16796875 421 237.2109375 464 c 6
 243.67578125 510 l 29
 283.67578125 510 l 29
 277.4921875 466 l 6
 268.356445312 401 296 370 335.502929688 338 c 4
 377.724609375 304 426.729492188 240 415.626953125 161 c 4
 402.837890625 70 325.594726562 -10 223.594726562 -10 c 7
 105.594726562 -10 50.8212890625 77 62.064453125 157 c 4
 66.9833984375 192 93.1083984375 200 109.108398438 200 c 7
 128.108398438 200 146.421875 188 143.189453125 165 c 4
 139.25390625 137 128.23828125 144 124.162109375 115 c 4
290.37890625 700 m 7
 322.37890625 700 342.005859375 676 337.6484375 645 c 4
 333.010742188 612 307.918945312 590 274.918945312 590 c 7
 242.918945312 590 223.151367188 613 227.6484375 645 c 4
 231.724609375 674 260.37890625 700 290.37890625 700 c 7
EndSplineSet
EndChar

StartChar: registered
Encoding: 174 174 131
Width: 576
VWidth: 838
Flags: HMW
LayerCount: 2
Back
SplineSet
190.139648438 560.813476562 m 1
 289.0625 560.813476562 l 2
 317.565429688 560.813476562 340.620117188 554.666992188 358.224609375 542.370117188 c 0
 375.830078125 530.075195312 384.631835938 512.19140625 384.631835938 488.717773438 c 0
 384.631835938 471.391601562 379.461914062 457.418945312 369.123046875 446.80078125 c 0
 358.784179688 436.180664062 344.391601562 428.63671875 325.94921875 424.165039062 c 1
 382.956054688 319.374023438 l 1
 408.104492188 312.666992188 l 1
 408.104492188 302.607421875 l 1
 336.009765625 302.607421875 l 1
 276.48828125 419.973632812 l 1
 257.206054688 419.973632812 l 1
 257.206054688 319.374023438 l 1
 287.385742188 312.666992188 l 1
 287.385742188 302.607421875 l 1
 190.139648438 302.607421875 l 1
 190.139648438 312.666992188 l 1
 211.936523438 319.374023438 l 1
 211.936523438 543.208007812 l 1
 190.139648438 549.915039062 l 1
 190.139648438 560.813476562 l 1
257.206054688 437.579101562 m 1
 279.002929688 437.579101562 297.306640625 441.4921875 312.116210938 449.31640625 c 0
 326.926757812 457.139648438 334.333007812 470.83203125 334.333007812 490.393554688 c 0
 334.333007812 507.719726562 328.463867188 520.853515625 316.727539062 529.795898438 c 0
 304.990234375 538.73828125 285.150390625 543.208984375 257.206054688 543.208984375 c 1
 257.206054688 437.579101562 l 1
EndSplineSet
Fore
SplineSet
341.622070312 410 m 5
 304.622070312 410 l 5
 290.848632812 312 l 5
 320.005859375 306 l 5
 318.880859375 298 l 5
 225.880859375 298 l 5
 227.005859375 306 l 5
 255.848632812 312 l 5
 288.454101562 544 l 5
 261.297851562 550 l 5
 262.421875 558 l 5
 362.421875 558 l 6
 402.421875 558 431.313476562 543 440.51953125 516 c 4
 443.25390625 507 444.848632812 497 443.162109375 485 c 4
 437.961914062 448 414.588867188 424 381.46484375 416 c 5
 429.848632812 312 l 5
 459.005859375 306 l 5
 457.880859375 298 l 5
 391.880859375 298 l 5
 341.622070312 410 l 5
329.713867188 432 m 6
 371.713867188 432 397.961914062 448 403.583984375 488 c 4
 409.205078125 528 389.611328125 538 349.611328125 538 c 6
 322.611328125 538 l 5
 307.713867188 432 l 5
 329.713867188 432 l 6
115.151367188 428 m 0
 133.84375 561 247.616210938 659 380.616210938 659 c 3
 513.616210938 659 599.703125 560 581.151367188 428 c 0
 562.599609375 296 447.405273438 195 315.405273438 195 c 3
 183.405273438 195 96.599609375 296 115.151367188 428 c 0
146.151367188 428 m 0
 129.708007812 311 202.059570312 221 319.059570312 221 c 3
 436.059570312 221 533.708007812 311 550.151367188 428 c 0
 566.594726562 545 493.961914062 633 376.961914062 633 c 3
 259.961914062 633 162.594726562 545 146.151367188 428 c 0
EndSplineSet
EndChar

StartChar: copyright
Encoding: 169 169 132
Width: 755
VWidth: 0
Flags: HMW
LayerCount: 2
Back
SplineSet
191.654296875 327.7578125 m 0
 191.654296875 356.259765625 196.262695312 382.393554688 205.484375 406.145507812 c 0
 214.706054688 429.8984375 227.420898438 450.296875 243.62890625 467.342773438 c 0
 259.8359375 484.388671875 279.118164062 497.801757812 301.473632812 507.58203125 c 0
 323.829101562 517.36328125 348.140625 522.25390625 374.408203125 522.25390625 c 0
 412.970703125 522.25390625 447.342773438 511.076171875 477.522460938 488.719726562 c 1
 480.875976562 488.719726562 l 1
 500.99609375 520.577148438 l 1
 512.732421875 520.577148438 l 1
 512.732421875 400.6953125 l 1
 494.2890625 400.6953125 l 1
 491.495117188 410.196289062 488.700195312 418.020507812 485.90625 424.166992188 c 0
 483.112304688 430.315429688 479.759765625 436.462890625 475.846679688 442.610351562 c 0
 465.227539062 460.494140625 452.79296875 473.348632812 438.541015625 481.171875 c 0
 424.2890625 488.997070312 407.3828125 492.909179688 387.822265625 492.909179688 c 0
 349.258789062 492.909179688 320.196289062 479.076171875 300.635742188 451.412109375 c 0
 281.075195312 423.747070312 271.294921875 384.205078125 271.294921875 332.788085938 c 0
 271.294921875 280.252929688 281.21484375 239.733398438 301.0546875 211.23046875 c 0
 320.895507812 182.7265625 349.258789062 168.474609375 386.145507812 168.474609375 c 0
 421.915039062 168.474609375 450.138671875 183.286132812 470.817382812 212.907226562 c 0
 476.407226562 220.731445312 481.296875 229.953125 485.48828125 240.571289062 c 0
 489.6796875 251.19140625 493.173828125 262.927734375 495.967773438 275.782226562 c 1
 512.734375 275.782226562 l 1
 512.734375 140.810546875 l 1
 500.998046875 140.810546875 l 1
 479.201171875 179.373046875 l 1
 462.993164062 165.959960938 446.645507812 156.040039062 430.158203125 149.61328125 c 0
 413.671875 143.185546875 394.80859375 139.97265625 373.571289062 139.97265625 c 0
 346.744140625 139.97265625 322.29296875 144.583007812 300.216796875 153.8046875 c 0
 278.141601562 163.025390625 259 175.880859375 242.791992188 192.368164062 c 0
 226.584960938 208.854492188 214.009765625 228.555664062 205.068359375 251.469726562 c 0
 196.125 274.383789062 191.654296875 299.813476562 191.654296875 327.7578125 c 0
EndSplineSet
Fore
SplineSet
229.53515625 324 m 0
 245.837890625 440 327.924804688 526 442.924804688 526 c 3
 485.924804688 526 520.95703125 512 546.567382812 495 c 1
 548.567382812 495 l 1
 577.081054688 520 l 1
 586.081054688 520 l 1
 569.918945312 405 l 1
 554.918945312 405 l 1
 543.7890625 461 517.708007812 496 446.708007812 496 c 3
 352.708007812 496 307.151367188 428 293.09765625 328 c 0
 279.04296875 228 306.064453125 157 399.064453125 157 c 3
 473.064453125 157 514.686523438 197 535.681640625 261 c 1
 549.681640625 261 l 1
 531.270507812 130 l 1
 519.270507812 130 l 1
 498.502929688 153 l 1
 463.270507812 130 433.426757812 124 384.426757812 124 c 3
 270.426757812 124 213.373046875 209 229.53515625 324 c 0
91.09765625 328 m 0
 117.659179688 517 280.616210938 659 469.616210938 659 c 3
 659.616210938 659 782.659179688 517 756.09765625 328 c 0
 729.53515625 139 565.578125 -3 376.578125 -3 c 3
 186.578125 -3 64.53515625 139 91.09765625 328 c 0
134.09765625 328 m 0
 110.767578125 162 215.778320312 34 381.778320312 34 c 3
 547.778320312 34 688.767578125 162 712.09765625 328 c 0
 735.426757812 494 630.275390625 621 464.275390625 621 c 3
 298.275390625 621 157.426757812 494 134.09765625 328 c 0
EndSplineSet
EndChar

StartChar: ampersand
Encoding: 38 38 133
Width: 662
VWidth: 838
Flags: HMW
LayerCount: 2
Fore
SplineSet
215.594726562 -10 m 3
 102.594726562 -10 42.30859375 52 56.9248046875 156 c 0
 70.275390625 251 127.81640625 326 229.810546875 390 c 1
 204.432617188 430 193.102539062 449 202.23828125 514 c 0
 214.46484375 601 287.756835938 660 375.756835938 660 c 3
 440.756835938 660 490.837890625 625 481.703125 560 c 0
 470.740234375 482 401.135742188 435 332.951171875 391 c 1
 454.513671875 210 l 1
 485.416015625 252 513.302734375 301 517.799804688 333 c 0
 521.313476562 358 500.157226562 364 467 370 c 1
 471.216796875 400 l 1
 664.216796875 400 l 1
 660 370 l 1
 605.297851562 365 598.71875 368 581.11328125 321 c 0
 560.243164062 265 527.530273438 203 491.643554688 154 c 1
 565.90234375 42 l 1
 634.810546875 20 l 1
 632 0 l 1
 486 0 l 1
 430.805664062 84 l 1
 376.637695312 33 308.594726562 -10 215.594726562 -10 c 3
149.124023438 193 m 0
 136.897460938 106 163.134765625 65 251.134765625 65 c 3
 316.134765625 65 354.756835938 105 392.67578125 140 c 1
 258.345703125 344 l 1
 208.567382812 310 159.524414062 267 149.124023438 193 c 0
350.729492188 610 m 3
 314.729492188 610 269.935546875 583 264.594726562 545 c 0
 259.95703125 512 283.3515625 465 303.995117188 434 c 1
 367.475585938 473 418.37890625 515 423.71875 553 c 0
 428.356445312 586 402.729492188 610 350.729492188 610 c 3
EndSplineSet
EndChar

StartChar: f_f
Encoding: 64256 64256 134
Width: 725
VWidth: 838
Flags: HMW
LayerCount: 2
Back
SplineSet
382 589 m 7
 382 564 366 548 341 548 c 7
 281 548 321 620 259 620 c 7
 180 620 180 540 180 455 c 6
 180 450 l 5
 300 450 l 5
 300 410 l 5
 180 410 l 5
 180 30 l 5
 240 20 l 5
 240 0 l 5
 40 0 l 5
 40 20 l 5
 100 30 l 5
 100 410 l 5
 20 410 l 5
 35 450 l 5
 100 450 l 5
 100 503 l 6
 100 569 133 606 176 633 c 4
 202 649 236 660 275 660 c 7
 327 660 382 636 382 589 c 7
642 629 m 7
 642 604 626 588 601 588 c 7
 541 588 581 660 519 660 c 7
 440 660 440 580 440 495 c 6
 440 450 l 5
 560 450 l 5
 560 410 l 5
 440 410 l 5
 440 30 l 5
 500 20 l 5
 500 0 l 5
 300 0 l 5
 300 20 l 5
 360 30 l 5
 360 410 l 5
 280 410 l 5
 295 450 l 5
 360 450 l 5
 360 543 l 6
 360 609 393 646 436 673 c 4
 462 689 496 700 535 700 c 7
 587 700 642 676 642 629 c 7
EndSplineSet
Fore
SplineSet
788.541015625 630 m 0
 785.02734375 605 767.918945312 590 742.918945312 590 c 0
 682.918945312 590 734.756835938 660 642.756835938 660 c 3
 563.756835938 660 541.513671875 580 529.567382812 495 c 2
 523.243164062 450 l 1
 643.243164062 450 l 1
 637.622070312 410 l 1
 517.622070312 410 l 1
 465.622070312 40 l 1
 524.215820312 30 l 1
 520 0 l 1
 320 0 l 1
 324.215820312 30 l 1
 385.622070312 40 l 1
 437.622070312 410 l 1
 237.622070312 410 l 1
 185.622070312 40 l 1
 244.215820312 30 l 1
 240 0 l 1
 40 0 l 1
 44.2158203125 30 l 1
 105.622070312 40 l 1
 157.622070312 410 l 1
 77.6220703125 410 l 1
 98.2431640625 450 l 1
 163.243164062 450 l 1
 181.513671875 580 290.756835938 660 387.756835938 660 c 3
 431.756835938 660 487.7890625 646 501.010742188 612 c 1
 545.880859375 668 612.37890625 700 673.37890625 700 c 3
 725.37890625 700 795.567382812 680 788.541015625 630 c 0
465.438476562 551 m 1
 463.438476562 551 460.297851562 550 457.297851562 550 c 3
 397.297851562 550 449.135742188 620 357.135742188 620 c 3
 278.135742188 620 255.891601562 540 243.946289062 455 c 2
 243.243164062 450 l 1
 443.243164062 450 l 1
 448.865234375 490 l 2
 451.95703125 512 457.767578125 532 465.438476562 551 c 1
EndSplineSet
LCarets2: 1 300
Ligature2: "'liga' standard ligatures-subtable" f f
EndChar

StartChar: f_i
Encoding: 64257 64257 135
Width: 545
VWidth: 838
Flags: HMW
LayerCount: 2
Back
SplineSet
450 460 m 5
 460 460 l 5
 460 40 l 5
 520 30 l 5
 520 0 l 5
 320 0 l 5
 320 30 l 5
 380 40 l 5
 380 380 l 5
 320 400 l 5
 320 420 l 5
 400 435 420 445 450 460 c 5
420 549 m 7
 390 549 365 575 365 604 c 7
 365 636 388 659 420 659 c 7
 453 659 475 637 475 604 c 7
 475 573 452 549 420 549 c 7
460 630 m 7
 460 605 445 590 420 590 c 7
 360 590 402 660 310 660 c 7
 231 660 180 580 180 495 c 6
 180 450 l 5
 300 450 l 5
 300 410 l 5
 180 410 l 5
 180 40 l 5
 240 30 l 5
 240 0 l 5
 40 0 l 5
 40 30 l 5
 100 40 l 5
 100 410 l 5
 20 410 l 5
 35 450 l 5
 100 450 l 5
 100 490 l 6
 100 620 238 700 335 700 c 7
 387 700 460 680 460 630 c 7
EndSplineSet
Fore
SplineSet
548.541015625 630 m 4
 545.02734375 605 527.918945312 590 502.918945312 590 c 7
 442.918945312 590 474.756835938 660 382.756835938 660 c 3
 303.756835938 660 261.513671875 580 249.567382812 495 c 2
 243.243164062 450 l 1
 383.243164062 450 l 1
 465.3515625 465 486.756835938 475 518.865234375 490 c 1
 528.865234375 490 l 1
 465.622070312 40 l 1
 524.215820312 30 l 1
 520 0 l 1
 320 0 l 1
 324.215820312 30 l 1
 385.622070312 40 l 1
 434.810546875 390 l 1
 377.622070312 410 l 1
 237.622070312 410 l 1
 185.622070312 40 l 1
 244.215820312 30 l 1
 240 0 l 1
 40 0 l 1
 44.2158203125 30 l 1
 105.622070312 40 l 1
 157.622070312 410 l 1
 77.6220703125 410 l 1
 98.2431640625 450 l 1
 163.243164062 450 l 1
 168.865234375 490 l 2
 187.135742188 620 316.37890625 700 413.37890625 700 c 3
 465.37890625 700 555.567382812 680 548.541015625 630 c 4
EndSplineSet
LCarets2: 1 300
Ligature2: "'liga' standard ligatures-subtable" f i
EndChar

StartChar: f_f_i
Encoding: 64259 64259 136
Width: 825
VWidth: 838
Flags: HMW
LayerCount: 2
Back
SplineSet
700 630 m 0
 700 605 685 590 660 590 c 0
 600 590 642 660 550 660 c 3
 471 660 460 580 460 495 c 2
 460 450 l 1
 580 450 l 1
 580 410 l 1
 460 410 l 1
 460 40 l 1
 520 30 l 1
 520 0 l 1
 320 0 l 1
 320 30 l 1
 380 40 l 1
 380 410 l 1
 180 410 l 1
 180 40 l 1
 240 30 l 1
 240 0 l 1
 40 0 l 1
 40 30 l 1
 100 40 l 1
 100 410 l 1
 20 410 l 1
 35 450 l 1
 100 450 l 1
 100 580 198 660 295 660 c 3
 339 660 397 646 415 612 c 1
 452 668 514 700 575 700 c 3
 627 700 700 680 700 630 c 0
388 551 m 1
 386 551 383 550 380 550 c 3
 320 550 362 620 270 620 c 3
 191 620 180 540 180 455 c 2
 180 450 l 1
 380 450 l 1
 380 490 l 2
 380 512 383 532 388 551 c 1
EndSplineSet
Fore
SplineSet
828.541015625 630 m 4
 825.02734375 605 807.918945312 590 782.918945312 590 c 7
 722.918945312 590 754.756835938 660 662.756835938 660 c 3
 583.756835938 660 541.513671875 580 529.567382812 495 c 2
 523.243164062 450 l 1
 663.243164062 450 l 1
 745.3515625 465 766.756835938 475 798.865234375 490 c 1
 808.865234375 490 l 1
 745.622070312 40 l 1
 804.215820312 30 l 1
 800 0 l 1
 600 0 l 1
 604.215820312 30 l 1
 665.622070312 40 l 1
 714.810546875 390 l 1
 657.622070312 410 l 1
 517.622070312 410 l 1
 465.622070312 40 l 1
 524.215820312 30 l 1
 520 0 l 1
 320 0 l 1
 324.215820312 30 l 1
 385.622070312 40 l 1
 437.622070312 410 l 1
 237.622070312 410 l 1
 185.622070312 40 l 1
 244.215820312 30 l 1
 240 0 l 1
 40 0 l 1
 44.2158203125 30 l 1
 105.622070312 40 l 1
 157.622070312 410 l 1
 77.6220703125 410 l 1
 98.2431640625 450 l 1
 163.243164062 450 l 1
 181.513671875 580 290.756835938 660 387.756835938 660 c 3
 433.756835938 660 493.5078125 644 502.16796875 606 c 1
 553.600585938 666 630.37890625 700 693.37890625 700 c 3
 745.37890625 700 835.567382812 680 828.541015625 630 c 4
466.438476562 551 m 1
 463.438476562 551 460.297851562 550 457.297851562 550 c 3
 397.297851562 550 449.135742188 620 357.135742188 620 c 3
 278.135742188 620 255.891601562 540 243.946289062 455 c 2
 243.243164062 450 l 1
 443.243164062 450 l 1
 448.865234375 490 l 2
 451.95703125 512 457.767578125 532 466.438476562 551 c 1
EndSplineSet
LCarets2: 2 300 580
Ligature2: "'liga' standard ligatures-subtable" f f i
EndChar

StartChar: f_l
Encoding: 64258 64258 137
Width: 545
VWidth: 838
Flags: HMW
LayerCount: 2
Back
SplineSet
460 630 m 4
 460 605 445 590 420 590 c 4
 360 590 382 660 290 660 c 7
 211 660 180 580 180 495 c 6
 180 450 l 5
 320 450 l 5
 400 465 420 475 450 490 c 5
 460 490 l 5
 460 40 l 5
 520 30 l 5
 520 0 l 5
 320 0 l 5
 320 30 l 5
 380 40 l 5
 380 390 l 5
 320 410 l 5
 180 410 l 5
 180 40 l 5
 240 30 l 5
 240 0 l 5
 40 0 l 5
 40 30 l 5
 100 40 l 5
 100 410 l 5
 20 410 l 5
 35 450 l 5
 100 450 l 5
 100 490 l 6
 100 620 218 700 315 700 c 7
 367 700 460 680 460 630 c 4
EndSplineSet
Fore
SplineSet
465.622070312 40 m 5
 524.215820312 30 l 5
 520 0 l 5
 320 0 l 5
 324.215820312 30 l 5
 385.622070312 40 l 5
 437.622070312 410 l 5
 237.622070312 410 l 5
 185.622070312 40 l 5
 244.215820312 30 l 5
 240 0 l 5
 40 0 l 5
 44.2158203125 30 l 5
 105.622070312 40 l 5
 157.622070312 410 l 5
 77.6220703125 410 l 5
 98.2431640625 450 l 5
 163.243164062 450 l 5
 168.865234375 490 l 6
 187.135742188 620 316.37890625 700 413.37890625 700 c 7
 440.37890625 700 478.53515625 694 506.848632812 682 c 5
 522.551757812 687 534.39453125 693 548.37890625 700 c 5
 558.37890625 700 l 5
 548.541015625 630 l 5
 465.622070312 40 l 5
465.44921875 608 m 5
 450.400390625 629 443.756835938 660 382.756835938 660 c 7
 303.756835938 660 261.513671875 580 249.567382812 495 c 6
 243.243164062 450 l 5
 443.243164062 450 l 5
 465.44921875 608 l 5
EndSplineSet
LCarets2: 1 300
Ligature2: "'liga' standard ligatures-subtable" f l
EndChar

StartChar: f_f_l
Encoding: 64260 64260 138
Width: 825
VWidth: 838
Flags: HMW
LayerCount: 2
Fore
SplineSet
745.44921875 608 m 1
 730.400390625 629 723.756835938 660 662.756835938 660 c 3
 583.756835938 660 541.513671875 580 529.567382812 495 c 2
 523.243164062 450 l 1
 723.243164062 450 l 1
 745.44921875 608 l 1
745.622070312 40 m 1
 804.215820312 30 l 1
 800 0 l 1
 600 0 l 1
 604.215820312 30 l 1
 665.622070312 40 l 1
 717.622070312 410 l 1
 517.622070312 410 l 1
 465.622070312 40 l 1
 524.215820312 30 l 1
 520 0 l 1
 320 0 l 1
 324.215820312 30 l 1
 385.622070312 40 l 1
 437.622070312 410 l 1
 237.622070312 410 l 1
 185.622070312 40 l 1
 244.215820312 30 l 1
 240 0 l 1
 40 0 l 1
 44.2158203125 30 l 1
 105.622070312 40 l 1
 157.622070312 410 l 1
 77.6220703125 410 l 1
 98.2431640625 450 l 1
 163.243164062 450 l 1
 181.513671875 580 290.756835938 660 387.756835938 660 c 3
 433.756835938 660 493.5078125 644 502.16796875 606 c 1
 553.600585938 666 630.37890625 700 693.37890625 700 c 3
 720.37890625 700 758.53515625 694 786.848632812 682 c 1
 802.551757812 687 814.39453125 693 828.37890625 700 c 1
 838.37890625 700 l 1
 828.541015625 630 l 1
 745.622070312 40 l 1
443.243164062 450 m 1
 448.865234375 490 l 2
 451.95703125 512 457.767578125 532 466.438476562 551 c 1
 463.438476562 551 460.297851562 550 457.297851562 550 c 3
 397.297851562 550 449.135742188 620 357.135742188 620 c 3
 278.135742188 620 255.891601562 540 243.946289062 455 c 2
 243.243164062 450 l 1
 443.243164062 450 l 1
EndSplineSet
LCarets2: 2 300 580
Ligature2: "'liga' standard ligatures-subtable" f f l
EndChar

StartChar: T_h
Encoding: 65536 -1 139
Width: 1047
VWidth: 838
Flags: HMW
LayerCount: 2
Back
SplineSet
677 701 m 1
 687 701 l 1
 687 403 l 1
 729 440 786 458 855 458 c 0
 906 458 949 434 958 393 c 0
 962 374 962 354 962 331 c 2
 962 331 962 128 962 29 c 1
 1025 17 l 1
 1025 0 l 1
 821 0 l 1
 821 17 l 1
 883 29 l 1
 883 280 l 2
 883 354 878 401 807 401 c 0
 760 401 720 385 687 349 c 1
 687 29 l 1
 749 17 l 1
 749 0 l 1
 544 0 l 1
 544 17 l 1
 608 29 l 1
 608 466 l 2
 608 556 607 593 538 593 c 2
 364 593 l 1
 364 35 l 1
 456 20 l 1
 456 0 l 1
 184 0 l 1
 184 20 l 1
 276 35 l 1
 276 593 l 1
 99 593 l 1
 66 550 50 520 31 466 c 1
 10 466 l 1
 41 650 l 1
 545 650 l 1
 623 666 645 685 677 701 c 1
EndSplineSet
Fore
SplineSet
747.622070312 410 m 1
 794.821289062 447 833.6484375 460 902.6484375 460 c 0
 953.6484375 460 1011.85449219 433 1017.23242188 393 c 0
 1019.5625 374 1016.75097656 354 1013.51855469 331 c 2
 1013.51855469 331 985.129882812 129 971.215820312 30 c 1
 1029.81054688 20 l 1
 1027 0 l 1
 827 0 l 1
 829.810546875 20 l 1
 891.215820312 30 l 1
 926.3515625 280 l 2
 936.750976562 354 939.622070312 410 868.622070312 410 c 0
 821.622070312 410 778.654296875 396 740.594726562 360 c 1
 694.215820312 30 l 1
 752.810546875 20 l 1
 750 0 l 1
 550 0 l 1
 552.810546875 20 l 1
 614.215820312 30 l 1
 676.053710938 470 l 2
 687.297851562 550 692.918945312 590 622.918945312 590 c 2
 447.918945312 590 l 1
 369.918945312 35 l 1
 457.810546875 20 l 1
 455 0 l 1
 185 0 l 1
 187.810546875 20 l 1
 279.918945312 35 l 1
 357.918945312 590 l 1
 182.918945312 590 l 1
 142.016601562 548 123.784179688 525 96.0537109375 470 c 1
 76.0537109375 470 l 1
 131.3515625 650 l 1
 641.3515625 650 l 1
 723.459960938 665 744.865234375 675 776.973632812 690 c 1
 786.973632812 690 l 1
 747.622070312 410 l 1
EndSplineSet
LCarets2: 1 510
Ligature2: "'dlig' discretionary/historic ligatures-subtable" T h
EndChar

StartChar: minus
Encoding: 8722 8722 140
Width: 530
VWidth: 838
Flags: HMW
LayerCount: 2
Fore
SplineSet
97.32421875 230 m 5
 102.946289062 270 l 5
 502.946289062 270 l 5
 497.32421875 230 l 5
 97.32421875 230 l 5
EndSplineSet
EndChar

StartChar: divide
Encoding: 247 247 141
Width: 530
VWidth: 838
Flags: HMW
LayerCount: 2
Fore
SplineSet
277.6484375 90 m 7
 247.6484375 90 226.302734375 116 230.37890625 145 c 4
 234.875976562 177 261.108398438 200 293.108398438 200 c 7
 326.108398438 200 345.016601562 178 340.37890625 145 c 4
 336.021484375 114 309.6484375 90 277.6484375 90 c 7
309.97265625 320 m 3
 279.97265625 320 258.626953125 346 262.703125 375 c 0
 267.200195312 407 293.432617188 430 325.432617188 430 c 3
 358.432617188 430 377.340820312 408 372.703125 375 c 0
 368.345703125 344 341.97265625 320 309.97265625 320 c 3
98.7294921875 240 m 1
 104.3515625 280 l 1
 504.3515625 280 l 1
 498.729492188 240 l 1
 98.7294921875 240 l 1
EndSplineSet
EndChar

StartChar: dotlessi
Encoding: 305 305 142
Width: 245
VWidth: 838
Flags: HMW
AnchorPoint: "upper" 196.676 510 basechar 0
LayerCount: 2
Fore
SplineSet
219.6484375 460 m 1
 229.6484375 460 l 1
 169.215820312 30 l 1
 227.810546875 20 l 1
 225 0 l 1
 25 0 l 1
 27.810546875 20 l 1
 89.2158203125 30 l 1
 138.405273438 380 l 1
 81.216796875 400 l 1
 84.02734375 420 l 1
 166.135742188 435 187.541015625 445 219.6484375 460 c 1
EndSplineSet
EndChar

StartChar: tilde
Encoding: 732 732 145
Width: 490
VWidth: 838
Flags: HMW
AnchorPoint: "upper" 318.081 520 mark 0
LayerCount: 2
Fore
SplineSet
249.405273438 565 m 3
 214.405273438 565 197.297851562 550 183.081054688 520 c 1
 159.486328125 530 l 1
 166.513671875 580 211.432617188 615 271.432617188 615 c 3
 341.432617188 615 330.108398438 570 400.108398438 570 c 3
 435.108398438 570 452.216796875 585 466.432617188 615 c 1
 490.02734375 605 l 1
 483 555 438.081054688 520 378.081054688 520 c 3
 308.081054688 520 319.405273438 565 249.405273438 565 c 3
EndSplineSet
EndChar

StartChar: circumflex
Encoding: 710 710 149
Width: 397
VWidth: 838
Flags: HMW
AnchorPoint: "upper" 272.081 520 mark 0
LayerCount: 2
Fore
SplineSet
143.081054688 520 m 1
 273.275390625 621 l 1
 300.275390625 621 l 1
 400.081054688 520 l 5
 340.081054688 520 l 5
 280.373046875 579 l 1
 203.081054688 520 l 1
 143.081054688 520 l 1
EndSplineSet
EndChar

StartChar: germandbls
Encoding: 223 223 192
Width: 607
VWidth: 838
Flags: HMW
LayerCount: 2
Back
SplineSet
267 335 m 0
 267 423 333 460 426 460 c 3
 461 460 505 456 528 446 c 1
 528 331 l 1
 508 331 l 1
 489 403 467 410 419 410 c 3
 375 410 347 384 347 345 c 0
 347 271 455 261 493 235 c 0
 524 214 548 181 548 128 c 3
 548 37 484 -10 390 -10 c 3
 351 -10 302 -3 272 8 c 1
 267 143 l 1
 287 143 l 1
 305 55 342 35 397 35 c 3
 435 35 468 69 468 113 c 3
 468 187 370 199 323 231 c 0
 292 253 267 282 267 335 c 0
190 30 m 1
 250 20 l 1
 250 0 l 1
 50 0 l 1
 50 20 l 1
 110 30 l 1
 110 410 l 1
 30 410 l 1
 45 450 l 1
 110 450 l 1
 110 543 l 2
 110 609 143 646 186 673 c 0
 212 689 247 700 280 700 c 3
 364 700 451 676 451 629 c 0
 451 604 435 588 410 588 c 0
 350 588 383 660 280 660 c 3
 206 660 190 627 190 495 c 2
 190 30 l 1
EndSplineSet
Fore
SplineSet
454.654296875 581 m 0
 462.805664062 639 421.756835938 660 371.756835938 660 c 3
 282.756835938 660 271.513671875 580 259.567382812 495 c 2
 195.622070312 40 l 1
 254.215820312 30 l 1
 250 0 l 1
 50 0 l 1
 54.2158203125 30 l 1
 115.622070312 40 l 1
 186.313476562 543 l 2
 195.58984375 609 233.7890625 646 280.583984375 673 c 0
 308.833007812 689 344.37890625 700 383.37890625 700 c 3
 484.37890625 700 547.443359375 672 539.010742188 612 c 0
 517.5078125 459 408.556640625 438 395.486328125 345 c 0
 385.086914062 271 491.681640625 261 526.02734375 235 c 0
 554.076171875 214 573.4375 181 565.989257812 128 c 0
 553.200195312 37 482.594726562 -10 388.594726562 -10 c 3
 337.594726562 -10 271.545898438 11 278.151367188 58 c 0
 282.3671875 88 302.178710938 108 331.178710938 108 c 3
 387.178710938 108 341.622070312 40 402.622070312 40 c 3
 440.622070312 40 478.400390625 74 483.880859375 113 c 0
 494.28125 187 397.967773438 199 355.46484375 231 c 0
 327.556640625 253 306.6328125 282 314.081054688 335 c 0
 329.681640625 446 439.053710938 470 454.654296875 581 c 0
EndSplineSet
EndChar

StartChar: f_j
Encoding: 65537 -1 198
Width: 535
VWidth: 838
Flags: HMW
LayerCount: 2
Back
SplineSet
460 630 m 0
 460 605 445 590 420 590 c 0
 360 590 382 660 290 660 c 3
 211 660 180 580 180 495 c 2
 180 450 l 1
 320 450 l 1
 400 465 420 475 450 490 c 1
 460 490 l 1
 460 40 l 1
 520 30 l 1
 520 0 l 1
 320 0 l 1
 320 30 l 1
 380 40 l 1
 380 390 l 1
 320 410 l 1
 180 410 l 1
 180 40 l 1
 240 30 l 1
 240 0 l 1
 40 0 l 1
 40 30 l 1
 100 40 l 1
 100 410 l 1
 20 410 l 1
 35 450 l 1
 100 450 l 1
 100 490 l 2
 100 620 218 700 315 700 c 3
 367 700 460 680 460 630 c 0
EndSplineSet
Fore
SplineSet
460 0 m 2
 446.5078125 -96 359.935546875 -157 262.935546875 -157 c 3
 210.935546875 -157 161.307617188 -133 167.913085938 -86 c 0
 171.426757812 -61 189.67578125 -45 214.67578125 -45 c 3
 274.67578125 -45 222.556640625 -117 284.556640625 -117 c 3
 363.556640625 -117 379.71875 -2 385.622070312 40 c 2
 434.810546875 390 l 1
 377.622070312 410 l 1
 237.622070312 410 l 1
 185.622070312 40 l 1
 244.215820312 30 l 1
 240 0 l 1
 40 0 l 1
 44.2158203125 30 l 1
 105.622070312 40 l 1
 157.622070312 410 l 1
 77.6220703125 410 l 1
 98.2431640625 450 l 1
 163.243164062 450 l 1
 168.865234375 490 l 2
 187.135742188 620 316.37890625 700 413.37890625 700 c 3
 465.37890625 700 555.567382812 680 548.541015625 630 c 0
 545.02734375 605 527.918945312 590 502.918945312 590 c 3
 442.918945312 590 474.756835938 660 382.756835938 660 c 3
 303.756835938 660 261.513671875 580 249.567382812 495 c 2
 243.243164062 450 l 1
 383.243164062 450 l 1
 465.3515625 465 486.756835938 475 518.865234375 490 c 1
 528.865234375 490 l 1
 460 0 l 2
EndSplineSet
Ligature2: "'dlig' discretionary/historic ligatures-subtable" f j
LCarets2: 1 270
EndChar
